Atma-Light.ufo
<glyph name="parenleft" format="1">
  <advance width="331"/>
  <unicode hex="0028"/>
  <outline>
    <contour>
      <point x="80" y="315" type="curve" smooth="yes"/>
      <point x="80.0" y="480.0"/>
      <point x="140.698338608" y="650.651442208"/>
      <point x="321" y="761" type="curve"/>
      <point x="307.672662189" y="775.279290511"/>
      <point x="295.485888447" y="788.757055777"/>
      <point x="279" y="797" type="curve"/>
      <point x="109" y="684"/>
      <point x="25" y="515"/>
      <point x="25" y="309" type="curve" smooth="yes"/>
      <point x="25" y="105"/>
      <point x="117" y="-50"/>
      <point x="275" y="-160" type="curve"/>
      <point x="291.485888447" y="-151.757055777"/>
      <point x="303.672662189" y="-138.279290511"/>
      <point x="317" y="-124" type="curve"/>
      <point x="163.317646996" y="-28.4411010164"/>
      <point x="80.0" y="122.0"/>
    </contour>
  </outline>
</glyph>
<glyph name="hyphen" format="1">
  <advance width="264"/>
  <unicode hex="002D"/>
  <outline>
    <contour>
      <point x="30" y="301"/>
      <point x="30" y="287"/>
      <point x="30" y="266" type="curve"/>
      <point x="75" y="255"/>
      <point x="143" y="252"/>
      <point x="231" y="260" type="curve"/>
      <point x="234" y="282"/>
      <point x="234" y="299"/>
      <point x="234" y="313" type="curve"/>
      <point x="213" y="310"/>
      <point x="187" y="309"/>
      <point x="159" y="309" type="curve" smooth="yes"/>
      <point x="115" y="309"/>
      <point x="67" y="313"/>
      <point x="34" y="319" type="curve"/>
    </contour>
  </outline>
</glyph>
<glyph name="three" format="1">
  <advance width="377"/>
  <unicode hex="0033"/>
  <outline>
    <contour>
      <point x="357" y="579" type="curve"/>
      <point x="358" y="593"/>
      <point x="358" y="607"/>
      <point x="356" y="620" type="curve"/>
      <point x="264" y="619"/>
      <point x="155" y="610"/>
      <point x="7" y="582" type="curve"/>
      <point x="4" y="564"/>
      <point x="4" y="547"/>
      <point x="8" y="528" type="curve"/>
      <point x="144" y="565"/>
      <point x="262" y="571"/>
    </contour>
    <contour>
      <point x="209" y="-57" type="curve" smooth="yes"/>
      <point x="305" y="-57"/>
      <point x="377" y="21"/>
      <point x="377" y="154" type="curve" smooth="yes"/>
      <point x="377" y="282"/>
      <point x="299" y="360"/>
      <point x="160" y="378" type="curve"/>
      <point x="138" y="346" type="line"/>
      <point x="256" y="429"/>
      <point x="312" y="494"/>
      <point x="357" y="579" type="curve"/>
      <point x="319" y="595" type="line"/>
      <point x="268" y="508"/>
      <point x="206" y="438"/>
      <point x="98" y="370" type="curve"/>
      <point x="98" y="359"/>
      <point x="100" y="347"/>
      <point x="102" y="334" type="curve"/>
      <point x="247" y="347"/>
      <point x="322" y="269"/>
      <point x="322" y="138" type="curve" smooth="yes"/>
      <point x="322" y="43"/>
      <point x="279" y="-12"/>
      <point x="208" y="-12" type="curve" smooth="yes"/>
      <point x="141" y="-12"/>
      <point x="85" y="46"/>
      <point x="85" y="185" type="curve"/>
      <point x="66" y="183"/>
      <point x="49" y="180"/>
      <point x="32" y="174" type="curve"/>
      <point x="40" y="17"/>
      <point x="119" y="-57"/>
    </contour>
  </outline>
</glyph>
<glyph name="nine" format="1">
  <advance width="465"/>
  <unicode hex="0039"/>
  <outline>
    <contour>
      <point x="191" y="13" type="curve"/>
      <point x="293" y="13"/>
      <point x="375" y="171"/>
      <point x="375" y="373" type="curve" smooth="yes"/>
      <point x="375" y="560"/>
      <point x="320" y="667"/>
      <point x="231" y="667" type="curve" smooth="yes"/>
      <point x="160" y="667"/>
      <point x="103" y="590"/>
      <point x="103" y="480" type="curve" smooth="yes"/>
      <point x="103" y="366"/>
      <point x="154" y="311"/>
      <point x="225" y="311" type="curve" smooth="yes"/>
      <point x="297" y="311"/>
      <point x="356" y="382"/>
      <point x="373" y="492" type="curve"/>
      <point x="405" y="435" type="line"/>
      <point x="371" y="329"/>
      <point x="300" y="267"/>
      <point x="215" y="267" type="curve" smooth="yes"/>
      <point x="120" y="267"/>
      <point x="48" y="354"/>
      <point x="48" y="466" type="curve" smooth="yes"/>
      <point x="48" y="612"/>
      <point x="130" y="711"/>
      <point x="233" y="711" type="curve" smooth="yes"/>
      <point x="351" y="711"/>
      <point x="430" y="595"/>
      <point x="430" y="382" type="curve" smooth="yes"/>
      <point x="430" y="155"/>
      <point x="328" y="-31"/>
      <point x="183" y="-31" type="curve" smooth="yes"/>
      <point x="116" y="-31"/>
      <point x="71" y="5"/>
      <point x="35" y="55" type="curve"/>
      <point x="45" y="72"/>
      <point x="55" y="86"/>
      <point x="69" y="101" type="curve"/>
      <point x="97" y="45"/>
      <point x="135" y="13"/>
    </contour>
  </outline>
</glyph>
<glyph name="acute" format="1">
  <advance width="260"/>
  <unicode hex="00B4"/>
  <outline>
    <contour>
      <point x="113" y="571" type="curve"/>
      <point x="147" y="630"/>
      <point x="168" y="687"/>
      <point x="175" y="746" type="curve"/>
      <point x="159" y="750"/>
      <point x="132" y="751"/>
      <point x="113" y="749" type="curve"/>
      <point x="108" y="694"/>
      <point x="94" y="641"/>
      <point x="72" y="578" type="curve"/>
      <point x="86" y="574"/>
      <point x="98" y="572"/>
    </contour>
    <contour>
      <point x="88.0" y="560.0" type="move" name="_top"/>
    </contour>
  </outline>
</glyph>
<glyph name="dotlessi" format="1">
  <advance width="189"/>
  <unicode hex="0131"/>
  <outline>
    <contour>
      <point x="123" y="507"/>
      <point x="117" y="508"/>
      <point x="111" y="508" type="curve" smooth="yes"/>
      <point x="98" y="508"/>
      <point x="86" y="504"/>
      <point x="75" y="498" type="curve"/>
      <point x="49" y="361"/>
      <point x="43" y="166"/>
      <point x="66" y="-7" type="curve"/>
      <point x="70" y="-8"/>
      <point x="75" y="-9"/>
      <point x="82" y="-9" type="curve" smooth="yes"/>
      <point x="92" y="-9"/>
      <point x="101" y="-7"/>
      <point x="108" y="-4" type="curve"/>
      <point x="93" y="161"/>
      <point x="106" y="369"/>
      <point x="130" y="505" type="curve"/>
    </contour>
  </outline>
</glyph>
<glyph name="breve" format="1">
  <advance width="260.224371179"/>
  <unicode hex="02D8"/>
  <outline>
    <contour>
      <point x="63" y="735"/>
      <point x="43" y="733"/>
      <point x="26" y="727" type="curve"/>
      <point x="26" y="696"/>
      <point x="32" y="679"/>
      <point x="44" y="661" type="curve" smooth="yes"/>
      <point x="62" y="636"/>
      <point x="91" y="619"/>
      <point x="134" y="619" type="curve" smooth="yes"/>
      <point x="176" y="619"/>
      <point x="204" y="631"/>
      <point x="220" y="655" type="curve" smooth="yes"/>
      <point x="232" y="675"/>
      <point x="237" y="702"/>
      <point x="233" y="737" type="curve"/>
      <point x="217" y="740"/>
      <point x="198" y="740"/>
      <point x="184" y="736" type="curve"/>
      <point x="196" y="694"/>
      <point x="183" y="663"/>
      <point x="135" y="663" type="curve" smooth="yes"/>
      <point x="83" y="663"/>
      <point x="71" y="689"/>
      <point x="76" y="734" type="curve"/>
    </contour>
    <contour>
      <point x="137.0" y="560.0" type="move" name="_top"/>
    </contour>
  </outline>
</glyph>
<glyph name="tilde" format="1">
  <advance width="260"/>
  <unicode hex="02DC"/>
  <outline>
    <contour>
      <point x="172" y="691" type="curve" smooth="yes"/>
      <point x="145" y="691"/>
      <point x="122" y="725"/>
      <point x="81" y="725" type="curve" smooth="yes"/>
      <point x="39" y="725"/>
      <point x="19" y="696"/>
      <point x="23" y="649" type="curve"/>
      <point x="35" y="644"/>
      <point x="50" y="641"/>
      <point x="65" y="642" type="curve"/>
      <point x="63" y="668"/>
      <point x="71" y="678"/>
      <point x="86" y="678" type="curve" smooth="yes"/>
      <point x="112" y="678"/>
      <point x="134" y="644"/>
      <point x="178" y="644" type="curve" smooth="yes"/>
      <point x="219" y="644"/>
      <point x="241" y="667"/>
      <point x="237" y="720" type="curve"/>
      <point x="222" y="727"/>
      <point x="212" y="730"/>
      <point x="195" y="729" type="curve"/>
      <point x="197" y="698"/>
      <point x="189" y="691"/>
    </contour>
    <contour>
      <point x="130.0" y="560.0" type="move" name="_top"/>
    </contour>
  </outline>
</glyph>
<glyph name="bn_danda" format="1">
  <advance width="586"/>
  <unicode hex="0964"/>
  <outline>
    <contour>
      <point x="424.692307692" y="-99.0"/>
      <point x="446.6473379" y="-90.0475060881"/>
      <point x="469" y="-81" type="curve"/>
      <point x="450" y="2"/>
      <point x="440" y="126"/>
      <point x="440" y="262" type="curve" smooth="yes"/>
      <point x="440.0" y="387.178832117"/>
      <point x="447.521943094" y="489.238909474"/>
      <point x="455" y="595" type="curve"/>
      <point x="418" y="587" type="line"/>
      <point x="397" y="394"/>
      <point x="396" y="265"/>
      <point x="396" y="63" type="curve" smooth="yes"/>
      <point x="396" y="5"/>
      <point x="403" y="-49"/>
      <point x="405" y="-99" type="curve"/>
    </contour>
  </outline>
</glyph>
<glyph name="bn_chandrabindu" format="1">
  <advance width="0"/>
  <unicode hex="0981"/>
  <outline>
    <contour>
      <point x="75" y="665"/>
      <point x="131" y="725"/>
      <point x="144" y="805" type="curve"/>
      <point x="112" y="816" type="line"/>
      <point x="98" y="757"/>
      <point x="59" y="713"/>
      <point x="6" y="713" type="curve" smooth="yes"/>
      <point x="-42" y="713"/>
      <point x="-76" y="748"/>
      <point x="-87" y="788" type="curve"/>
      <point x="-132" y="770" type="line"/>
      <point x="-121" y="714"/>
      <point x="-71" y="665"/>
      <point x="0" y="665" type="curve" smooth="yes"/>
    </contour>
    <contour>
      <point x="30" y="788"/>
      <point x="46" y="805"/>
      <point x="46" y="827" type="curve" smooth="yes"/>
      <point x="46" y="851"/>
      <point x="28" y="871"/>
      <point x="5" y="871" type="curve" smooth="yes"/>
      <point x="-17" y="871"/>
      <point x="-35" y="854"/>
      <point x="-35" y="832" type="curve" smooth="yes"/>
      <point x="-35" y="808"/>
      <point x="-18" y="788"/>
      <point x="6" y="788" type="curve" smooth="yes"/>
    </contour>
    <contour>
      <point x="0" y="665" type="move" name="_chandrabindu"/>
    </contour>
  </outline>
</glyph>
<glyph name="bn_bisarga" format="1">
  <advance width="433"/>
  <unicode hex="0983"/>
  <outline>
    <contour>
      <point x="297" y="330"/>
      <point x="363" y="395"/>
      <point x="363" y="474" type="curve" smooth="yes"/>
      <point x="363" y="547"/>
      <point x="307" y="599"/>
      <point x="230" y="599" type="curve" smooth="yes"/>
      <point x="148" y="599"/>
      <point x="85" y="535"/>
      <point x="85" y="456" type="curve" smooth="yes"/>
      <point x="85" y="382"/>
      <point x="141" y="330"/>
      <point x="215" y="330" type="curve" smooth="yes"/>
    </contour>
    <contour>
      <point x="296" y="5"/>
      <point x="357" y="65"/>
      <point x="357" y="140" type="curve" smooth="yes"/>
      <point x="357" y="212"/>
      <point x="301" y="266"/>
      <point x="227" y="266" type="curve" smooth="yes"/>
      <point x="150" y="266"/>
      <point x="90" y="206"/>
      <point x="90" y="130" type="curve" smooth="yes"/>
      <point x="90" y="57"/>
      <point x="146" y="5"/>
      <point x="218" y="5" type="curve" smooth="yes"/>
    </contour>
    <contour>
      <point x="175" y="50"/>
      <point x="135" y="88"/>
      <point x="135" y="143" type="curve" smooth="yes"/>
      <point x="135" y="191"/>
      <point x="166" y="221"/>
      <point x="216" y="221" type="curve" smooth="yes"/>
      <point x="274" y="221"/>
      <point x="312" y="181"/>
      <point x="312" y="127" type="curve" smooth="yes"/>
      <point x="312" y="78"/>
      <point x="281" y="50"/>
      <point x="232" y="50" type="curve" smooth="yes"/>
    </contour>
    <contour>
      <point x="172" y="373"/>
      <point x="131" y="411"/>
      <point x="131" y="472" type="curve" smooth="yes"/>
      <point x="131" y="523"/>
      <point x="162" y="556"/>
      <point x="215" y="556" type="curve" smooth="yes"/>
      <point x="275" y="556"/>
      <point x="317" y="520"/>
      <point x="317" y="461" type="curve" smooth="yes"/>
      <point x="317" y="408"/>
      <point x="283" y="373"/>
      <point x="229" y="373" type="curve" smooth="yes"/>
    </contour>
  </outline>
</glyph>
<glyph name="bn_i" format="1">
  <advance width="442"/>
  <unicode hex="0987"/>
  <outline>
    <contour>
      <point x="442" y="581" type="line"/>
      <point x="430" y="668"/>
      <point x="386" y="743"/>
      <point x="302" y="743" type="curve" smooth="yes"/>
      <point x="239" y="743"/>
      <point x="176" y="718"/>
      <point x="128" y="718" type="curve" smooth="yes"/>
      <point x="73" y="718"/>
      <point x="42" y="757"/>
      <point x="16" y="799" type="curve"/>
      <point x="5" y="794"/>
      <point x="-11" y="783"/>
      <point x="-21" y="770" type="curve"/>
      <point x="12" y="712"/>
      <point x="55" y="672"/>
      <point x="126" y="672" type="curve" smooth="yes"/>
      <point x="186" y="672"/>
      <point x="238" y="697"/>
      <point x="305" y="697" type="curve" smooth="yes"/>
      <point x="369" y="697"/>
      <point x="397" y="639"/>
      <point x="408" y="574" type="curve"/>
    </contour>
    <component base="bn_ha"/>
  </outline>
</glyph>
<glyph name="bn_o" format="1">
  <advance width="645"/>
  <unicode hex="0993"/>
  <outline>
    <contour>
      <point x="535" y="-17"/>
      <point x="597" y="66"/>
      <point x="597" y="162" type="curve" smooth="yes"/>
      <point x="597" y="239"/>
      <point x="558" y="301"/>
      <point x="512" y="346" type="curve"/>
      <point x="486" y="311" type="line"/>
      <point x="529" y="275"/>
      <point x="550" y="229"/>
      <point x="550" y="172" type="curve" smooth="yes"/>
      <point x="550" y="88"/>
      <point x="505" y="37"/>
      <point x="420" y="37" type="curve" smooth="yes"/>
      <point x="266" y="37"/>
      <point x="150" y="203"/>
      <point x="63" y="569" type="curve"/>
      <point x="48" y="562"/>
      <point x="35" y="554"/>
      <point x="22" y="543" type="curve"/>
      <point x="83" y="287"/>
      <point x="191" y="-17"/>
      <point x="417" y="-17" type="curve" smooth="yes"/>
    </contour>
    <contour>
      <point x="464" y="220"/>
      <point x="505" y="251"/>
      <point x="534" y="298" type="curve"/>
      <point x="499" y="337" type="line"/>
      <point x="470" y="288"/>
      <point x="444" y="269"/>
      <point x="416" y="269" type="curve" smooth="yes"/>
      <point x="390" y="269"/>
      <point x="370" y="286"/>
      <point x="370" y="312" type="curve" smooth="yes"/>
      <point x="370" y="339"/>
      <point x="390" y="360"/>
      <point x="419" y="360" type="curve" smooth="yes"/>
      <point x="455" y="360"/>
      <point x="490" y="329"/>
      <point x="505" y="286" type="curve"/>
      <point x="526" y="329" type="line"/>
      <point x="508" y="372"/>
      <point x="463" y="402"/>
      <point x="419" y="402" type="curve" smooth="yes"/>
      <point x="366" y="402"/>
      <point x="332" y="359"/>
      <point x="332" y="310" type="curve" smooth="yes"/>
      <point x="332" y="256"/>
      <point x="371" y="220"/>
      <point x="419" y="220" type="curve" smooth="yes"/>
    </contour>
    <contour>
      <point x="567" y="344"/>
      <point x="591" y="407"/>
      <point x="591" y="465" type="curve" smooth="yes"/>
      <point x="591" y="566"/>
      <point x="517" y="627"/>
      <point x="418" y="627" type="curve" smooth="yes"/>
      <point x="305" y="627"/>
      <point x="218" y="546"/>
      <point x="220" y="412" type="curve"/>
      <point x="232" y="397"/>
      <point x="261" y="386"/>
      <point x="278" y="386" type="curve"/>
      <point x="276" y="394"/>
      <point x="273" y="412"/>
      <point x="273" y="431" type="curve" smooth="yes"/>
      <point x="273" y="517"/>
      <point x="338" y="585"/>
      <point x="432" y="585" type="curve" smooth="yes"/>
      <point x="502" y="585"/>
      <point x="544" y="547"/>
      <point x="544" y="475" type="curve" smooth="yes"/>
      <point x="544" y="422"/>
      <point x="521" y="370"/>
      <point x="490" y="331" type="curve"/>
      <point x="511" y="307" type="line"/>
      <point x="537" y="304" type="line"/>
    </contour>
  </outline>
</glyph>
<glyph name="bn_au" format="1">
  <advance width="710"/>
  <unicode hex="0994"/>
  <outline>
    <contour>
      <point x="590" y="379"/>
      <point x="678" y="467"/>
      <point x="678" y="574" type="curve" smooth="yes"/>
      <point x="678" y="652"/>
      <point x="632" y="703"/>
      <point x="524" y="725" type="curve" smooth="yes"/>
      <point x="460" y="738" type="line" smooth="yes"/>
      <point x="374" y="755"/>
      <point x="345" y="776"/>
      <point x="329" y="854" type="curve"/>
      <point x="317" y="853"/>
      <point x="299" y="849"/>
      <point x="285" y="843" type="curve"/>
      <point x="307" y="722"/>
      <point x="364" y="709"/>
      <point x="484" y="686" type="curve" smooth="yes"/>
      <point x="581" y="667"/>
      <point x="642" y="652"/>
      <point x="642" y="581" type="curve" smooth="yes"/>
      <point x="642" y="533"/>
      <point x="615" y="480"/>
      <point x="575" y="452" type="curve"/>
      <point x="494" y="318" type="line"/>
    </contour>
    <component base="bn_o"/>
  </outline>
</glyph>
<glyph name="bn_ddha" format="1">
  <advance width="468"/>
  <unicode hex="09A2"/>
  <outline>
    <contour>
      <point x="300" y="-17"/>
      <point x="431" y="122"/>
      <point x="431" y="251" type="curve" smooth="yes"/>
      <point x="431" y="327"/>
      <point x="386" y="371"/>
      <point x="324" y="371" type="curve" smooth="yes"/>
      <point x="288" y="371"/>
      <point x="255" y="356"/>
      <point x="233" y="333" type="curve"/>
      <point x="230" y="326"/>
      <point x="228" y="318"/>
      <point x="228" y="308" type="curve" smooth="yes"/>
      <point x="228" y="295"/>
      <point x="232" y="282"/>
      <point x="240" y="273" type="curve"/>
      <point x="253" y="294"/>
      <point x="282" y="321"/>
      <point x="318" y="321" type="curve" smooth="yes"/>
      <point x="351" y="321"/>
      <point x="376" y="297"/>
      <point x="376" y="248" type="curve" smooth="yes"/>
      <point x="376" y="143"/>
      <point x="266" y="25"/>
      <point x="194" y="25" type="curve" smooth="yes"/>
      <point x="158" y="25"/>
      <point x="130" y="55"/>
      <point x="130" y="109" type="curve" smooth="yes"/>
      <point x="130" y="279"/>
      <point x="142" y="473"/>
      <point x="163" y="602" type="curve"/>
      <point x="107" y="589" type="line"/>
      <point x="93" y="462"/>
      <point x="83" y="313"/>
      <point x="83" y="126" type="curve" smooth="yes"/>
      <point x="83" y="41"/>
      <point x="138" y="-17"/>
      <point x="202" y="-17" type="curve" smooth="yes"/>
    </contour>
    <contour>
      <point x="45" y="548"/>
      <point x="130" y="562"/>
      <point x="230" y="562" type="curve" smooth="yes"/>
      <point x="327" y="562"/>
      <point x="405" y="549"/>
      <point x="468" y="535" type="curve"/>
      <point x="470" y="542"/>
      <point x="471" y="550"/>
      <point x="471" y="559" type="curve" smooth="yes"/>
      <point x="471" y="568"/>
      <point x="470" y="575"/>
      <point x="468" y="581" type="curve"/>
      <point x="406" y="599"/>
      <point x="325" y="612"/>
      <point x="228" y="612" type="curve" smooth="yes"/>
      <point x="128" y="612"/>
      <point x="42" y="598"/>
      <point x="0" y="581" type="curve"/>
      <point x="-3" y="574"/>
      <point x="-4" y="565"/>
      <point x="-4" y="558" type="curve" smooth="yes"/>
      <point x="-4" y="550"/>
      <point x="-3" y="545"/>
      <point x="0" y="535" type="curve"/>
    </contour>
  </outline>
</glyph>
<glyph name="bn_ra" format="1">
  <advance width="456"/>
  <unicode hex="09B0"/>
  <outline>
    <contour>
      <point x="207" y="42"/>
      <point x="190" y="62"/>
      <point x="166" y="62" type="curve" smooth="yes"/>
      <point x="146" y="62"/>
      <point x="130" y="46"/>
      <point x="130" y="26" type="curve" smooth="yes"/>
      <point x="130" y="3"/>
      <point x="146" y="-17"/>
      <point x="171" y="-17" type="curve" smooth="yes"/>
      <point x="192" y="-17"/>
      <point x="207" y="-2"/>
      <point x="207" y="18" type="curve" smooth="yes"/>
    </contour>
    <component base="bn_ba"/>
  </outline>
</glyph>
<glyph name="bn_sa" format="1">
  <advance width="505"/>
  <unicode hex="09B8"/>
  <outline>
    <contour>
      <point x="194" y="109"/>
      <point x="219" y="321"/>
      <point x="296" y="321" type="curve" smooth="yes"/>
      <point x="328" y="321"/>
      <point x="346" y="296"/>
      <point x="346" y="267" type="curve"/>
      <point x="368" y="301" type="line"/>
      <point x="351" y="337"/>
      <point x="327" y="372"/>
      <point x="286" y="372" type="curve" smooth="yes"/>
      <point x="189" y="372"/>
      <point x="151" y="165"/>
      <point x="85" y="165" type="curve" smooth="yes"/>
      <point x="66" y="165"/>
      <point x="41" y="171"/>
      <point x="25" y="188" type="curve"/>
      <point x="24" y="164"/>
      <point x="26" y="143"/>
      <point x="33" y="123" type="curve"/>
      <point x="49" y="113"/>
      <point x="65" y="109"/>
      <point x="81" y="109" type="curve" smooth="yes"/>
    </contour>
    <contour>
      <point x="201" y="261" type="line"/>
      <point x="212" y="282"/>
      <point x="223" y="312"/>
      <point x="223" y="343" type="curve" smooth="yes"/>
      <point x="223" y="424"/>
      <point x="101" y="496"/>
      <point x="101" y="555" type="curve"/>
      <point x="27" y="568" type="line"/>
      <point x="27" y="477"/>
      <point x="181" y="449"/>
      <point x="181" y="332" type="curve" smooth="yes"/>
      <point x="181" y="298"/>
      <point x="173" y="262"/>
      <point x="151" y="228" type="curve"/>
    </contour>
    <contour>
      <point x="373" y="-12"/>
      <point x="392" y="-11"/>
      <point x="407" y="-6" type="curve"/>
      <point x="396" y="75"/>
      <point x="395" y="209"/>
      <point x="395" y="291" type="curve" smooth="yes"/>
      <point x="395" y="401"/>
      <point x="399" y="468"/>
      <point x="413" y="562" type="curve"/>
      <point x="364" y="572" type="line"/>
      <point x="351" y="453"/>
      <point x="346" y="347"/>
      <point x="346" y="205" type="curve" smooth="yes"/>
      <point x="346" y="80"/>
      <point x="350" y="25"/>
      <point x="353" y="-12" type="curve"/>
    </contour>
    <contour>
      <point x="56" y="550"/>
      <point x="164" y="563"/>
      <point x="258" y="563" type="curve" smooth="yes"/>
      <point x="352" y="563"/>
      <point x="463" y="550"/>
      <point x="508" y="535" type="curve"/>
      <point x="510" y="541"/>
      <point x="511" y="552"/>
      <point x="511" y="562" type="curve" smooth="yes"/>
      <point x="511" y="569"/>
      <point x="511" y="576"/>
      <point x="508" y="581" type="curve"/>
      <point x="466" y="599"/>
      <point x="351" y="613"/>
      <point x="258" y="613" type="curve" smooth="yes"/>
      <point x="165" y="613"/>
      <point x="55" y="599"/>
      <point x="0" y="581" type="curve"/>
      <point x="-3" y="576"/>
      <point x="-5" y="569"/>
      <point x="-5" y="561" type="curve" smooth="yes"/>
      <point x="-5" y="552"/>
      <point x="-3" y="543"/>
      <point x="0" y="535" type="curve"/>
    </contour>
  </outline>
</glyph>
<glyph name="bn_nukta" format="1">
  <advance width="0"/>
  <unicode hex="09BC"/>
  <outline>
    <contour>
      <point x="44" y="-5"/>
      <point x="24" y="18"/>
      <point x="-3" y="18" type="curve" smooth="yes"/>
      <point x="-26" y="18"/>
      <point x="-45" y="0"/>
      <point x="-45" y="-23" type="curve" smooth="yes"/>
      <point x="-45" y="-50"/>
      <point x="-26" y="-73"/>
      <point x="2" y="-73" type="curve" smooth="yes"/>
      <point x="27" y="-73"/>
      <point x="44" y="-56"/>
      <point x="44" y="-33" type="curve" smooth="yes"/>
    </contour>
    <contour>
      <point x="0" y="-28" type="move" name="_nukt"/>
    </contour>
  </outline>
</glyph>
<glyph name="bn_uukaar" format="1">
  <advance width="0"/>
  <unicode hex="09C2"/>
  <outline>
    <contour>
      <point x="179.0" y="-271.0"/>
      <point x="188.0" y="-257.0"/>
      <point x="194.0" y="-243.0" type="curve"/>
      <point x="36.0" y="-131.0" type="line"/>
      <point x="-7.0" y="-174.0"/>
      <point x="-40.0" y="-195.0"/>
      <point x="-73.0" y="-195.0" type="curve" smooth="yes"/>
      <point x="-100.0" y="-195.0"/>
      <point x="-124.0" y="-180.0"/>
      <point x="-124.0" y="-149.0" type="curve" smooth="yes"/>
      <point x="-124.0" y="-105.0"/>
      <point x="-78.0" y="-56.0"/>
      <point x="-1.0" y="-33.0" type="curve" smooth="yes"/>
      <point x="15.0" y="-28.0" type="line"/>
      <point x="11.0" y="0.0" type="line"/>
      <point x="-24.0" y="8.0" type="line"/>
      <point x="-133.0" y="-33.0"/>
      <point x="-170.0" y="-90.0"/>
      <point x="-170.0" y="-148.0" type="curve" smooth="yes"/>
      <point x="-170.0" y="-208.0"/>
      <point x="-127.0" y="-240.0"/>
      <point x="-68.0" y="-240.0" type="curve" smooth="yes"/>
      <point x="-14.0" y="-240.0"/>
      <point x="32.0" y="-212.0"/>
      <point x="68.0" y="-164.0" type="curve"/>
      <point x="27.0" y="-176.0" type="line"/>
      <point x="166.0" y="-282.0" type="line"/>
    </contour>
    <contour>
      <point x="0" y="-20" type="move" name="_blwm"/>
    </contour>
  </outline>
</glyph>
<glyph name="bn_khanda_ta" format="1">
  <advance width="428"/>
  <unicode hex="09CE"/>
  <outline>
    <contour>
      <point x="65" y="471"/>
      <point x="136" y="543"/>
      <point x="221" y="543" type="curve" smooth="yes"/>
      <point x="284" y="543"/>
      <point x="317" y="502"/>
      <point x="317" y="446" type="curve" smooth="yes"/>
      <point x="317" y="392"/>
      <point x="280" y="360"/>
      <point x="237" y="360" type="curve" smooth="yes"/>
      <point x="177" y="360"/>
      <point x="137" y="417"/>
      <point x="133" y="526" type="curve"/>
      <point x="103" y="495" type="line"/>
      <point x="108" y="381"/>
      <point x="153" y="310"/>
      <point x="238" y="310" type="curve" smooth="yes"/>
      <point x="309" y="310"/>
      <point x="355" y="375"/>
      <point x="355" y="453" type="curve" smooth="yes"/>
      <point x="355" y="525"/>
      <point x="313" y="593"/>
      <point x="220" y="593" type="curve" smooth="yes"/>
      <point x="116" y="593"/>
      <point x="29" y="490"/>
      <point x="29" y="368" type="curve" smooth="yes"/>
      <point x="29" y="273"/>
      <point x="80" y="226"/>
      <point x="183" y="175" type="curve" smooth="yes"/>
      <point x="324" y="105"/>
      <point x="352" y="93"/>
      <point x="357" y="-21" type="curve"/>
      <point x="373" y="-21"/>
      <point x="396" y="-17"/>
      <point x="403" y="-11" type="curve"/>
      <point x="402" y="121"/>
      <point x="335" y="153"/>
      <point x="214" y="213" type="curve" smooth="yes"/>
      <point x="130" y="255"/>
      <point x="65" y="283"/>
      <point x="65" y="370" type="curve" smooth="yes"/>
    </contour>
  </outline>
</glyph>
<glyph name="bn_lli" format="1">
  <advance width="632"/>
  <unicode hex="09E1"/>
  <outline>
    <contour>
      <point x="382" y="148"/>
      <point x="400" y="248"/>
      <point x="400" y="327" type="curve" smooth="yes"/>
      <point x="400" y="458"/>
      <point x="349" y="504"/>
      <point x="247" y="527" type="curve" smooth="yes"/>
      <point x="181" y="542" type="line" smooth="yes"/>
      <point x="114" y="557"/>
      <point x="83" y="576"/>
      <point x="66" y="659" type="curve"/>
      <point x="54" y="658"/>
      <point x="37" y="651"/>
      <point x="23" y="641" type="curve"/>
      <point x="43" y="528"/>
      <point x="103" y="514"/>
      <point x="213" y="488" type="curve" smooth="yes"/>
      <point x="313" y="465"/>
      <point x="362" y="454"/>
      <point x="362" y="356" type="curve" smooth="yes"/>
      <point x="362" y="266"/>
      <point x="332" y="100"/>
      <point x="296" y="36" type="curve"/>
      <point x="353" y="52" type="line"/>
    </contour>
    <contour>
      <point x="159" y="-16"/>
      <point x="193" y="10"/>
      <point x="211" y="52" type="curve"/>
      <point x="209" y="69"/>
      <point x="199" y="92"/>
      <point x="190" y="108" type="curve"/>
      <point x="177" y="66"/>
      <point x="156" y="33"/>
      <point x="124" y="33" type="curve" smooth="yes"/>
      <point x="92" y="33"/>
      <point x="66" y="65"/>
      <point x="66" y="127" type="curve" smooth="yes"/>
      <point x="66" y="200"/>
      <point x="103" y="246"/>
      <point x="156" y="246" type="curve" smooth="yes"/>
      <point x="228" y="246"/>
      <point x="279" y="160"/>
      <point x="282" y="31" type="curve"/>
      <point x="316" y="40" type="line"/>
      <point x="315" y="201"/>
      <point x="242" y="297"/>
      <point x="151" y="297" type="curve" smooth="yes"/>
      <point x="76" y="297"/>
      <point x="22" y="229"/>
      <point x="22" y="136" type="curve" smooth="yes"/>
      <point x="22" y="45"/>
      <point x="74" y="-16"/>
      <point x="125" y="-16" type="curve" smooth="yes"/>
    </contour>
    <contour>
      <point x="365" y="-205"/>
      <point x="398" y="-182"/>
      <point x="413" y="-143" type="curve"/>
      <point x="412" y="-126"/>
      <point x="403" y="-104"/>
      <point x="394" y="-88" type="curve"/>
      <point x="382" y="-126"/>
      <point x="361" y="-157"/>
      <point x="331" y="-157" type="curve" smooth="yes"/>
      <point x="302" y="-157"/>
      <point x="275" y="-127"/>
      <point x="275" y="-71" type="curve" smooth="yes"/>
      <point x="275" y="-4"/>
      <point x="311" y="38"/>
      <point x="361" y="38" type="curve" smooth="yes"/>
      <point x="435" y="38"/>
      <point x="486" y="-53"/>
      <point x="481" y="-188" type="curve"/>
      <point x="513" y="-169" type="line"/>
      <point x="518" y="-8"/>
      <point x="446" y="89"/>
      <point x="357" y="89" type="curve"/>
      <point x="287" y="65" type="line"/>
      <point x="254" y="38"/>
      <point x="234" y="-7"/>
      <point x="234" y="-62" type="curve" smooth="yes"/>
      <point x="234" y="-148"/>
      <point x="283" y="-205"/>
      <point x="332" y="-205" type="curve" smooth="yes"/>
    </contour>
    <contour>
      <point x="567" y="-101"/>
      <point x="594" y="22"/>
      <point x="594" y="114" type="curve" smooth="yes"/>
      <point x="594" y="235"/>
      <point x="546" y="273"/>
      <point x="449" y="307" type="curve" smooth="yes"/>
      <point x="375" y="333" type="line"/>
      <point x="372" y="289" type="line"/>
      <point x="420" y="272" type="line" smooth="yes"/>
      <point x="507" y="241"/>
      <point x="558" y="231"/>
      <point x="558" y="141" type="curve" smooth="yes"/>
      <point x="558" y="59"/>
      <point x="528" y="-93"/>
      <point x="492" y="-153" type="curve"/>
      <point x="481" y="-188" type="line"/>
      <point x="494" y="-199"/>
      <point x="510" y="-204"/>
      <point x="528" y="-206" type="curve"/>
    </contour>
  </outline>
</glyph>
<glyph name="asa_ba" format="1">
  <advance width="456"/>
  <unicode hex="09F1"/>
  <outline>
    <contour>
      <point x="24" y="126" type="curve"/>
      <point x="84.4655325607" y="113.906893488"/>
      <point x="164" y="71"/>
      <point x="203" y="9" type="curve"/>
      <point x="214" y="14"/>
      <point x="222" y="20"/>
      <point x="227" y="28" type="curve"/>
      <point x="190" y="101"/>
      <point x="103.796726996" y="155.49390918"/>
      <point x="40" y="176" type="curve"/>
      <point x="31" y="162"/>
      <point x="25" y="144"/>
    </contour>
    <component base="bn_ba"/>
    <contour>
      <point x="351" y="0" type="move" name="blwm"/>
    </contour>
    <contour>
      <point x="250" y="0" type="move" name="haln"/>
    </contour>
    <contour>
      <point x="349" y="690" type="move" name="chandrabindu"/>
    </contour>
    <contour>
      <point x="349" y="690" type="move" name="reph"/>
    </contour>
  </outline>
</glyph>
<glyph name="bn_rupeemark" format="1">
  <advance width="550"/>
  <unicode hex="09F2"/>
  <outline>
    <contour>
      <point x="31" y="536" type="curve"/>
      <point x="-6" y="481" type="line"/>
      <point x="224" y="354"/>
      <point x="390.508866234" y="181.884606335"/>
      <point x="489" y="-34" type="curve"/>
      <point x="500" y="-20"/>
      <point x="510" y="-7"/>
      <point x="517" y="9" type="curve"/>
      <point x="400" y="235"/>
      <point x="238" y="412"/>
    </contour>
  </outline>
</glyph>
<glyph name="bn_currency3" format="1">
  <advance width="512"/>
  <unicode hex="09F6"/>
  <outline>
    <contour>
      <point x="212" y="442" type="curve" smooth="yes"/>
      <point x="262" y="442"/>
      <point x="293.0" y="409.0"/>
      <point x="293" y="366" type="curve" smooth="yes"/>
      <point x="293.0" y="210.775229358"/>
      <point x="35" y="248"/>
      <point x="35" y="102" type="curve"/>
      <point x="35" y="38"/>
      <point x="81" y="-16"/>
      <point x="194" y="-16" type="curve"/>
      <point x="388" y="-16"/>
      <point x="477" y="224"/>
      <point x="552" y="550" type="curve"/>
      <point x="538" y="557"/>
      <point x="523" y="563"/>
      <point x="509" y="566" type="curve"/>
      <point x="435" y="243"/>
      <point x="339" y="29"/>
      <point x="189" y="29" type="curve"/>
      <point x="137" y="29"/>
      <point x="87" y="50"/>
      <point x="87" y="99" type="curve"/>
      <point x="87" y="199"/>
      <point x="346.0" y="180.80952381"/>
      <point x="346" y="367" type="curve" smooth="yes"/>
      <point x="346" y="435"/>
      <point x="284" y="484"/>
      <point x="208" y="484" type="curve" smooth="yes"/>
      <point x="133" y="484"/>
      <point x="87" y="433"/>
      <point x="87" y="362" type="curve" smooth="yes"/>
      <point x="87" y="340"/>
      <point x="91" y="325"/>
      <point x="96" y="320" type="curve"/>
      <point x="110" y="317"/>
      <point x="134" y="314"/>
      <point x="152" y="314" type="curve"/>
      <point x="145" y="324"/>
      <point x="140" y="345"/>
      <point x="140" y="369" type="curve" smooth="yes"/>
      <point x="140.0" y="416.0"/>
      <point x="162" y="442"/>
    </contour>
  </outline>
</glyph>
<glyph name="bn_currency16" format="1">
  <advance width="550"/>
  <unicode hex="09F9"/>
  <outline>
    <contour>
      <point x="372" y="172"/>
      <point x="437" y="302"/>
      <point x="437" y="408" type="curve" smooth="yes"/>
      <point x="437" y="514"/>
      <point x="381" y="584"/>
      <point x="272" y="584" type="curve" smooth="yes"/>
      <point x="137" y="584"/>
      <point x="72" y="454"/>
      <point x="72" y="349" type="curve" smooth="yes"/>
      <point x="72" y="243"/>
      <point x="128" y="172"/>
      <point x="237" y="172" type="curve" smooth="yes"/>
    </contour>
    <contour>
      <point x="169" y="219"/>
      <point x="110.0" y="257.260869565"/>
      <point x="110" y="351" type="curve" smooth="yes"/>
      <point x="110.0" y="456.026041667"/>
      <point x="173" y="536"/>
      <point x="270" y="536" type="curve" smooth="yes"/>
      <point x="340" y="536"/>
      <point x="397.0" y="498.97826087"/>
      <point x="397" y="405" type="curve" smooth="yes"/>
      <point x="397.0" y="300.375"/>
      <point x="336" y="219"/>
      <point x="237" y="219" type="curve" smooth="yes"/>
    </contour>
  </outline>
</glyph>
<glyph name="emdash" format="1">
  <advance width="560"/>
  <unicode hex="2014"/>
  <outline>
    <contour>
      <point x="32" y="288"/>
      <point x="31" y="275"/>
      <point x="30" y="255" type="curve"/>
      <point x="184" y="230"/>
      <point x="350" y="229"/>
      <point x="525" y="246" type="curve"/>
      <point x="528" y="262"/>
      <point x="530" y="277"/>
      <point x="530" y="290" type="curve"/>
      <point x="451" y="282"/>
      <point x="384" y="280"/>
      <point x="323" y="280" type="curve" smooth="yes"/>
      <point x="208" y="280"/>
      <point x="141" y="285"/>
      <point x="35" y="300" type="curve"/>
    </contour>
  </outline>
</glyph>
<glyph name="quoteleft" format="1">
  <advance width="129"/>
  <unicode hex="2018"/>
  <outline>
    <contour>
      <point x="10" y="734" type="curve"/>
      <point x="10" y="654"/>
      <point x="25" y="579"/>
      <point x="57" y="488" type="curve"/>
      <point x="69" y="487"/>
      <point x="80" y="487"/>
      <point x="94" y="489" type="curve"/>
      <point x="65" y="604"/>
      <point x="64" y="678"/>
      <point x="67" y="741" type="curve"/>
      <point x="45" y="742"/>
      <point x="27" y="739"/>
    </contour>
  </outline>
</glyph>
<glyph name="quoteright" format="1">
  <advance width="129"/>
  <unicode hex="2019"/>
  <outline>
    <contour>
      <point x="112" y="737" type="curve"/>
      <point x="94" y="739"/>
      <point x="74" y="738"/>
      <point x="56" y="736" type="curve"/>
      <point x="60" y="683"/>
      <point x="54" y="604"/>
      <point x="35" y="496" type="curve"/>
      <point x="45" y="493"/>
      <point x="58" y="490"/>
      <point x="70" y="489" type="curve"/>
      <point x="104" y="603"/>
      <point x="112" y="661"/>
    </contour>
  </outline>
</glyph>
<glyph name="dagger" format="1">
  <advance width="455.201265367"/>
  <unicode hex="2020"/>
  <outline>
    <contour>
      <point x="255" y="710" type="curve"/>
      <point x="247" y="711"/>
      <point x="241" y="712"/>
      <point x="234" y="712" type="curve" smooth="yes"/>
      <point x="221" y="712"/>
      <point x="210" y="711"/>
      <point x="201" y="709" type="curve"/>
      <point x="201" y="637"/>
      <point x="204" y="581"/>
      <point x="208" y="495" type="curve"/>
      <point x="220" y="494"/>
      <point x="235" y="494"/>
      <point x="245" y="497" type="curve"/>
      <point x="252" y="603"/>
      <point x="254" y="654"/>
    </contour>
    <contour>
      <point x="32" y="540" type="curve"/>
      <point x="31" y="533"/>
      <point x="30" y="531"/>
      <point x="30" y="523" type="curve" smooth="yes"/>
      <point x="29" y="512"/>
      <point x="32" y="496"/>
      <point x="33" y="485" type="curve"/>
      <point x="104" y="490"/>
      <point x="159" y="493"/>
      <point x="244" y="492" type="curve"/>
      <point x="245" y="505"/>
      <point x="246" y="519"/>
      <point x="242" y="530" type="curve"/>
      <point x="137" y="539"/>
      <point x="88" y="542"/>
    </contour>
    <contour>
      <point x="423" y="483" type="curve"/>
      <point x="424" y="490"/>
      <point x="425" y="492"/>
      <point x="425" y="500" type="curve" smooth="yes"/>
      <point x="426" y="511"/>
      <point x="423" y="527"/>
      <point x="422" y="538" type="curve"/>
      <point x="353" y="531"/>
      <point x="298" y="530"/>
      <point x="217" y="531" type="curve"/>
      <point x="216" y="519"/>
      <point x="215" y="505"/>
      <point x="218" y="494" type="curve"/>
      <point x="320" y="485"/>
      <point x="369" y="481"/>
    </contour>
    <contour>
      <point x="196" y="-209" type="curve"/>
      <point x="218.857142857" y="-211.857142857"/>
      <point x="236.153846154" y="-211.076923077"/>
      <point x="250" y="-208" type="curve"/>
      <point x="250" y="36"/>
      <point x="257" y="271"/>
      <point x="243" y="516" type="curve"/>
      <point x="231" y="517"/>
      <point x="216" y="517"/>
      <point x="206" y="514" type="curve"/>
      <point x="193" y="269"/>
      <point x="199" y="-19"/>
    </contour>
  </outline>
</glyph>
<glyph name="daggerdbl" format="1">
  <advance width="455.201265367"/>
  <unicode hex="2021"/>
  <outline>
    <contour>
      <point x="255" y="710" type="curve"/>
      <point x="247" y="711"/>
      <point x="241" y="712"/>
      <point x="234" y="712" type="curve" smooth="yes"/>
      <point x="221" y="712"/>
      <point x="210" y="711"/>
      <point x="201" y="709" type="curve"/>
      <point x="201" y="637"/>
      <point x="204" y="581"/>
      <point x="208" y="495" type="curve"/>
      <point x="220" y="494"/>
      <point x="235" y="494"/>
      <point x="245" y="497" type="curve"/>
      <point x="252" y="603"/>
      <point x="254" y="654"/>
    </contour>
    <contour>
      <point x="32" y="540" type="curve"/>
      <point x="31" y="533"/>
      <point x="30" y="531"/>
      <point x="30" y="523" type="curve" smooth="yes"/>
      <point x="29" y="512"/>
      <point x="32" y="496"/>
      <point x="33" y="485" type="curve"/>
      <point x="104" y="490"/>
      <point x="159" y="493"/>
      <point x="244" y="492" type="curve"/>
      <point x="245" y="505"/>
      <point x="246" y="519"/>
      <point x="242" y="530" type="curve"/>
      <point x="137" y="539"/>
      <point x="88" y="542"/>
    </contour>
    <contour>
      <point x="423" y="483" type="curve"/>
      <point x="424" y="490"/>
      <point x="425" y="492"/>
      <point x="425" y="500" type="curve" smooth="yes"/>
      <point x="426" y="511"/>
      <point x="423" y="527"/>
      <point x="422" y="538" type="curve"/>
      <point x="353" y="531"/>
      <point x="298" y="530"/>
      <point x="217" y="531" type="curve"/>
      <point x="216" y="519"/>
      <point x="215" y="505"/>
      <point x="218" y="494" type="curve"/>
      <point x="320" y="485"/>
      <point x="369" y="481"/>
    </contour>
    <contour>
      <point x="210" y="-9" type="curve"/>
      <point x="226" y="-11"/>
      <point x="237" y="-11"/>
      <point x="247" y="-8" type="curve"/>
      <point x="257" y="221"/>
      <point x="258" y="315"/>
      <point x="243" y="516" type="curve"/>
      <point x="231" y="517"/>
      <point x="216" y="517"/>
      <point x="206" y="514" type="curve"/>
      <point x="197" y="351"/>
      <point x="199" y="189"/>
    </contour>
    <contour>
      <point x="200" y="-207" type="curve"/>
      <point x="208" y="-208"/>
      <point x="214" y="-209"/>
      <point x="221" y="-209" type="curve" smooth="yes"/>
      <point x="234" y="-209"/>
      <point x="245" y="-208"/>
      <point x="254" y="-206" type="curve"/>
      <point x="254" y="-134"/>
      <point x="251" y="-78"/>
      <point x="247" y="8" type="curve"/>
      <point x="235" y="9"/>
      <point x="220" y="9"/>
      <point x="210" y="6" type="curve"/>
      <point x="203" y="-100"/>
      <point x="201" y="-151"/>
    </contour>
    <contour>
      <point x="423" y="-37" type="curve"/>
      <point x="424" y="-30"/>
      <point x="425" y="-28"/>
      <point x="425" y="-20" type="curve" smooth="yes"/>
      <point x="426" y="-9"/>
      <point x="423" y="7"/>
      <point x="422" y="18" type="curve"/>
      <point x="351" y="13"/>
      <point x="296" y="10"/>
      <point x="211" y="11" type="curve"/>
      <point x="210" y="-2"/>
      <point x="209" y="-16"/>
      <point x="213" y="-27" type="curve"/>
      <point x="318" y="-36"/>
      <point x="367" y="-39"/>
    </contour>
    <contour>
      <point x="30" y="3" type="curve" smooth="yes"/>
      <point x="29" y="-8"/>
      <point x="32" y="-24"/>
      <point x="33" y="-35" type="curve"/>
      <point x="102" y="-28"/>
      <point x="157" y="-27"/>
      <point x="238" y="-28" type="curve"/>
      <point x="239" y="-16"/>
      <point x="240" y="-2"/>
      <point x="237" y="9" type="curve"/>
      <point x="135" y="18"/>
      <point x="86" y="22"/>
      <point x="32" y="20" type="curve"/>
      <point x="31" y="13"/>
      <point x="30" y="11"/>
    </contour>
  </outline>
</glyph>
<glyph name="radical" format="1">
  <advance width="453"/>
  <unicode hex="221A"/>
  <outline>
    <contour>
      <point x="211" y="-90" type="curve"/>
      <point x="352" y="213"/>
      <point x="411" y="398"/>
      <point x="448" y="751" type="curve"/>
      <point x="426" y="758"/>
      <point x="411" y="761"/>
      <point x="391" y="760" type="curve"/>
      <point x="363" y="440"/>
      <point x="309" y="245"/>
      <point x="195" y="-24" type="curve"/>
      <point x="147" y="92"/>
      <point x="113" y="205"/>
      <point x="101" y="348" type="curve"/>
      <point x="79" y="345"/>
      <point x="71" y="340"/>
      <point x="50" y="330" type="curve"/>
      <point x="68" y="157"/>
      <point x="111" y="43"/>
      <point x="173" y="-95" type="curve"/>
      <point x="189" y="-95"/>
      <point x="194" y="-94"/>
    </contour>
  </outline>
</glyph>
<glyph name="greaterequal" format="1">
  <advance width="340"/>
  <unicode hex="2265"/>
  <outline>
    <contour>
      <point x="28" y="122" type="curve"/>
      <point x="123" y="111"/>
      <point x="220" y="111"/>
      <point x="311" y="122" type="curve"/>
      <point x="314" y="135"/>
      <point x="315" y="149"/>
      <point x="315" y="162" type="curve"/>
      <point x="191" y="152"/>
      <point x="116" y="154"/>
      <point x="33" y="164" type="curve"/>
      <point x="30" y="151"/>
      <point x="28" y="139"/>
    </contour>
    <contour>
      <point x="288" y="322" type="curve"/>
      <point x="285" y="359" type="line"/>
      <point x="212" y="307"/>
      <point x="138" y="265"/>
      <point x="30" y="219" type="curve"/>
      <point x="33" y="205"/>
      <point x="37" y="198"/>
      <point x="43" y="181" type="curve"/>
      <point x="147" y="225"/>
      <point x="224" y="264"/>
      <point x="307" y="323" type="curve"/>
      <point x="310" y="358" type="line"/>
      <point x="236" y="415"/>
      <point x="152" y="458"/>
      <point x="46" y="499" type="curve"/>
      <point x="39" y="487"/>
      <point x="34" y="475"/>
      <point x="33" y="462" type="curve"/>
      <point x="141" y="416"/>
      <point x="226" y="373"/>
    </contour>
  </outline>
</glyph>
<glyph name="uni25CC" format="1">
  <advance width="702"/>
  <unicode hex="25CC"/>
  <outline>
    <contour>
      <point x="164" y="157" type="curve" smooth="yes"/>
      <point x="164" y="181"/>
      <point x="149" y="197"/>
      <point x="126" y="197" type="curve" smooth="yes"/>
      <point x="102" y="197"/>
      <point x="85" y="180"/>
      <point x="85" y="157" type="curve" smooth="yes"/>
      <point x="85" y="132"/>
      <point x="102" y="115"/>
      <point x="126" y="115" type="curve" smooth="yes"/>
      <point x="149" y="115"/>
      <point x="164" y="131"/>
    </contour>
    <contour>
      <point x="259" y="60" type="curve" smooth="yes"/>
      <point x="259" y="85"/>
      <point x="243" y="101"/>
      <point x="219" y="101" type="curve" smooth="yes"/>
      <point x="196" y="101"/>
      <point x="180" y="85"/>
      <point x="180" y="60" type="curve" smooth="yes"/>
      <point x="180" y="37"/>
      <point x="196" y="21"/>
      <point x="219" y="21" type="curve" smooth="yes"/>
      <point x="243" y="21"/>
      <point x="259" y="37"/>
    </contour>
    <contour>
      <point x="130" y="285" type="curve" smooth="yes"/>
      <point x="130" y="310"/>
      <point x="116" y="325"/>
      <point x="91" y="325" type="curve" smooth="yes"/>
      <point x="66" y="325"/>
      <point x="50" y="309"/>
      <point x="50" y="285" type="curve" smooth="yes"/>
      <point x="50" y="260"/>
      <point x="66" y="244"/>
      <point x="91" y="244" type="curve" smooth="yes"/>
      <point x="116" y="244"/>
      <point x="130" y="260"/>
    </contour>
    <contour>
      <point x="391" y="25" type="curve" smooth="yes"/>
      <point x="391" y="50"/>
      <point x="376" y="66"/>
      <point x="351" y="66" type="curve" smooth="yes"/>
      <point x="326" y="66"/>
      <point x="312" y="50"/>
      <point x="312" y="25" type="curve" smooth="yes"/>
      <point x="312" y="0"/>
      <point x="326" y="-15"/>
      <point x="351" y="-15" type="curve" smooth="yes"/>
      <point x="376" y="-15"/>
      <point x="391" y="0"/>
    </contour>
    <contour>
      <point x="522" y="60" type="curve" smooth="yes"/>
      <point x="522" y="85"/>
      <point x="506" y="101"/>
      <point x="481" y="101" type="curve" smooth="yes"/>
      <point x="457" y="101"/>
      <point x="442" y="85"/>
      <point x="442" y="60" type="curve" smooth="yes"/>
      <point x="442" y="37"/>
      <point x="457" y="21"/>
      <point x="481" y="21" type="curve" smooth="yes"/>
      <point x="506" y="21"/>
      <point x="522" y="37"/>
    </contour>
    <contour>
      <point x="259" y="508" type="curve" smooth="yes"/>
      <point x="259" y="532"/>
      <point x="243" y="549"/>
      <point x="219" y="549" type="curve" smooth="yes"/>
      <point x="196" y="549"/>
      <point x="180" y="532"/>
      <point x="180" y="508" type="curve" smooth="yes"/>
      <point x="180" y="484"/>
      <point x="196" y="469"/>
      <point x="219" y="469" type="curve" smooth="yes"/>
      <point x="243" y="469"/>
      <point x="259" y="484"/>
    </contour>
    <contour>
      <point x="616" y="157" type="curve" smooth="yes"/>
      <point x="616" y="181"/>
      <point x="602" y="197"/>
      <point x="578" y="197" type="curve" smooth="yes"/>
      <point x="555" y="197"/>
      <point x="537" y="180"/>
      <point x="537" y="157" type="curve" smooth="yes"/>
      <point x="537" y="132"/>
      <point x="555" y="115"/>
      <point x="578" y="115" type="curve" smooth="yes"/>
      <point x="602" y="115"/>
      <point x="616" y="131"/>
    </contour>
    <contour>
      <point x="391" y="544" type="curve" smooth="yes"/>
      <point x="391" y="570"/>
      <point x="376" y="585"/>
      <point x="351" y="585" type="curve" smooth="yes"/>
      <point x="326" y="585"/>
      <point x="312" y="570"/>
      <point x="312" y="544" type="curve" smooth="yes"/>
      <point x="312" y="519"/>
      <point x="326" y="504"/>
      <point x="351" y="504" type="curve" smooth="yes"/>
      <point x="376" y="504"/>
      <point x="391" y="519"/>
    </contour>
    <contour>
      <point x="652" y="285" type="curve" smooth="yes"/>
      <point x="652" y="310"/>
      <point x="637" y="325"/>
      <point x="613" y="325" type="curve" smooth="yes"/>
      <point x="589" y="325"/>
      <point x="573" y="309"/>
      <point x="573" y="285" type="curve" smooth="yes"/>
      <point x="573" y="261"/>
      <point x="589" y="244"/>
      <point x="613" y="244" type="curve" smooth="yes"/>
      <point x="637" y="244"/>
      <point x="652" y="260"/>
    </contour>
    <contour>
      <point x="616" y="413" type="curve" smooth="yes"/>
      <point x="616" y="438"/>
      <point x="602" y="453"/>
      <point x="578" y="453" type="curve" smooth="yes"/>
      <point x="555" y="453"/>
      <point x="537" y="436"/>
      <point x="537" y="413" type="curve" smooth="yes"/>
      <point x="537" y="390"/>
      <point x="555" y="372"/>
      <point x="578" y="372" type="curve" smooth="yes"/>
      <point x="602" y="372"/>
      <point x="616" y="388"/>
    </contour>
    <contour>
      <point x="522" y="508" type="curve" smooth="yes"/>
      <point x="522" y="532"/>
      <point x="506" y="549"/>
      <point x="481" y="549" type="curve" smooth="yes"/>
      <point x="457" y="549"/>
      <point x="442" y="532"/>
      <point x="442" y="508" type="curve" smooth="yes"/>
      <point x="442" y="484"/>
      <point x="457" y="469"/>
      <point x="481" y="469" type="curve" smooth="yes"/>
      <point x="506" y="469"/>
      <point x="522" y="484"/>
    </contour>
    <contour>
      <point x="164" y="412" type="curve" smooth="yes"/>
      <point x="164" y="438"/>
      <point x="150" y="453"/>
      <point x="126" y="453" type="curve" smooth="yes"/>
      <point x="102" y="453"/>
      <point x="85" y="437"/>
      <point x="85" y="413" type="curve" smooth="yes"/>
      <point x="85" y="390"/>
      <point x="102" y="372"/>
      <point x="126" y="372" type="curve" smooth="yes"/>
      <point x="148" y="372"/>
      <point x="164" y="389"/>
    </contour>
  </outline>
</glyph>
<glyph name="caron.alt" format="1">
  <advance width="260"/>
  <unicode hex="E189"/>
  <outline>
    <contour>
      <point x="122" y="570" type="curve"/>
      <point x="158" y="639"/>
      <point x="172" y="704"/>
      <point x="180" y="779" type="curve"/>
      <point x="164" y="783"/>
      <point x="137" y="784"/>
      <point x="118" y="782" type="curve"/>
      <point x="115" y="706"/>
      <point x="103" y="640"/>
      <point x="81" y="577" type="curve"/>
      <point x="95" y="573"/>
      <point x="107" y="571"/>
    </contour>
  </outline>
</glyph>
<glyph name="revcommaaccent" format="1">
  <advance width="260"/>
  <unicode hex="E18A"/>
  <outline>
    <contour>
      <point x="93" y="574" type="curve"/>
      <point x="110" y="573"/>
      <point x="126" y="574"/>
      <point x="145" y="578" type="curve"/>
      <point x="142" y="637"/>
      <point x="148" y="690"/>
      <point x="168" y="757" type="curve"/>
      <point x="156" y="763"/>
      <point x="144" y="766"/>
      <point x="128" y="767" type="curve"/>
      <point x="98" y="694"/>
      <point x="88" y="629"/>
    </contour>
  </outline>
</glyph>
<glyph name="commaaccent" format="1">
  <advance width="260.227766017"/>
  <unicode hex="F6C3"/>
  <outline>
    <contour>
      <point x="167" y="-58" type="curve"/>
      <point x="150" y="-57"/>
      <point x="134" y="-58"/>
      <point x="115" y="-62" type="curve"/>
      <point x="118" y="-121"/>
      <point x="112" y="-174"/>
      <point x="92" y="-241" type="curve"/>
      <point x="104" y="-247"/>
      <point x="116" y="-250"/>
      <point x="132" y="-251" type="curve"/>
      <point x="162" y="-178"/>
      <point x="172" y="-113"/>
    </contour>
  </outline>
</glyph>
<glyph name="asa_ba_uukaar" format="1">
  <advance width="636"/>
  <outline>
    <contour>
      <point x="352" y="13" type="line"/>
      <point x="288" y="163"/>
      <point x="182" y="242"/>
      <point x="74" y="279" type="curve"/>
      <point x="80" y="252" type="line"/>
      <point x="144" y="330"/>
      <point x="276" y="421"/>
      <point x="350" y="451" type="curve"/>
      <point x="354" y="512" type="line"/>
      <point x="233" y="459"/>
      <point x="97" y="361"/>
      <point x="36" y="285" type="curve"/>
      <point x="38" y="265"/>
      <point x="43" y="247"/>
      <point x="63" y="227" type="curve"/>
      <point x="172" y="203"/>
      <point x="264" y="128"/>
      <point x="337" y="-16" type="curve"/>
    </contour>
    <contour>
      <point x="391" y="-4" type="curve"/>
      <point x="368" y="77"/>
      <point x="364" y="209"/>
      <point x="364" y="291" type="curve" smooth="yes"/>
      <point x="364" y="405"/>
      <point x="371" y="474"/>
      <point x="389" y="572" type="curve"/>
      <point x="348" y="582" type="line"/>
      <point x="327" y="460"/>
      <point x="317" y="345"/>
      <point x="317" y="199" type="curve" smooth="yes"/>
      <point x="317" y="72"/>
      <point x="327" y="22"/>
      <point x="337" y="-16" type="curve"/>
      <point x="357" y="-16"/>
      <point x="377" y="-13"/>
    </contour>
    <contour>
      <point x="297" y="568" type="curve" smooth="yes"/>
      <point x="428" y="568"/>
      <point x="557" y="553"/>
      <point x="636" y="535" type="curve"/>
      <point x="639" y="542"/>
      <point x="641" y="552"/>
      <point x="641" y="559" type="curve" smooth="yes"/>
      <point x="641" y="567"/>
      <point x="639" y="576"/>
      <point x="636" y="581" type="curve"/>
      <point x="559" y="600"/>
      <point x="431" y="618"/>
      <point x="298" y="618" type="curve" smooth="yes"/>
      <point x="180" y="618"/>
      <point x="68" y="598"/>
      <point x="0" y="581" type="curve"/>
      <point x="-3" y="576"/>
      <point x="-5" y="567"/>
      <point x="-5" y="560" type="curve" smooth="yes"/>
      <point x="-5" y="551"/>
      <point x="-3" y="541"/>
      <point x="0" y="535" type="curve"/>
      <point x="70" y="550"/>
      <point x="181" y="568"/>
    </contour>
    <contour>
      <point x="562" y="123" type="curve"/>
      <point x="536" y="184"/>
      <point x="525" y="248"/>
      <point x="525" y="312" type="curve" smooth="yes"/>
      <point x="525" y="354"/>
      <point x="530" y="396"/>
      <point x="539" y="438" type="curve"/>
      <point x="519" y="479" type="line"/>
      <point x="460" y="460"/>
      <point x="398" y="432"/>
      <point x="338" y="404" type="curve"/>
      <point x="347" y="352" type="line"/>
      <point x="405" y="381"/>
      <point x="461" y="407"/>
      <point x="515" y="427" type="curve"/>
      <point x="494" y="436" type="line"/>
      <point x="485" y="391"/>
      <point x="481" y="346"/>
      <point x="481" y="302" type="curve" smooth="yes"/>
      <point x="481" y="234"/>
      <point x="491" y="170"/>
      <point x="508" y="112" type="curve"/>
      <point x="526" y="112"/>
      <point x="549" y="114"/>
    </contour>
    <contour>
      <point x="24" y="126" type="curve"/>
      <point x="104" y="110"/>
      <point x="205" y="33"/>
      <point x="259" y="-67" type="curve"/>
      <point x="270" y="-62"/>
      <point x="278" y="-56"/>
      <point x="283" y="-48" type="curve"/>
      <point x="234" y="62"/>
      <point x="124" y="149"/>
      <point x="40" y="176" type="curve"/>
      <point x="31" y="162"/>
      <point x="25" y="144"/>
    </contour>
    <contour>
      <point x="278" y="0" type="move" name="blwm"/>
    </contour>
    <contour>
      <point x="423" y="750" type="move" name="reph"/>
    </contour>
    <contour>
      <point x="423" y="750" type="move" name="chandrabindu"/>
    </contour>
    <contour>
      <point x="238" y="0" type="move" name="haln"/>
    </contour>
  </outline>
</glyph>
<glyph name="bn_b_bha" format="1">
  <advance width="595"/>
  <outline>
    <contour>
      <point x="571" y="-75" type="curve" smooth="yes"/>
      <point x="571" y="-24"/>
      <point x="556" y="31"/>
      <point x="534" y="73" type="curve"/>
      <point x="525" y="81"/>
      <point x="511" y="89"/>
      <point x="501" y="94" type="curve"/>
      <point x="429" y="42"/>
      <point x="379" y="14"/>
      <point x="324" y="14" type="curve" smooth="yes"/>
      <point x="284" y="14"/>
      <point x="256" y="30"/>
      <point x="256" y="60" type="curve" smooth="yes"/>
      <point x="256" y="92"/>
      <point x="286" y="117"/>
      <point x="348" y="130" type="curve"/>
      <point x="342" y="148"/>
      <point x="328" y="162"/>
      <point x="313" y="168" type="curve"/>
      <point x="264" y="154"/>
      <point x="211" y="119"/>
      <point x="211" y="67" type="curve" smooth="yes"/>
      <point x="211" y="12"/>
      <point x="270" y="-26"/>
      <point x="339" y="-26" type="curve" smooth="yes"/>
      <point x="409" y="-26"/>
      <point x="466" y="14"/>
      <point x="528" y="59" type="curve"/>
      <point x="492" y="72" type="line"/>
      <point x="511" y="37"/>
      <point x="525" y="-12"/>
      <point x="525" y="-62" type="curve" smooth="yes"/>
      <point x="525" y="-164"/>
      <point x="467" y="-214"/>
      <point x="373" y="-214" type="curve" smooth="yes"/>
      <point x="246" y="-214"/>
      <point x="146" y="-124"/>
      <point x="62" y="133" type="curve"/>
      <point x="47" y="127"/>
      <point x="33" y="120"/>
      <point x="20" y="112" type="curve"/>
      <point x="78" y="-68"/>
      <point x="173" y="-260"/>
      <point x="373" y="-260" type="curve" smooth="yes"/>
      <point x="495" y="-260"/>
      <point x="571" y="-188"/>
    </contour>
    <contour>
      <point x="297" y="562" type="curve" smooth="yes"/>
      <point x="426" y="562"/>
      <point x="521" y="549"/>
      <point x="595" y="535" type="curve"/>
      <point x="599" y="541"/>
      <point x="600" y="550"/>
      <point x="600" y="558" type="curve" smooth="yes"/>
      <point x="600" y="567"/>
      <point x="599" y="576"/>
      <point x="595" y="581" type="curve"/>
      <point x="522" y="598"/>
      <point x="427" y="612"/>
      <point x="297" y="612" type="curve" smooth="yes"/>
      <point x="166" y="612"/>
      <point x="71" y="598"/>
      <point x="-1" y="581" type="curve"/>
      <point x="-3" y="576"/>
      <point x="-5" y="567"/>
      <point x="-5" y="558" type="curve" smooth="yes"/>
      <point x="-5" y="549"/>
      <point x="-3" y="540"/>
      <point x="-1" y="535" type="curve"/>
      <point x="73" y="549"/>
      <point x="167" y="562"/>
    </contour>
    <contour>
      <point x="442" y="104" type="line"/>
      <point x="383.112207931" y="243.189326708"/>
      <point x="284.580274885" y="314.822236689"/>
      <point x="184" y="349" type="curve"/>
      <point x="190" y="322" type="line"/>
      <point x="249.235627723" y="394.193421288"/>
      <point x="379.384728779" y="472.372187343"/>
      <point x="450" y="501" type="curve"/>
      <point x="454" y="562" type="line"/>
      <point x="337.881294553" y="511.138087697"/>
      <point x="203.004694206" y="426.022241961"/>
      <point x="146" y="355" type="curve"/>
      <point x="148" y="335"/>
      <point x="153" y="317"/>
      <point x="173" y="297" type="curve"/>
      <point x="273.769143798" y="274.714516275"/>
      <point x="359.441931215" y="207.971436974"/>
      <point x="427" y="75" type="curve"/>
    </contour>
    <contour>
      <point x="481" y="37" type="curve"/>
      <point x="461.540793029" y="105.530250636"/>
      <point x="464.0" y="220.396610169"/>
      <point x="464" y="291" type="curve" smooth="yes"/>
      <point x="464" y="405"/>
      <point x="471" y="474"/>
      <point x="489" y="572" type="curve"/>
      <point x="448" y="582" type="line"/>
      <point x="427" y="460"/>
      <point x="417" y="345"/>
      <point x="417" y="199" type="curve" smooth="yes"/>
      <point x="417.0" y="96.2186046512"/>
      <point x="419.068881774" y="55.1382492572"/>
      <point x="427" y="25" type="curve"/>
      <point x="447" y="25"/>
      <point x="467" y="28"/>
    </contour>
    <contour>
      <point x="333" y="-226" type="move" name="blwm"/>
    </contour>
    <contour>
      <point x="233" y="-226" type="move" name="haln"/>
    </contour>
    <contour>
      <point x="580" y="750" type="move" name="reph"/>
    </contour>
    <contour>
      <point x="580" y="750" type="move" name="chandrabindu"/>
    </contour>
  </outline>
</glyph>
<glyph name="bn_b_ra" format="1">
  <advance width="457"/>
  <outline>
    <contour>
      <point x="344" y="-7" type="line"/>
      <point x="324" y="170"/>
      <point x="188" y="254"/>
      <point x="90" y="292" type="curve"/>
      <point x="97" y="266" type="line"/>
      <point x="157" y="339"/>
      <point x="282" y="423"/>
      <point x="353" y="451" type="curve"/>
      <point x="356" y="512" type="line"/>
      <point x="240" y="462"/>
      <point x="110" y="370"/>
      <point x="52" y="299" type="curve"/>
      <point x="54" y="279"/>
      <point x="59" y="261"/>
      <point x="79" y="242" type="curve"/>
      <point x="177" y="216"/>
      <point x="298" y="135"/>
      <point x="326" y="-36" type="curve"/>
    </contour>
    <contour>
      <point x="358" y="-224"/>
      <point x="376" y="-222"/>
      <point x="391" y="-215" type="curve"/>
      <point x="367" y="-75"/>
      <point x="367" y="158"/>
      <point x="367" y="283" type="curve" smooth="yes"/>
      <point x="367" y="407"/>
      <point x="370" y="475"/>
      <point x="380" y="572" type="curve"/>
      <point x="339" y="582" type="line"/>
      <point x="325" y="443"/>
      <point x="319" y="339"/>
      <point x="319" y="203" type="curve" smooth="yes"/>
      <point x="319" y="-56"/>
      <point x="330" y="-150"/>
      <point x="338" y="-224" type="curve"/>
    </contour>
    <contour>
      <point x="352" y="-195" type="line"/>
      <point x="325" y="-142"/>
      <point x="290" y="-116"/>
      <point x="233" y="-116" type="curve" smooth="yes"/>
      <point x="181.928571429" y="-116.0"/>
      <point x="142.928571429" y="-128.0"/>
      <point x="103" y="-128" type="curve" smooth="yes"/>
      <point x="63" y="-128"/>
      <point x="32" y="-108"/>
      <point x="32" y="-61" type="curve" smooth="yes"/>
      <point x="32" y="-32"/>
      <point x="43" y="0"/>
      <point x="55" y="22" type="curve"/>
      <point x="45" y="31"/>
      <point x="33" y="37"/>
      <point x="15" y="38" type="curve"/>
      <point x="0" y="7"/>
      <point x="-15" y="-28"/>
      <point x="-15" y="-65" type="curve" smooth="yes"/>
      <point x="-15" y="-129"/>
      <point x="25" y="-177"/>
      <point x="97" y="-177" type="curve" smooth="yes"/>
      <point x="144.6" y="-177.0"/>
      <point x="190.333333333" y="-165.0"/>
      <point x="237" y="-165" type="curve" smooth="yes"/>
      <point x="297" y="-165"/>
      <point x="317" y="-200"/>
      <point x="338" y="-224" type="curve"/>
    </contour>
    <contour>
      <point x="60" y="548"/>
      <point x="155" y="561"/>
      <point x="239" y="561" type="curve" smooth="yes"/>
      <point x="316" y="561"/>
      <point x="399" y="548"/>
      <point x="457" y="535" type="curve"/>
      <point x="459" y="541"/>
      <point x="461" y="550"/>
      <point x="461" y="561" type="curve" smooth="yes"/>
      <point x="461" y="568"/>
      <point x="460" y="576"/>
      <point x="457" y="581" type="curve"/>
      <point x="402" y="597"/>
      <point x="318" y="611"/>
      <point x="243" y="611" type="curve" smooth="yes"/>
      <point x="158" y="611"/>
      <point x="59" y="597"/>
      <point x="0" y="581" type="curve"/>
      <point x="-3" y="576"/>
      <point x="-5" y="568"/>
      <point x="-5" y="560" type="curve" smooth="yes"/>
      <point x="-5" y="549"/>
      <point x="-3" y="541"/>
      <point x="0" y="535" type="curve"/>
    </contour>
    <contour>
      <point x="361" y="-211" type="move" name="blwm"/>
    </contour>
    <contour>
      <point x="187" y="-211" type="move" name="haln"/>
    </contour>
    <contour>
      <point x="352" y="690" type="move" name="reph"/>
    </contour>
    <contour>
      <point x="352" y="690" type="move" name="chandrabindu"/>
    </contour>
  </outline>
</glyph>
<glyph name="bn_b_ra_uukaar" format="1">
  <advance width="636"/>
  <outline>
    <contour>
      <point x="297" y="568" type="curve" smooth="yes"/>
      <point x="428" y="568"/>
      <point x="557" y="553"/>
      <point x="636" y="535" type="curve"/>
      <point x="639" y="542"/>
      <point x="641" y="552"/>
      <point x="641" y="559" type="curve" smooth="yes"/>
      <point x="641" y="567"/>
      <point x="639" y="576"/>
      <point x="636" y="581" type="curve"/>
      <point x="559" y="600"/>
      <point x="431" y="618"/>
      <point x="298" y="618" type="curve" smooth="yes"/>
      <point x="180" y="618"/>
      <point x="68" y="598"/>
      <point x="0" y="581" type="curve"/>
      <point x="-3" y="576"/>
      <point x="-5" y="567"/>
      <point x="-5" y="560" type="curve" smooth="yes"/>
      <point x="-5" y="551"/>
      <point x="-3" y="541"/>
      <point x="0" y="535" type="curve"/>
      <point x="70" y="550"/>
      <point x="181" y="568"/>
    </contour>
    <contour>
      <point x="344" y="-7" type="line"/>
      <point x="324" y="170"/>
      <point x="188" y="254"/>
      <point x="90" y="292" type="curve"/>
      <point x="97" y="266" type="line"/>
      <point x="157" y="339"/>
      <point x="282" y="423"/>
      <point x="353" y="451" type="curve"/>
      <point x="356" y="512" type="line"/>
      <point x="240" y="462"/>
      <point x="110" y="370"/>
      <point x="52" y="299" type="curve"/>
      <point x="54" y="279"/>
      <point x="59" y="261"/>
      <point x="79" y="242" type="curve"/>
      <point x="177" y="216"/>
      <point x="298" y="135"/>
      <point x="326" y="-36" type="curve"/>
    </contour>
    <contour>
      <point x="391" y="-215" type="curve"/>
      <point x="367" y="-75"/>
      <point x="367" y="158"/>
      <point x="367" y="283" type="curve" smooth="yes"/>
      <point x="367" y="407"/>
      <point x="370" y="475"/>
      <point x="380" y="572" type="curve"/>
      <point x="339" y="582" type="line"/>
      <point x="325" y="443"/>
      <point x="319" y="339"/>
      <point x="319" y="203" type="curve" smooth="yes"/>
      <point x="319" y="-56"/>
      <point x="330" y="-150"/>
      <point x="338" y="-224" type="curve"/>
      <point x="358" y="-224"/>
      <point x="376" y="-222"/>
    </contour>
    <contour>
      <point x="352" y="-195" type="line"/>
      <point x="325" y="-142"/>
      <point x="290" y="-116"/>
      <point x="233" y="-116" type="curve" smooth="yes"/>
      <point x="182" y="-116"/>
      <point x="143" y="-128"/>
      <point x="103" y="-128" type="curve" smooth="yes"/>
      <point x="63" y="-128"/>
      <point x="32" y="-108"/>
      <point x="32" y="-61" type="curve" smooth="yes"/>
      <point x="32" y="-32"/>
      <point x="43" y="0"/>
      <point x="55" y="22" type="curve"/>
      <point x="45" y="31"/>
      <point x="33" y="37"/>
      <point x="15" y="38" type="curve"/>
      <point x="0" y="7"/>
      <point x="-15" y="-28"/>
      <point x="-15" y="-65" type="curve" smooth="yes"/>
      <point x="-15" y="-129"/>
      <point x="25" y="-177"/>
      <point x="97" y="-177" type="curve" smooth="yes"/>
      <point x="145" y="-177"/>
      <point x="190" y="-165"/>
      <point x="237" y="-165" type="curve" smooth="yes"/>
      <point x="297" y="-165"/>
      <point x="317" y="-200"/>
      <point x="338" y="-224" type="curve"/>
    </contour>
    <contour>
      <point x="572" y="33" type="curve"/>
      <point x="546" y="94"/>
      <point x="535" y="158"/>
      <point x="535" y="222" type="curve" smooth="yes"/>
      <point x="535" y="264"/>
      <point x="540" y="306"/>
      <point x="549" y="348" type="curve"/>
      <point x="529" y="389" type="line"/>
      <point x="473" y="371"/>
      <point x="414" y="350"/>
      <point x="357" y="323" type="curve"/>
      <point x="366" y="271" type="line"/>
      <point x="420" y="298"/>
      <point x="475" y="319"/>
      <point x="525" y="337" type="curve"/>
      <point x="504" y="346" type="line"/>
      <point x="495" y="301"/>
      <point x="491" y="256"/>
      <point x="491" y="212" type="curve" smooth="yes"/>
      <point x="491" y="144"/>
      <point x="501" y="80"/>
      <point x="518" y="22" type="curve"/>
      <point x="536" y="22"/>
      <point x="559" y="24"/>
    </contour>
    <contour>
      <point x="518" y="750" type="move" name="chandrabindu"/>
    </contour>
    <contour>
      <point x="350" y="-118" type="move" name="blwm"/>
    </contour>
    <contour>
      <point x="316" y="-118" type="move" name="haln"/>
    </contour>
    <contour>
      <point x="518" y="750" type="move" name="reph"/>
    </contour>
  </outline>
</glyph>
<glyph name="bn_ba_phala" format="1">
  <advance width="0"/>
  <outline>
    <contour>
      <point x="-11" y="-221" type="line"/>
      <point x="-50" y="-151"/>
      <point x="-137" y="-117"/>
      <point x="-219" y="-90" type="curve"/>
      <point x="-218" y="-117" type="line"/>
      <point x="-163" y="-77"/>
      <point x="-56" y="-35"/>
      <point x="5" y="-22" type="curve"/>
      <point x="-14" y="24" type="line"/>
      <point x="-110" y="-6"/>
      <point x="-208" y="-39"/>
      <point x="-255" y="-77" type="curve"/>
      <point x="-256" y="-97"/>
      <point x="-250" y="-116"/>
      <point x="-234" y="-134" type="curve"/>
      <point x="-150" y="-152"/>
      <point x="-72" y="-180"/>
      <point x="-25" y="-249" type="curve"/>
    </contour>
    <contour>
      <point x="-5" y="-250"/>
      <point x="17" y="-250"/>
      <point x="32" y="-242" type="curve"/>
      <point x="20" y="-209"/>
      <point x="17" y="-163"/>
      <point x="17" y="-119" type="curve" smooth="yes"/>
      <point x="17" y="-82"/>
      <point x="25" y="-34"/>
      <point x="34" y="8" type="curve"/>
      <point x="-14" y="24" type="line"/>
      <point x="-27" y="-33"/>
      <point x="-33" y="-112"/>
      <point x="-33" y="-168" type="curve" smooth="yes"/>
      <point x="-33" y="-209"/>
      <point x="-29" y="-232"/>
      <point x="-25" y="-249" type="curve"/>
    </contour>
    <contour>
      <point x="0" y="0" type="move" name="_blwm"/>
    </contour>
  </outline>
</glyph>
<glyph name="bn_bh_la" format="1">
  <advance width="508"/>
  <outline>
    <contour>
      <point x="258" y="563" type="curve" smooth="yes"/>
      <point x="352" y="563"/>
      <point x="463" y="550"/>
      <point x="508" y="535" type="curve"/>
      <point x="510" y="541"/>
      <point x="511" y="552"/>
      <point x="511" y="562" type="curve" smooth="yes"/>
      <point x="511" y="569"/>
      <point x="511" y="576"/>
      <point x="508" y="581" type="curve"/>
      <point x="466" y="599"/>
      <point x="351" y="613"/>
      <point x="258" y="613" type="curve" smooth="yes"/>
      <point x="165" y="613"/>
      <point x="55" y="599"/>
      <point x="0" y="581" type="curve"/>
      <point x="-3" y="576"/>
      <point x="-5" y="569"/>
      <point x="-5" y="561" type="curve" smooth="yes"/>
      <point x="-5" y="552"/>
      <point x="-3" y="543"/>
      <point x="0" y="535" type="curve"/>
      <point x="56" y="550"/>
      <point x="164" y="563"/>
    </contour>
    <contour>
      <point x="382" y="-81" type="curve"/>
      <point x="398" y="-81"/>
      <point x="419" y="-80"/>
      <point x="434" y="-74" type="curve"/>
      <point x="448" y="44"/>
      <point x="458" y="186"/>
      <point x="458" y="355" type="curve" smooth="yes"/>
      <point x="458" y="399"/>
      <point x="438" y="432"/>
      <point x="417" y="456" type="curve"/>
      <point x="407" y="464"/>
      <point x="389" y="474"/>
      <point x="378" y="479" type="curve"/>
      <point x="308" y="376"/>
      <point x="265" y="325"/>
      <point x="212" y="325" type="curve" smooth="yes"/>
      <point x="172" y="325"/>
      <point x="144" y="345"/>
      <point x="144" y="381" type="curve" smooth="yes"/>
      <point x="144" y="419"/>
      <point x="174" y="449"/>
      <point x="236" y="465" type="curve"/>
      <point x="230" y="486"/>
      <point x="216" y="503"/>
      <point x="201" y="511" type="curve"/>
      <point x="152" y="494"/>
      <point x="99" y="452"/>
      <point x="99" y="389" type="curve" smooth="yes"/>
      <point x="99" y="323"/>
      <point x="155" y="277"/>
      <point x="224" y="277" type="curve" smooth="yes"/>
      <point x="293" y="277"/>
      <point x="348" y="348"/>
      <point x="409" y="441" type="curve"/>
      <point x="370" y="453" type="line"/>
      <point x="408" y="414"/>
      <point x="413" y="390"/>
      <point x="413" y="328" type="curve" smooth="yes"/>
      <point x="413" y="244"/>
      <point x="397" y="45"/>
    </contour>
    <contour>
      <point x="233" y="-32" type="curve"/>
      <point x="219" y="-34"/>
      <point x="207" y="-35"/>
      <point x="196" y="-35" type="curve" smooth="yes"/>
      <point x="129" y="-35"/>
      <point x="79" y="-3"/>
      <point x="79" y="53" type="curve" smooth="yes"/>
      <point x="79" y="101"/>
      <point x="101" y="132"/>
      <point x="136" y="132" type="curve" smooth="yes"/>
      <point x="171" y="132"/>
      <point x="200" y="95"/>
      <point x="227" y="43" type="curve"/>
      <point x="261" y="79" type="line"/>
      <point x="224" y="146"/>
      <point x="186" y="187"/>
      <point x="138" y="187" type="curve" smooth="yes"/>
      <point x="80" y="187"/>
      <point x="38" y="136"/>
      <point x="38" y="62" type="curve" smooth="yes"/>
      <point x="38" y="-29"/>
      <point x="121" y="-95"/>
      <point x="216" y="-91" type="curve"/>
      <point x="226" y="-75"/>
      <point x="233" y="-51"/>
    </contour>
    <contour>
      <point x="285" y="47" type="curve"/>
      <point x="240" y="127" type="line"/>
      <point x="197" y="97" type="line"/>
      <point x="237" y="25" type="line"/>
      <point x="256" y="30"/>
      <point x="273" y="38"/>
    </contour>
    <contour>
      <point x="401" y="-27" type="line"/>
      <point x="388" y="129"/>
      <point x="350" y="187"/>
      <point x="298" y="187" type="curve" smooth="yes"/>
      <point x="263" y="187"/>
      <point x="231" y="157"/>
      <point x="227" y="100" type="curve"/>
      <point x="229" y="65" type="line"/>
      <point x="277" y="60" type="line"/>
      <point x="267" y="77"/>
      <point x="265" y="82"/>
      <point x="265" y="91" type="curve" smooth="yes"/>
      <point x="265" y="117"/>
      <point x="281" y="136"/>
      <point x="303" y="136" type="curve" smooth="yes"/>
      <point x="339" y="136"/>
      <point x="368" y="92"/>
      <point x="382" y="-81" type="curve"/>
    </contour>
    <contour>
      <point x="404" y="-70" type="move" name="blwm"/>
    </contour>
    <contour>
      <point x="280" y="-70" type="move" name="haln"/>
    </contour>
    <contour>
      <point x="423.0" y="690.0" type="move" name="reph"/>
    </contour>
    <contour>
      <point x="421.0" y="690.0" type="move" name="chandrabindu"/>
    </contour>
  </outline>
</glyph>
<glyph name="bn_c_ca" format="1">
  <advance width="719"/>
  <outline>
    <contour>
      <point x="279" y="58"/>
      <point x="371" y="189"/>
      <point x="371" y="325" type="curve" smooth="yes"/>
      <point x="371" y="377"/>
      <point x="347" y="402"/>
      <point x="301" y="421" type="curve" smooth="yes"/>
      <point x="237" y="449"/>
      <point x="168" y="493"/>
      <point x="143" y="586" type="curve"/>
      <point x="126" y="546" type="line"/>
      <point x="144" y="473"/>
      <point x="205" y="420"/>
      <point x="263" y="393" type="curve" smooth="yes"/>
      <point x="305" y="374"/>
      <point x="322" y="362"/>
      <point x="322" y="325" type="curve" smooth="yes"/>
      <point x="322" y="209"/>
      <point x="243" y="95"/>
      <point x="166" y="95" type="curve" smooth="yes"/>
      <point x="128" y="95"/>
      <point x="108" y="118"/>
      <point x="108" y="187" type="curve" smooth="yes"/>
      <point x="108" y="280"/>
      <point x="131" y="487"/>
      <point x="154" y="603" type="curve"/>
      <point x="107" y="591" type="line"/>
      <point x="99" y="539"/>
      <point x="64" y="323"/>
      <point x="64" y="209" type="curve" smooth="yes"/>
      <point x="64" y="84"/>
      <point x="125" y="58"/>
      <point x="174" y="58" type="curve" smooth="yes"/>
    </contour>
    <contour>
      <point x="583" y="-17"/>
      <point x="679" y="132"/>
      <point x="679" y="286" type="curve" smooth="yes"/>
      <point x="679" y="345"/>
      <point x="654" y="374"/>
      <point x="606" y="396" type="curve" smooth="yes"/>
      <point x="538" y="427"/>
      <point x="466" y="477"/>
      <point x="439" y="583" type="curve"/>
      <point x="422" y="538" type="line"/>
      <point x="441" y="455"/>
      <point x="505" y="394"/>
      <point x="566" y="364" type="curve" smooth="yes"/>
      <point x="610" y="342"/>
      <point x="628" y="328"/>
      <point x="628" y="286" type="curve" smooth="yes"/>
      <point x="628" y="154"/>
      <point x="545" y="25"/>
      <point x="464" y="25" type="curve" smooth="yes"/>
      <point x="424" y="25"/>
      <point x="403" y="51"/>
      <point x="403" y="130" type="curve" smooth="yes"/>
      <point x="403" y="235"/>
      <point x="427" y="471"/>
      <point x="451" y="602" type="curve"/>
      <point x="402" y="589" type="line"/>
      <point x="393" y="530"/>
      <point x="356" y="284"/>
      <point x="356" y="155" type="curve" smooth="yes"/>
      <point x="356" y="12"/>
      <point x="421" y="-17"/>
      <point x="472" y="-17" type="curve" smooth="yes"/>
    </contour>
    <contour>
      <point x="74.2873992255" y="551.803102206"/>
      <point x="191.414634146" y="574.0"/>
      <point x="360" y="574" type="curve" smooth="yes"/>
      <point x="527.300970874" y="574.0"/>
      <point x="638.888332275" y="551.726611943"/>
      <point x="719" y="535" type="curve"/>
      <point x="721" y="541"/>
      <point x="723" y="551"/>
      <point x="723" y="561" type="curve" smooth="yes"/>
      <point x="723" y="568"/>
      <point x="722" y="576"/>
      <point x="719" y="581" type="curve"/>
      <point x="647.21733854" y="600.496525335"/>
      <point x="528.548387097" y="624.0"/>
      <point x="359" y="624" type="curve" smooth="yes"/>
      <point x="188.716381418" y="624.0"/>
      <point x="72.6919769479" y="600.502725523"/>
      <point x="0" y="581" type="curve"/>
      <point x="-3" y="576"/>
      <point x="-5" y="569"/>
      <point x="-5" y="561" type="curve" smooth="yes"/>
      <point x="-5" y="552"/>
      <point x="-3" y="543"/>
      <point x="0" y="535" type="curve"/>
    </contour>
    <contour>
      <point x="493" y="0" type="move" name="blwm"/>
    </contour>
    <contour>
      <point x="467" y="0" type="move" name="haln"/>
    </contour>
  </outline>
</glyph>
<glyph name="bn_c_nya" format="1">
  <advance width="797"/>
  <outline>
    <contour>
      <point x="233.159509202" y="214.0"/>
      <point x="310.0" y="309.357142857"/>
      <point x="310" y="409" type="curve" smooth="yes"/>
      <point x="310.0" y="450.454545455"/>
      <point x="294.329960602" y="472.720540831"/>
      <point x="261" y="485" type="curve" smooth="yes"/>
      <point x="213" y="504"/>
      <point x="161" y="534"/>
      <point x="142" y="597" type="curve"/>
      <point x="111" y="564" type="line"/>
      <point x="125" y="514"/>
      <point x="171" y="478"/>
      <point x="215" y="460" type="curve" smooth="yes"/>
      <point x="246" y="447"/>
      <point x="259" y="438"/>
      <point x="259" y="413" type="curve" smooth="yes"/>
      <point x="259" y="334"/>
      <point x="199" y="256"/>
      <point x="141" y="256" type="curve" smooth="yes"/>
      <point x="112" y="256"/>
      <point x="97" y="272"/>
      <point x="97" y="319" type="curve" smooth="yes"/>
      <point x="97" y="382"/>
      <point x="115" y="524"/>
      <point x="132" y="603" type="curve"/>
      <point x="81" y="595" type="line"/>
      <point x="74" y="559"/>
      <point x="48" y="412"/>
      <point x="48" y="334" type="curve" smooth="yes"/>
      <point x="48.0" y="234.970873786"/>
      <point x="100.777777778" y="214.0"/>
      <point x="143" y="214" type="curve" smooth="yes"/>
    </contour>
    <contour>
      <point x="85.9171687414" y="554.737727954"/>
      <point x="222.833333333" y="574.0"/>
      <point x="420" y="574" type="curve" smooth="yes"/>
      <point x="595.128146453" y="574.0"/>
      <point x="712.72995937" y="552.907383634"/>
      <point x="797" y="535" type="curve"/>
      <point x="799" y="541"/>
      <point x="801" y="551"/>
      <point x="801" y="561" type="curve" smooth="yes"/>
      <point x="801" y="568"/>
      <point x="800" y="576"/>
      <point x="797" y="581" type="curve"/>
      <point x="721.067120594" y="601.037843177"/>
      <point x="597.643835616" y="624.0"/>
      <point x="419" y="624" type="curve" smooth="yes"/>
      <point x="220.587743733" y="624.0"/>
      <point x="84.6226322215" y="604.1842828"/>
      <point x="0" y="581" type="curve"/>
      <point x="-3" y="576"/>
      <point x="-5" y="569"/>
      <point x="-5" y="561" type="curve" smooth="yes"/>
      <point x="-5" y="552"/>
      <point x="-3" y="543"/>
      <point x="0" y="535" type="curve"/>
    </contour>
    <contour>
      <point x="739" y="87"/>
      <point x="759" y="133"/>
      <point x="759" y="182" type="curve" smooth="yes"/>
      <point x="759" y="250"/>
      <point x="706" y="287"/>
      <point x="646" y="287" type="curve" smooth="yes"/>
      <point x="570" y="287"/>
      <point x="500" y="230"/>
      <point x="471" y="166" type="curve"/>
      <point x="485" y="117" type="line"/>
      <point x="530" y="201"/>
      <point x="592" y="238"/>
      <point x="650" y="238" type="curve" smooth="yes"/>
      <point x="691" y="238"/>
      <point x="716" y="218"/>
      <point x="716" y="187" type="curve" smooth="yes"/>
      <point x="716" y="155"/>
      <point x="703" y="128"/>
      <point x="683" y="99" type="curve"/>
      <point x="707" y="54" type="line"/>
    </contour>
    <contour>
      <point x="720" y="-120"/>
      <point x="765" y="-78"/>
      <point x="765" y="-13" type="curve" smooth="yes"/>
      <point x="765" y="31"/>
      <point x="746" y="67"/>
      <point x="713" y="101" type="curve"/>
      <point x="692" y="68" type="line"/>
      <point x="710" y="46"/>
      <point x="722" y="19"/>
      <point x="722" y="-8" type="curve" smooth="yes"/>
      <point x="722" y="-40"/>
      <point x="700" y="-70"/>
      <point x="651" y="-70" type="curve" smooth="yes"/>
      <point x="595" y="-70"/>
      <point x="528" y="-29"/>
      <point x="485" y="49" type="curve"/>
      <point x="471" y="14" type="line"/>
      <point x="496" y="-50"/>
      <point x="574" y="-120"/>
      <point x="656" y="-120" type="curve" smooth="yes"/>
    </contour>
    <contour>
      <point x="667" y="-1"/>
      <point x="704" y="35"/>
      <point x="727" y="85" type="curve"/>
      <point x="690" y="111" type="line"/>
      <point x="664" y="62"/>
      <point x="642" y="43"/>
      <point x="618" y="43" type="curve" smooth="yes"/>
      <point x="596" y="43"/>
      <point x="581" y="58"/>
      <point x="581" y="80" type="curve" smooth="yes"/>
      <point x="581" y="104"/>
      <point x="601" y="121"/>
      <point x="627" y="121" type="curve" smooth="yes"/>
      <point x="654" y="121"/>
      <point x="682" y="102"/>
      <point x="697" y="73" type="curve"/>
      <point x="709" y="113" type="line"/>
      <point x="691" y="140"/>
      <point x="659" y="158"/>
      <point x="627" y="158" type="curve" smooth="yes"/>
      <point x="578" y="158"/>
      <point x="547" y="123"/>
      <point x="547" y="81" type="curve" smooth="yes"/>
      <point x="547" y="32"/>
      <point x="580" y="-1"/>
      <point x="624" y="-1" type="curve" smooth="yes"/>
    </contour>
    <contour>
      <point x="444" y="-250"/>
      <point x="461" y="-248"/>
      <point x="476" y="-242" type="curve"/>
      <point x="493" y="-108"/>
      <point x="503" y="48"/>
      <point x="503" y="251" type="curve" smooth="yes"/>
      <point x="503" y="337"/>
      <point x="447" y="394"/>
      <point x="383" y="394" type="curve" smooth="yes"/>
      <point x="288" y="394"/>
      <point x="156" y="268"/>
      <point x="156" y="154" type="curve" smooth="yes"/>
      <point x="156" y="87"/>
      <point x="201" y="48"/>
      <point x="263" y="48" type="curve" smooth="yes"/>
      <point x="296" y="48"/>
      <point x="329" y="59"/>
      <point x="354" y="82" type="curve"/>
      <point x="359" y="93"/>
      <point x="360" y="105"/>
      <point x="360" y="116" type="curve" smooth="yes"/>
      <point x="360" y="127"/>
      <point x="359" y="137"/>
      <point x="354" y="144" type="curve"/>
      <point x="338" y="125"/>
      <point x="310" y="98"/>
      <point x="270" y="98" type="curve" smooth="yes"/>
      <point x="237" y="98"/>
      <point x="212" y="116"/>
      <point x="212" y="158" type="curve" smooth="yes"/>
      <point x="212" y="247"/>
      <point x="321" y="352"/>
      <point x="392" y="352" type="curve" smooth="yes"/>
      <point x="429" y="352"/>
      <point x="456" y="322"/>
      <point x="456" y="268" type="curve" smooth="yes"/>
      <point x="456" y="98"/>
      <point x="446" y="-96"/>
      <point x="426" y="-225" type="curve"/>
      <point x="443" y="-220" type="line"/>
      <point x="418" y="-145"/>
      <point x="389" y="-105"/>
      <point x="330" y="-105" type="curve" smooth="yes"/>
      <point x="271" y="-105"/>
      <point x="200" y="-146"/>
      <point x="146" y="-146" type="curve" smooth="yes"/>
      <point x="107" y="-146"/>
      <point x="74" y="-125"/>
      <point x="74" y="-70" type="curve" smooth="yes"/>
      <point x="74" y="-37"/>
      <point x="86" y="12"/>
      <point x="105" y="42" type="curve"/>
      <point x="95" y="51"/>
      <point x="83" y="57"/>
      <point x="65" y="58" type="curve"/>
      <point x="44" y="20"/>
      <point x="25" y="-32"/>
      <point x="25" y="-78" type="curve" smooth="yes"/>
      <point x="25" y="-147"/>
      <point x="67" y="-199"/>
      <point x="139" y="-199" type="curve" smooth="yes"/>
      <point x="202" y="-199"/>
      <point x="280" y="-158"/>
      <point x="334" y="-158" type="curve" smooth="yes"/>
      <point x="391" y="-158"/>
      <point x="406" y="-204"/>
      <point x="429" y="-250" type="curve"/>
    </contour>
    <contour>
      <point x="421" y="-160" type="move" name="blwm"/>
    </contour>
    <contour>
      <point x="383" y="-160" type="move" name="haln"/>
    </contour>
    <contour>
      <point x="559" y="750" type="move" name="reph"/>
    </contour>
    <contour>
      <point x="559" y="750" type="move" name="chandrabindu"/>
    </contour>
  </outline>
</glyph>
<glyph name="bn_ca.half" format="1">
  <advance width="426"/>
  <outline>
    <contour>
      <point x="294" y="138"/>
      <point x="390" y="250"/>
      <point x="390" y="365" type="curve" smooth="yes"/>
      <point x="390" y="409"/>
      <point x="365" y="431"/>
      <point x="317" y="448" type="curve" smooth="yes"/>
      <point x="249" y="471"/>
      <point x="177" y="508"/>
      <point x="150" y="588" type="curve"/>
      <point x="133" y="554" type="line"/>
      <point x="152.669097971" y="489.816627673"/>
      <point x="215.725380176" y="441.099043215"/>
      <point x="277" y="419" type="curve" smooth="yes"/>
      <point x="321" y="402"/>
      <point x="339" y="392"/>
      <point x="339" y="360" type="curve" smooth="yes"/>
      <point x="339.0" y="266.513089005"/>
      <point x="256.0" y="174.0"/>
      <point x="175" y="174" type="curve" smooth="yes"/>
      <point x="135.0" y="174.0"/>
      <point x="114.0" y="192.734177215"/>
      <point x="114" y="248" type="curve" smooth="yes"/>
      <point x="114" y="327"/>
      <point x="138" y="504"/>
      <point x="162" y="602" type="curve"/>
      <point x="113" y="592" type="line"/>
      <point x="104" y="548"/>
      <point x="67" y="364"/>
      <point x="67" y="267" type="curve" smooth="yes"/>
      <point x="67" y="160"/>
      <point x="132" y="138"/>
      <point x="183" y="138" type="curve" smooth="yes"/>
    </contour>
    <contour>
      <point x="56" y="548"/>
      <point x="148" y="559"/>
      <point x="219" y="559" type="curve" smooth="yes"/>
      <point x="290" y="559"/>
      <point x="381" y="547"/>
      <point x="426" y="535" type="curve"/>
      <point x="428" y="541"/>
      <point x="429" y="552"/>
      <point x="429" y="562" type="curve" smooth="yes"/>
      <point x="429" y="569"/>
      <point x="429" y="576"/>
      <point x="426" y="581" type="curve"/>
      <point x="384" y="595"/>
      <point x="281" y="609"/>
      <point x="211" y="609" type="curve" smooth="yes"/>
      <point x="141" y="609"/>
      <point x="55" y="597"/>
      <point x="0" y="581" type="curve"/>
      <point x="-3" y="576"/>
      <point x="-5" y="569"/>
      <point x="-5" y="561" type="curve" smooth="yes"/>
      <point x="-5" y="552"/>
      <point x="-3" y="543"/>
      <point x="0" y="535" type="curve"/>
    </contour>
  </outline>
</glyph>
<glyph name="bn_cha.half" format="1">
  <advance width="480"/>
  <outline>
    <contour>
      <point x="467" y="59"/>
      <point x="479" y="68"/>
      <point x="489" y="77" type="curve"/>
      <point x="396.770976" y="148.176746782"/>
      <point x="305" y="205"/>
      <point x="207" y="244" type="curve"/>
      <point x="226" y="221" type="line"/>
      <point x="339" y="221"/>
      <point x="430.0" y="259.233333333"/>
      <point x="430" y="345" type="curve" smooth="yes"/>
      <point x="430" y="412"/>
      <point x="369" y="466"/>
      <point x="303" y="496" type="curve"/>
      <point x="228" y="507"/>
      <point x="160" y="522"/>
      <point x="123" y="574" type="curve"/>
      <point x="119" y="544" type="line"/>
      <point x="148.368618308" y="499.947072539"/>
      <point x="196" y="473"/>
      <point x="269" y="461" type="curve"/>
      <point x="257" y="478" type="line"/>
      <point x="261" y="470"/>
      <point x="262" y="466"/>
      <point x="262" y="458" type="curve" smooth="yes"/>
      <point x="262" y="405"/>
      <point x="210" y="357"/>
      <point x="157" y="357" type="curve" smooth="yes"/>
      <point x="135" y="357"/>
      <point x="123" y="365"/>
      <point x="123" y="382" type="curve" smooth="yes"/>
      <point x="123" y="445"/>
      <point x="128" y="519"/>
      <point x="136" y="567" type="curve"/>
      <point x="89" y="563" type="line"/>
      <point x="80" y="515"/>
      <point x="73" y="458"/>
      <point x="73" y="387" type="curve" smooth="yes"/>
      <point x="73.0" y="345.2"/>
      <point x="119" y="321"/>
      <point x="167" y="321" type="curve" smooth="yes"/>
      <point x="249" y="321"/>
      <point x="314.0" y="383.647058824"/>
      <point x="314" y="463" type="curve"/>
      <point x="293" y="457" type="line"/>
      <point x="344" y="431"/>
      <point x="382.0" y="395.513513514"/>
      <point x="382" y="352" type="curve" smooth="yes"/>
      <point x="382" y="293"/>
      <point x="320" y="265"/>
      <point x="245" y="265" type="curve" smooth="yes"/>
      <point x="208" y="265"/>
      <point x="164" y="270"/>
      <point x="113" y="283" type="curve"/>
      <point x="128" y="232" type="line"/>
      <point x="247" y="192"/>
      <point x="352" y="135"/>
      <point x="453" y="50" type="curve"/>
    </contour>
    <contour>
      <point x="56" y="550"/>
      <point x="162" y="563"/>
      <point x="246" y="563" type="curve" smooth="yes"/>
      <point x="330" y="563"/>
      <point x="435" y="550"/>
      <point x="480" y="535" type="curve"/>
      <point x="482" y="541"/>
      <point x="483" y="552"/>
      <point x="483" y="562" type="curve" smooth="yes"/>
      <point x="483" y="569"/>
      <point x="483" y="576"/>
      <point x="480" y="581" type="curve"/>
      <point x="438" y="599"/>
      <point x="332" y="613"/>
      <point x="249" y="613" type="curve" smooth="yes"/>
      <point x="166" y="613"/>
      <point x="55" y="599"/>
      <point x="0" y="581" type="curve"/>
      <point x="-3" y="576"/>
      <point x="-5" y="569"/>
      <point x="-5" y="561" type="curve" smooth="yes"/>
      <point x="-5" y="552"/>
      <point x="-3" y="543"/>
      <point x="0" y="535" type="curve"/>
    </contour>
  </outline>
</glyph>
<glyph name="bn_d_bh_ra" format="1">
  <advance width="595"/>
  <outline>
    <contour>
      <point x="475" y="46" type="curve"/>
      <point x="462.55984624" y="97.537779861"/>
      <point x="459.0" y="148.272189349"/>
      <point x="459" y="195" type="curve" smooth="yes"/>
      <point x="459.0" y="285.124463519"/>
      <point x="479.254690331" y="368.312136738"/>
      <point x="505" y="448" type="curve"/>
      <point x="494" y="467"/>
      <point x="481" y="481"/>
      <point x="461" y="491" type="curve"/>
      <point x="377" y="439"/>
      <point x="292" y="353"/>
      <point x="213" y="236" type="curve"/>
      <point x="238" y="241" type="line"/>
      <point x="264.167529092" y="320.404915866"/>
      <point x="264.0" y="440.017241379"/>
      <point x="264" y="532" type="curve" smooth="yes"/>
      <point x="264" y="550"/>
      <point x="264" y="568"/>
      <point x="263" y="584" type="curve"/>
      <point x="229" y="578" type="line"/>
      <point x="227.351148944" y="468.35140479"/>
      <point x="222.236695596" y="332.712226866"/>
      <point x="189" y="221" type="curve"/>
      <point x="200" y="209"/>
      <point x="223" y="199"/>
      <point x="240" y="196" type="curve"/>
      <point x="292" y="284"/>
      <point x="385" y="383"/>
      <point x="475" y="439" type="curve"/>
      <point x="454" y="450" type="line"/>
      <point x="430.625691687" y="374.564732262"/>
      <point x="411.0" y="275.586206897"/>
      <point x="411" y="169" type="curve" smooth="yes"/>
      <point x="411.0" y="122.583850932"/>
      <point x="413.509876772" y="73.0766372798"/>
      <point x="425" y="28" type="curve"/>
      <point x="443" y="32"/>
      <point x="459" y="38"/>
    </contour>
    <contour>
      <point x="297" y="562" type="curve" smooth="yes"/>
      <point x="426" y="562"/>
      <point x="521" y="549"/>
      <point x="595" y="535" type="curve"/>
      <point x="599" y="541"/>
      <point x="600" y="550"/>
      <point x="600" y="558" type="curve" smooth="yes"/>
      <point x="600" y="567"/>
      <point x="599" y="576"/>
      <point x="595" y="581" type="curve"/>
      <point x="522" y="598"/>
      <point x="427" y="612"/>
      <point x="297" y="612" type="curve" smooth="yes"/>
      <point x="166" y="612"/>
      <point x="71" y="598"/>
      <point x="-1" y="581" type="curve"/>
      <point x="-3" y="576"/>
      <point x="-5" y="567"/>
      <point x="-5" y="558" type="curve" smooth="yes"/>
      <point x="-5" y="549"/>
      <point x="-3" y="540"/>
      <point x="-1" y="535" type="curve"/>
      <point x="73" y="549"/>
      <point x="167" y="562"/>
    </contour>
    <contour>
      <point x="525" y="-250" type="curve"/>
      <point x="543" y="-246"/>
      <point x="559" y="-240"/>
      <point x="575" y="-232" type="curve"/>
      <point x="560" y="-124"/>
      <point x="557" y="-9"/>
      <point x="534" y="73" type="curve"/>
      <point x="525" y="81"/>
      <point x="511" y="89"/>
      <point x="501" y="94" type="curve"/>
      <point x="429" y="42"/>
      <point x="379" y="14"/>
      <point x="324" y="14" type="curve" smooth="yes"/>
      <point x="284" y="14"/>
      <point x="256" y="30"/>
      <point x="256" y="60" type="curve" smooth="yes"/>
      <point x="256" y="92"/>
      <point x="286" y="117"/>
      <point x="348" y="130" type="curve"/>
      <point x="342" y="148"/>
      <point x="328" y="162"/>
      <point x="313" y="168" type="curve"/>
      <point x="264" y="154"/>
      <point x="211" y="119"/>
      <point x="211" y="67" type="curve" smooth="yes"/>
      <point x="211" y="12"/>
      <point x="270" y="-26"/>
      <point x="339" y="-26" type="curve" smooth="yes"/>
      <point x="409" y="-26"/>
      <point x="466" y="14"/>
      <point x="528" y="59" type="curve"/>
      <point x="488" y="72" type="line"/>
      <point x="507.938035616" y="-55.6034279411"/>
      <point x="515.007877398" y="-122.1008307"/>
    </contour>
    <contour>
      <point x="538" y="-223" type="line"/>
      <point x="516" y="-157"/>
      <point x="470" y="-128"/>
      <point x="397" y="-128" type="curve" smooth="yes"/>
      <point x="332" y="-128"/>
      <point x="245" y="-164"/>
      <point x="185" y="-164" type="curve" smooth="yes"/>
      <point x="150" y="-164"/>
      <point x="121" y="-145"/>
      <point x="121" y="-99" type="curve" smooth="yes"/>
      <point x="121" y="-69"/>
      <point x="134" y="-27"/>
      <point x="151" y="-1" type="curve"/>
      <point x="140" y="7"/>
      <point x="128" y="12"/>
      <point x="110" y="13" type="curve"/>
      <point x="92" y="-21"/>
      <point x="75" y="-67"/>
      <point x="75" y="-108" type="curve" smooth="yes"/>
      <point x="75" y="-169"/>
      <point x="113" y="-216"/>
      <point x="177" y="-216" type="curve" smooth="yes"/>
      <point x="248" y="-216"/>
      <point x="341" y="-179"/>
      <point x="401" y="-179" type="curve" smooth="yes"/>
      <point x="476" y="-179"/>
      <point x="505" y="-210"/>
      <point x="525" y="-250" type="curve"/>
    </contour>
    <contour>
      <point x="251" y="750" type="move" name="reph"/>
    </contour>
    <contour>
      <point x="251" y="750" type="move" name="chandrabindu"/>
    </contour>
    <contour>
      <point x="361" y="-236" type="move" name="blwm"/>
    </contour>
    <contour>
      <point x="335" y="-236" type="move" name="haln"/>
    </contour>
  </outline>
</glyph>
<glyph name="bn_d_d_ba" format="1">
  <advance width="630"/>
  <outline>
    <contour>
      <point x="552" y="-246"/>
      <point x="568" y="-240"/>
      <point x="584" y="-232" type="curve"/>
      <point x="558.404114709" y="-128.110818525"/>
      <point x="542" y="-31"/>
      <point x="542" y="62" type="curve" smooth="yes"/>
      <point x="542" y="142"/>
      <point x="558" y="217"/>
      <point x="589" y="285" type="curve"/>
      <point x="578" y="304"/>
      <point x="565" y="318"/>
      <point x="545" y="328" type="curve"/>
      <point x="459.978345666" y="275.409285979"/>
      <point x="349.798097558" y="227.091096122"/>
      <point x="283" y="121" type="curve"/>
      <point x="307" y="118" type="line"/>
      <point x="311.012396413" y="236.766933828"/>
      <point x="349.570648318" y="356.141296637"/>
      <point x="393" y="443" type="curve"/>
      <point x="382" y="462"/>
      <point x="369" y="476"/>
      <point x="349" y="486" type="curve"/>
      <point x="252" y="426"/>
      <point x="148" y="332"/>
      <point x="62" y="200" type="curve"/>
      <point x="87" y="184" type="line"/>
      <point x="130" y="284"/>
      <point x="152" y="452"/>
      <point x="152" y="532" type="curve" smooth="yes"/>
      <point x="152" y="550"/>
      <point x="152" y="568"/>
      <point x="152" y="584" type="curve"/>
      <point x="116" y="578" type="line"/>
      <point x="113" y="454"/>
      <point x="85" y="311"/>
      <point x="36" y="179" type="curve"/>
      <point x="46" y="161"/>
      <point x="65" y="146"/>
      <point x="81" y="141" type="curve"/>
      <point x="140" y="247"/>
      <point x="255" y="367"/>
      <point x="363" y="434" type="curve"/>
      <point x="346" y="445" type="line"/>
      <point x="304.547823838" y="365.346798748"/>
      <point x="257.62264333" y="242.169969692"/>
      <point x="256" y="101" type="curve"/>
      <point x="266" y="83"/>
      <point x="286" y="67"/>
      <point x="302" y="62" type="curve"/>
      <point x="347.033597137" y="146.632104964"/>
      <point x="464.058357177" y="218.859196449"/>
      <point x="559" y="276" type="curve"/>
      <point x="542" y="287" type="line"/>
      <point x="513" y="220"/>
      <point x="494" y="131"/>
      <point x="494" y="36" type="curve" smooth="yes"/>
      <point x="494.0" y="-59.3333333333"/>
      <point x="509.49806501" y="-156.586372851"/>
      <point x="534" y="-250" type="curve"/>
    </contour>
    <contour>
      <point x="76" y="553"/>
      <point x="186" y="568"/>
      <point x="314" y="568" type="curve" smooth="yes"/>
      <point x="441" y="568"/>
      <point x="554" y="554"/>
      <point x="630" y="535" type="curve"/>
      <point x="633" y="542"/>
      <point x="635" y="552"/>
      <point x="635" y="559" type="curve" smooth="yes"/>
      <point x="635" y="567"/>
      <point x="633" y="576"/>
      <point x="630" y="581" type="curve"/>
      <point x="556" y="601"/>
      <point x="444" y="618"/>
      <point x="315" y="618" type="curve" smooth="yes"/>
      <point x="185" y="618"/>
      <point x="74" y="601"/>
      <point x="0" y="581" type="curve"/>
      <point x="-3" y="576"/>
      <point x="-5" y="567"/>
      <point x="-5" y="560" type="curve" smooth="yes"/>
      <point x="-5" y="551"/>
      <point x="-3" y="541"/>
      <point x="0" y="535" type="curve"/>
    </contour>
    <contour>
      <point x="548" y="-227" type="line"/>
      <point x="497" y="-131"/>
      <point x="413" y="-78"/>
      <point x="327" y="-53" type="curve"/>
      <point x="329" y="-72" type="line"/>
      <point x="383.071603036" y="-24.6873473434"/>
      <point x="477.671031705" y="44.2860523023"/>
      <point x="529" y="69" type="curve"/>
      <point x="531" y="122" type="line"/>
      <point x="440.893263818" y="78.8637965084"/>
      <point x="342.441890156" y="7.61186577552"/>
      <point x="289" y="-40" type="curve"/>
      <point x="291" y="-59"/>
      <point x="296" y="-76"/>
      <point x="314" y="-94" type="curve"/>
      <point x="402" y="-109"/>
      <point x="475" y="-158"/>
      <point x="534" y="-250" type="curve"/>
    </contour>
    <contour>
      <point x="281" y="750" type="move" name="reph"/>
    </contour>
    <contour>
      <point x="281" y="750" type="move" name="chandrabindu"/>
    </contour>
    <contour>
      <point x="520" y="-240" type="move" name="blwm"/>
    </contour>
    <contour>
      <point x="498" y="-240" type="move" name="haln"/>
    </contour>
  </outline>
</glyph>
<glyph name="bn_d_gha" format="1">
  <advance width="857"/>
  <outline>
    <contour>
      <point x="374" y="-12"/>
      <point x="390" y="-6"/>
      <point x="406" y="2" type="curve"/>
      <point x="389" y="74"/>
      <point x="381" y="144"/>
      <point x="381" y="209" type="curve" smooth="yes"/>
      <point x="381" y="285"/>
      <point x="392" y="357"/>
      <point x="413" y="422" type="curve"/>
      <point x="402" y="441"/>
      <point x="389" y="455"/>
      <point x="369" y="465" type="curve"/>
      <point x="272" y="405"/>
      <point x="168" y="311"/>
      <point x="79" y="179" type="curve"/>
      <point x="104" y="184" type="line"/>
      <point x="136" y="282"/>
      <point x="151" y="422"/>
      <point x="151" y="532" type="curve" smooth="yes"/>
      <point x="151" y="550"/>
      <point x="151" y="568"/>
      <point x="150" y="584" type="curve"/>
      <point x="116" y="578" type="line"/>
      <point x="114" y="445"/>
      <point x="88" y="284"/>
      <point x="47" y="145" type="curve"/>
      <point x="58" y="133"/>
      <point x="81" y="123"/>
      <point x="98" y="120" type="curve"/>
      <point x="160" y="226"/>
      <point x="275" y="346"/>
      <point x="383" y="413" type="curve"/>
      <point x="366" y="424" type="line"/>
      <point x="346" y="360"/>
      <point x="333" y="274"/>
      <point x="333" y="183" type="curve" smooth="yes"/>
      <point x="333" y="117"/>
      <point x="340" y="48"/>
      <point x="356" y="-16" type="curve"/>
    </contour>
    <contour>
      <point x="759" y="13" type="line"/>
      <point x="696" y="153"/>
      <point x="596" y="226"/>
      <point x="492" y="259" type="curve"/>
      <point x="495" y="230" type="line"/>
      <point x="652" y="352" type="line"/>
      <point x="653" y="371"/>
      <point x="648" y="390"/>
      <point x="637" y="405" type="curve"/>
      <point x="603" y="378"/>
      <point x="569" y="369"/>
      <point x="547" y="369" type="curve" smooth="yes"/>
      <point x="507" y="369"/>
      <point x="478" y="400"/>
      <point x="478" y="442" type="curve" smooth="yes"/>
      <point x="478" y="484"/>
      <point x="508" y="528"/>
      <point x="598" y="566" type="curve"/>
      <point x="526" y="583" type="line"/>
      <point x="460" y="540"/>
      <point x="429" y="500"/>
      <point x="429" y="443" type="curve" smooth="yes"/>
      <point x="429" y="374"/>
      <point x="477" y="336"/>
      <point x="543" y="332" type="curve" smooth="yes"/>
      <point x="592" y="329"/>
      <point x="620" y="348"/>
      <point x="630" y="355" type="curve"/>
      <point x="585" y="362" type="line"/>
      <point x="453" y="263" type="line"/>
      <point x="454" y="244"/>
      <point x="460" y="226"/>
      <point x="481" y="208" type="curve"/>
      <point x="586" y="185"/>
      <point x="673" y="116"/>
      <point x="744" y="-16" type="curve"/>
    </contour>
    <contour>
      <point x="763" y="-16"/>
      <point x="783" y="-14"/>
      <point x="796" y="-6" type="curve"/>
      <point x="774" y="76"/>
      <point x="772" y="210"/>
      <point x="772" y="285" type="curve" smooth="yes"/>
      <point x="772" y="403"/>
      <point x="777" y="468"/>
      <point x="794" y="562" type="curve"/>
      <point x="745" y="572" type="line"/>
      <point x="729" y="453"/>
      <point x="723" y="340"/>
      <point x="723" y="221" type="curve" smooth="yes"/>
      <point x="723" y="86"/>
      <point x="731" y="34"/>
      <point x="744" y="-16" type="curve"/>
    </contour>
    <contour>
      <point x="96.5301100994" y="555.934240744"/>
      <point x="253.470588235" y="568.0"/>
      <point x="417" y="568" type="curve" smooth="yes"/>
      <point x="587.72" y="568.0"/>
      <point x="755.551081696" y="558.223246359"/>
      <point x="857" y="535" type="curve"/>
      <point x="860" y="542"/>
      <point x="862" y="552"/>
      <point x="862" y="559" type="curve" smooth="yes"/>
      <point x="862" y="567"/>
      <point x="860" y="576"/>
      <point x="857" y="581" type="curve"/>
      <point x="757.99192499" y="605.446438274"/>
      <point x="591.312625251" y="618.0"/>
      <point x="418" y="618" type="curve" smooth="yes"/>
      <point x="252.201117318" y="618.0"/>
      <point x="94.0496648768" y="604.222139476"/>
      <point x="0" y="581" type="curve"/>
      <point x="-3" y="576"/>
      <point x="-5" y="567"/>
      <point x="-5" y="560" type="curve" smooth="yes"/>
      <point x="-5" y="551"/>
      <point x="-3" y="541"/>
      <point x="0" y="535" type="curve"/>
    </contour>
    <contour>
      <point x="711" y="0" type="move" name="blwm"/>
    </contour>
    <contour>
      <point x="680" y="0" type="move" name="haln"/>
    </contour>
    <contour>
      <point x="858" y="750" type="move" name="reph"/>
    </contour>
    <contour>
      <point x="858" y="750" type="move" name="chandrabindu"/>
    </contour>
  </outline>
</glyph>
<glyph name="bn_d_ma" format="1">
  <advance width="722"/>
  <outline>
    <contour>
      <point x="556" y="-199" type="curve"/>
      <point x="527" y="-60"/>
      <point x="503" y="162"/>
      <point x="503" y="282" type="curve" smooth="yes"/>
      <point x="503" y="437"/>
      <point x="506" y="475"/>
      <point x="518" y="572" type="curve"/>
      <point x="477" y="582" type="line"/>
      <point x="462" y="473"/>
      <point x="454" y="339"/>
      <point x="454" y="205" type="curve" smooth="yes"/>
      <point x="454" y="-49"/>
      <point x="491" y="-137"/>
      <point x="502" y="-210" type="curve"/>
      <point x="522" y="-210"/>
      <point x="541" y="-208"/>
    </contour>
    <contour>
      <point x="286" y="34" type="curve"/>
      <point x="235" y="60" type="line"/>
      <point x="232" y="-8"/>
      <point x="205" y="-42"/>
      <point x="165" y="-42" type="curve" smooth="yes"/>
      <point x="132" y="-42"/>
      <point x="111" y="-20"/>
      <point x="111" y="10" type="curve" smooth="yes"/>
      <point x="111" y="39"/>
      <point x="130" y="66"/>
      <point x="162" y="66" type="curve" smooth="yes"/>
      <point x="193" y="66"/>
      <point x="229" y="47"/>
      <point x="244" y="16" type="curve"/>
      <point x="253" y="67" type="line"/>
      <point x="237" y="95"/>
      <point x="201" y="109"/>
      <point x="163" y="109" type="curve" smooth="yes"/>
      <point x="113" y="109"/>
      <point x="71" y="74"/>
      <point x="71" y="15" type="curve" smooth="yes"/>
      <point x="71" y="-47"/>
      <point x="116" y="-91"/>
      <point x="174" y="-91" type="curve" smooth="yes"/>
      <point x="240" y="-91"/>
      <point x="281" y="-33"/>
    </contour>
    <contour>
      <point x="513" y="-181" type="line"/>
      <point x="479" y="-57"/>
      <point x="327" y="34"/>
      <point x="267" y="66" type="curve"/>
      <point x="250" y="17" type="line"/>
      <point x="363" y="-42"/>
      <point x="438" y="-88"/>
      <point x="502" y="-210" type="curve"/>
    </contour>
    <contour>
      <point x="360" y="574" type="curve" smooth="yes"/>
      <point x="529" y="574"/>
      <point x="641" y="552"/>
      <point x="722" y="535" type="curve"/>
      <point x="724" y="541"/>
      <point x="726" y="551"/>
      <point x="726" y="561" type="curve" smooth="yes"/>
      <point x="726" y="568"/>
      <point x="725" y="576"/>
      <point x="722" y="581" type="curve"/>
      <point x="650" y="601"/>
      <point x="530" y="624"/>
      <point x="359" y="624" type="curve" smooth="yes"/>
      <point x="189" y="624"/>
      <point x="80" y="602"/>
      <point x="0" y="581" type="curve"/>
      <point x="-3" y="576"/>
      <point x="-5" y="569"/>
      <point x="-5" y="561" type="curve" smooth="yes"/>
      <point x="-5" y="552"/>
      <point x="-3" y="543"/>
      <point x="0" y="535" type="curve"/>
      <point x="80" y="553"/>
      <point x="192" y="574"/>
    </contour>
    <contour>
      <point x="237" y="31" type="curve"/>
      <point x="288" y="48" type="line"/>
      <point x="303" y="162"/>
      <point x="340.167525581" y="337.335051162"/>
      <point x="393" y="443" type="curve"/>
      <point x="382" y="462"/>
      <point x="369" y="476"/>
      <point x="349" y="486" type="curve"/>
      <point x="252" y="426"/>
      <point x="148" y="332"/>
      <point x="62" y="200" type="curve"/>
      <point x="87" y="184" type="line"/>
      <point x="130" y="284"/>
      <point x="152" y="452"/>
      <point x="152" y="532" type="curve" smooth="yes"/>
      <point x="152" y="550"/>
      <point x="152" y="568"/>
      <point x="152" y="584" type="curve"/>
      <point x="116" y="578" type="line"/>
      <point x="113" y="454"/>
      <point x="85" y="311"/>
      <point x="36" y="179" type="curve"/>
      <point x="46" y="161"/>
      <point x="65" y="146"/>
      <point x="81" y="141" type="curve"/>
      <point x="140" y="247"/>
      <point x="255" y="367"/>
      <point x="363" y="434" type="curve"/>
      <point x="346" y="445" type="line"/>
      <point x="296.044383936" y="349.006855406"/>
      <point x="249" y="171"/>
    </contour>
    <contour>
      <point x="459" y="690" type="move" name="reph"/>
    </contour>
    <contour>
      <point x="459" y="690" type="move" name="chandrabindu"/>
    </contour>
    <contour>
      <point x="519" y="-192" type="move" name="blwm"/>
    </contour>
    <contour>
      <point x="423" y="-192" type="move" name="haln"/>
    </contour>
  </outline>
</glyph>
<glyph name="bn_d_ra" format="1">
  <advance width="542"/>
  <outline>
    <contour>
      <point x="448" y="-53" type="line"/>
      <point x="426" y="13"/>
      <point x="380" y="42"/>
      <point x="307" y="42" type="curve" smooth="yes"/>
      <point x="242" y="42"/>
      <point x="155" y="6"/>
      <point x="95" y="6" type="curve" smooth="yes"/>
      <point x="60" y="6"/>
      <point x="31" y="25"/>
      <point x="31" y="71" type="curve" smooth="yes"/>
      <point x="31" y="101"/>
      <point x="44" y="143"/>
      <point x="61" y="169" type="curve"/>
      <point x="50" y="177"/>
      <point x="38" y="182"/>
      <point x="20" y="183" type="curve"/>
      <point x="2" y="149"/>
      <point x="-15" y="103"/>
      <point x="-15" y="62" type="curve" smooth="yes"/>
      <point x="-15" y="1"/>
      <point x="23" y="-46"/>
      <point x="87" y="-46" type="curve" smooth="yes"/>
      <point x="158" y="-46"/>
      <point x="251" y="-9"/>
      <point x="311" y="-9" type="curve" smooth="yes"/>
      <point x="386" y="-9"/>
      <point x="415" y="-40"/>
      <point x="435" y="-80" type="curve"/>
    </contour>
    <contour>
      <point x="453" y="-76"/>
      <point x="469" y="-70"/>
      <point x="485" y="-62" type="curve"/>
      <point x="464" y="28"/>
      <point x="452" y="116"/>
      <point x="452" y="197" type="curve" smooth="yes"/>
      <point x="452" y="277"/>
      <point x="464" y="353"/>
      <point x="486" y="422" type="curve"/>
      <point x="475" y="441"/>
      <point x="462" y="455"/>
      <point x="442" y="465" type="curve"/>
      <point x="345" y="405"/>
      <point x="241" y="311"/>
      <point x="152" y="179" type="curve"/>
      <point x="177" y="184" type="line"/>
      <point x="209" y="282"/>
      <point x="224" y="422"/>
      <point x="224" y="532" type="curve" smooth="yes"/>
      <point x="224" y="550"/>
      <point x="224" y="568"/>
      <point x="223" y="584" type="curve"/>
      <point x="189" y="578" type="line"/>
      <point x="187" y="445"/>
      <point x="161" y="284"/>
      <point x="120" y="145" type="curve"/>
      <point x="131" y="133"/>
      <point x="154" y="123"/>
      <point x="171" y="120" type="curve"/>
      <point x="233" y="226"/>
      <point x="348" y="346"/>
      <point x="456" y="413" type="curve"/>
      <point x="439" y="424" type="line"/>
      <point x="418" y="357"/>
      <point x="404" y="267"/>
      <point x="404" y="171" type="curve" smooth="yes"/>
      <point x="404" y="88"/>
      <point x="415" y="1"/>
      <point x="435" y="-80" type="curve"/>
    </contour>
    <contour>
      <point x="63.5493511223" y="550.339498547"/>
      <point x="166.370607029" y="562.0"/>
      <point x="263" y="562" type="curve" smooth="yes"/>
      <point x="372.650655022" y="562.0"/>
      <point x="485.504504048" y="551.828445603"/>
      <point x="542" y="535" type="curve"/>
      <point x="544" y="541"/>
      <point x="545" y="552"/>
      <point x="545" y="562" type="curve" smooth="yes"/>
      <point x="545" y="569"/>
      <point x="544" y="576"/>
      <point x="542" y="581" type="curve"/>
      <point x="489.350620897" y="601.341805563"/>
      <point x="373.196428571" y="612.0"/>
      <point x="268" y="612" type="curve" smooth="yes"/>
      <point x="169.396226415" y="612.0"/>
      <point x="62.3203951371" y="599.586784515"/>
      <point x="0" y="581" type="curve"/>
      <point x="-3" y="576"/>
      <point x="-5" y="569"/>
      <point x="-5" y="561" type="curve" smooth="yes"/>
      <point x="-5" y="552"/>
      <point x="-3" y="541"/>
      <point x="0" y="535" type="curve"/>
    </contour>
    <contour>
      <point x="296" y="750" type="move" name="reph"/>
    </contour>
    <contour>
      <point x="296" y="749" type="move" name="chandrabindu"/>
    </contour>
    <contour>
      <point x="402" y="-62" type="move" name="blwm"/>
    </contour>
    <contour>
      <point x="367" y="-62" type="move" name="haln"/>
    </contour>
  </outline>
</glyph>
<glyph name="bn_d_ra_ukaar" format="1">
  <advance width="738"/>
  <outline>
    <contour>
      <point x="662" y="165"/>
      <point x="713" y="231"/>
      <point x="713" y="318" type="curve" smooth="yes"/>
      <point x="713" y="400"/>
      <point x="668" y="452"/>
      <point x="613" y="452" type="curve" smooth="yes"/>
      <point x="572" y="452"/>
      <point x="543" y="424"/>
      <point x="528" y="388" type="curve"/>
      <point x="532" y="371"/>
      <point x="544" y="347"/>
      <point x="557" y="334" type="curve"/>
      <point x="563" y="366"/>
      <point x="580" y="405"/>
      <point x="615" y="405" type="curve" smooth="yes"/>
      <point x="645" y="405"/>
      <point x="669" y="375"/>
      <point x="669" y="323" type="curve" smooth="yes"/>
      <point x="669" y="258"/>
      <point x="631" y="214"/>
      <point x="581" y="214" type="curve" smooth="yes"/>
      <point x="528" y="214"/>
      <point x="477" y="262"/>
      <point x="457" y="351" type="curve"/>
      <point x="444" y="303" type="line"/>
      <point x="470" y="216"/>
      <point x="523" y="165"/>
      <point x="588" y="165" type="curve" smooth="yes"/>
    </contour>
    <contour>
      <point x="84.3507140162" y="552.527421094"/>
      <point x="218.639097744" y="568.0"/>
      <point x="359" y="568" type="curve" smooth="yes"/>
      <point x="505.457227139" y="568.0"/>
      <point x="650.132227539" y="555.020505118"/>
      <point x="738" y="535" type="curve"/>
      <point x="741" y="542"/>
      <point x="743" y="552"/>
      <point x="743" y="559" type="curve" smooth="yes"/>
      <point x="743" y="567"/>
      <point x="741" y="576"/>
      <point x="738" y="581" type="curve"/>
      <point x="652.403454514" y="602.12122551"/>
      <point x="508.73964497" y="618.0"/>
      <point x="360" y="618" type="curve" smooth="yes"/>
      <point x="216.9" y="618.0"/>
      <point x="80.9515344555" y="601.784853441"/>
      <point x="0" y="581" type="curve"/>
      <point x="-3" y="576"/>
      <point x="-5" y="567"/>
      <point x="-5" y="560" type="curve" smooth="yes"/>
      <point x="-5" y="551"/>
      <point x="-3" y="541"/>
      <point x="0" y="535" type="curve"/>
    </contour>
    <contour>
      <point x="448" y="-53" type="line"/>
      <point x="426" y="13"/>
      <point x="380" y="42"/>
      <point x="307" y="42" type="curve" smooth="yes"/>
      <point x="242" y="42"/>
      <point x="155" y="6"/>
      <point x="95" y="6" type="curve" smooth="yes"/>
      <point x="60" y="6"/>
      <point x="31" y="25"/>
      <point x="31" y="71" type="curve" smooth="yes"/>
      <point x="31" y="101"/>
      <point x="44" y="143"/>
      <point x="61" y="169" type="curve"/>
      <point x="50" y="177"/>
      <point x="38" y="182"/>
      <point x="20" y="183" type="curve"/>
      <point x="2" y="149"/>
      <point x="-15" y="103"/>
      <point x="-15" y="62" type="curve" smooth="yes"/>
      <point x="-15" y="1"/>
      <point x="23" y="-46"/>
      <point x="87" y="-46" type="curve" smooth="yes"/>
      <point x="158" y="-46"/>
      <point x="251" y="-9"/>
      <point x="311" y="-9" type="curve" smooth="yes"/>
      <point x="386" y="-9"/>
      <point x="415" y="-40"/>
      <point x="435" y="-80" type="curve"/>
    </contour>
    <contour>
      <point x="453" y="-76"/>
      <point x="469" y="-70"/>
      <point x="485" y="-62" type="curve"/>
      <point x="464" y="28"/>
      <point x="452" y="116"/>
      <point x="452" y="197" type="curve" smooth="yes"/>
      <point x="452" y="277"/>
      <point x="464" y="353"/>
      <point x="486" y="422" type="curve"/>
      <point x="475" y="441"/>
      <point x="462" y="455"/>
      <point x="442" y="465" type="curve"/>
      <point x="345" y="405"/>
      <point x="241" y="311"/>
      <point x="152" y="179" type="curve"/>
      <point x="177" y="184" type="line"/>
      <point x="209" y="282"/>
      <point x="224" y="422"/>
      <point x="224" y="532" type="curve" smooth="yes"/>
      <point x="224" y="550"/>
      <point x="224" y="568"/>
      <point x="223" y="584" type="curve"/>
      <point x="189" y="578" type="line"/>
      <point x="187" y="445"/>
      <point x="161" y="284"/>
      <point x="120" y="145" type="curve"/>
      <point x="131" y="133"/>
      <point x="154" y="123"/>
      <point x="171" y="120" type="curve"/>
      <point x="233" y="226"/>
      <point x="348" y="346"/>
      <point x="456" y="413" type="curve"/>
      <point x="439" y="424" type="line"/>
      <point x="418" y="357"/>
      <point x="404" y="267"/>
      <point x="404" y="171" type="curve" smooth="yes"/>
      <point x="404" y="88"/>
      <point x="415" y="1"/>
      <point x="435" y="-80" type="curve"/>
    </contour>
  </outline>
</glyph>
<glyph name="bn_dh_ba" format="1">
  <advance width="791"/>
  <outline>
    <contour>
      <point x="686" y="13" type="line"/>
      <point x="622" y="163"/>
      <point x="516" y="242"/>
      <point x="408" y="279" type="curve"/>
      <point x="414" y="252" type="line"/>
      <point x="478" y="330"/>
      <point x="610" y="421"/>
      <point x="684" y="451" type="curve"/>
      <point x="688" y="512" type="line"/>
      <point x="567" y="459"/>
      <point x="431" y="361"/>
      <point x="370" y="285" type="curve"/>
      <point x="372" y="265"/>
      <point x="377" y="247"/>
      <point x="397" y="227" type="curve"/>
      <point x="506" y="203"/>
      <point x="598" y="128"/>
      <point x="671" y="-16" type="curve"/>
    </contour>
    <contour>
      <point x="725" y="-4" type="curve"/>
      <point x="702" y="77"/>
      <point x="698" y="209"/>
      <point x="698" y="291" type="curve" smooth="yes"/>
      <point x="698" y="401"/>
      <point x="704" y="468"/>
      <point x="721" y="562" type="curve"/>
      <point x="680" y="572" type="line"/>
      <point x="660" y="453"/>
      <point x="651" y="341"/>
      <point x="651" y="199" type="curve" smooth="yes"/>
      <point x="651" y="72"/>
      <point x="661" y="22"/>
      <point x="671" y="-16" type="curve"/>
      <point x="691" y="-16"/>
      <point x="711" y="-13"/>
    </contour>
    <contour>
      <point x="356" y="13" type="line"/>
      <point x="294" y="171"/>
      <point x="191" y="255"/>
      <point x="86" y="294" type="curve"/>
      <point x="92" y="267" type="line"/>
      <point x="156" y="335"/>
      <point x="288" y="405"/>
      <point x="362" y="431" type="curve"/>
      <point x="366" y="492" type="line"/>
      <point x="245" y="445"/>
      <point x="109" y="367"/>
      <point x="48" y="300" type="curve"/>
      <point x="50" y="280"/>
      <point x="55" y="262"/>
      <point x="75" y="242" type="curve"/>
      <point x="181" y="217"/>
      <point x="270" y="137"/>
      <point x="341" y="-16" type="curve"/>
    </contour>
    <contour>
      <point x="261" y="445" type="line"/>
      <point x="228" y="428"/>
      <point x="193" y="411"/>
      <point x="161" y="411" type="curve" smooth="yes"/>
      <point x="123" y="411"/>
      <point x="83" y="438"/>
      <point x="83" y="490" type="curve" smooth="yes"/>
      <point x="83" y="536"/>
      <point x="106" y="562"/>
      <point x="141" y="562" type="curve" smooth="yes"/>
      <point x="177" y="562"/>
      <point x="203" y="535"/>
      <point x="206" y="499" type="curve"/>
      <point x="223" y="503"/>
      <point x="244" y="522"/>
      <point x="251" y="535" type="curve"/>
      <point x="236" y="579"/>
      <point x="193" y="611"/>
      <point x="146" y="611" type="curve" smooth="yes"/>
      <point x="77" y="611"/>
      <point x="32" y="559"/>
      <point x="32" y="498" type="curve" smooth="yes"/>
      <point x="32" y="423"/>
      <point x="94" y="376"/>
      <point x="165" y="376" type="curve"/>
    </contour>
    <contour>
      <point x="573" y="561" type="curve" smooth="yes"/>
      <point x="650" y="561"/>
      <point x="733" y="548"/>
      <point x="791" y="535" type="curve"/>
      <point x="793" y="541"/>
      <point x="795" y="550"/>
      <point x="795" y="561" type="curve" smooth="yes"/>
      <point x="795" y="568"/>
      <point x="794" y="576"/>
      <point x="791" y="581" type="curve"/>
      <point x="736" y="597"/>
      <point x="664" y="611"/>
      <point x="577" y="611" type="curve" smooth="yes"/>
      <point x="477" y="611"/>
      <point x="404" y="581"/>
      <point x="374" y="551" type="curve" smooth="yes"/>
      <point x="357" y="534"/>
      <point x="349" y="514"/>
      <point x="346" y="491" type="curve" smooth="yes"/>
      <point x="336" y="404"/>
      <point x="329" y="307"/>
      <point x="329" y="199" type="curve" smooth="yes"/>
      <point x="329" y="72"/>
      <point x="335" y="22"/>
      <point x="341" y="-16" type="curve"/>
      <point x="361" y="-16"/>
      <point x="381" y="-13"/>
      <point x="395" y="-4" type="curve"/>
      <point x="379" y="77"/>
      <point x="376" y="209"/>
      <point x="376" y="291" type="curve" smooth="yes"/>
      <point x="376" y="361"/>
      <point x="380" y="416"/>
      <point x="384" y="469" type="curve" smooth="yes"/>
      <point x="386.379670532" y="495.176375855"/>
      <point x="391" y="517"/>
      <point x="411" y="531" type="curve" smooth="yes"/>
      <point x="435" y="548"/>
      <point x="465.305389222" y="561.0"/>
    </contour>
    <contour>
      <point x="693" y="0" type="move" name="blwm"/>
    </contour>
    <contour>
      <point x="604" y="0" type="move" name="haln"/>
    </contour>
    <contour>
      <point x="693" y="690" type="move" name="reph"/>
    </contour>
    <contour>
      <point x="693" y="690" type="move" name="chandrabindu"/>
    </contour>
  </outline>
</glyph>
<glyph name="bn_ekaar.b" format="1">
  <advance width="244"/>
  <outline>
    <contour>
      <point x="230" y="-63"/>
      <point x="264" y="-39"/>
      <point x="285" y="-1" type="curve"/>
      <point x="285" y="17"/>
      <point x="270" y="41"/>
      <point x="251" y="52" type="curve"/>
      <point x="221" y="0"/>
      <point x="204" y="-19"/>
      <point x="186" y="-19" type="curve" smooth="yes"/>
      <point x="147" y="-19"/>
      <point x="126" y="71"/>
      <point x="126" y="238" type="curve" smooth="yes"/>
      <point x="126" y="439"/>
      <point x="156" y="514"/>
      <point x="244" y="535" type="curve"/>
      <point x="246" y="542"/>
      <point x="247" y="551"/>
      <point x="247" y="559" type="curve" smooth="yes"/>
      <point x="247" y="568"/>
      <point x="246" y="576"/>
      <point x="244" y="581" type="curve"/>
      <point x="180" y="566"/>
      <point x="144" y="544"/>
      <point x="131" y="514" type="curve"/>
      <point x="119" y="512" type="line"/>
      <point x="90" y="465"/>
      <point x="70" y="349"/>
      <point x="70" y="229" type="curve" smooth="yes"/>
      <point x="70" y="52"/>
      <point x="120" y="-63"/>
      <point x="196" y="-63" type="curve" smooth="yes"/>
    </contour>
    <contour>
      <point x="149" y="466" type="line"/>
      <point x="149" y="550"/>
      <point x="91" y="586"/>
      <point x="48" y="586" type="curve" smooth="yes"/>
      <point x="32" y="586"/>
      <point x="15" y="584"/>
      <point x="0" y="581" type="curve"/>
      <point x="-3" y="576"/>
      <point x="-4" y="567"/>
      <point x="-4" y="559" type="curve" smooth="yes"/>
      <point x="-4" y="549"/>
      <point x="-2" y="540"/>
      <point x="0" y="535" type="curve"/>
      <point x="19" y="539"/>
      <point x="32" y="541"/>
      <point x="44" y="541" type="curve" smooth="yes"/>
      <point x="81" y="541"/>
      <point x="113" y="503"/>
      <point x="113" y="444" type="curve"/>
    </contour>
  </outline>
</glyph>
<glyph name="bn_gh_ba" format="1">
  <advance width="475"/>
  <outline>
    <contour>
      <point x="357" y="73" type="line"/>
      <point x="308.941180479" y="188.140921769"/>
      <point x="206" y="248"/>
      <point x="112" y="259" type="curve"/>
      <point x="115" y="230" type="line"/>
      <point x="272" y="352" type="line"/>
      <point x="273" y="371"/>
      <point x="268" y="390"/>
      <point x="257" y="405" type="curve"/>
      <point x="223" y="378"/>
      <point x="189" y="369"/>
      <point x="167" y="369" type="curve" smooth="yes"/>
      <point x="127" y="369"/>
      <point x="98" y="400"/>
      <point x="98" y="442" type="curve" smooth="yes"/>
      <point x="98" y="484"/>
      <point x="128" y="528"/>
      <point x="218" y="566" type="curve"/>
      <point x="146" y="583" type="line"/>
      <point x="80" y="540"/>
      <point x="49" y="500"/>
      <point x="49" y="443" type="curve" smooth="yes"/>
      <point x="49" y="374"/>
      <point x="97" y="336"/>
      <point x="163" y="332" type="curve" smooth="yes"/>
      <point x="212" y="329"/>
      <point x="240" y="348"/>
      <point x="250" y="355" type="curve"/>
      <point x="205" y="362" type="line"/>
      <point x="73" y="263" type="line"/>
      <point x="74" y="244"/>
      <point x="80" y="226"/>
      <point x="101" y="208" type="curve"/>
      <point x="197" y="199"/>
      <point x="298.948134871" y="132.126647408"/>
      <point x="342" y="27" type="curve"/>
    </contour>
    <contour>
      <point x="247" y="562" type="curve" smooth="yes"/>
      <point x="341" y="562"/>
      <point x="416" y="549"/>
      <point x="475" y="535" type="curve"/>
      <point x="477" y="541"/>
      <point x="479" y="552"/>
      <point x="479" y="562" type="curve" smooth="yes"/>
      <point x="479" y="569"/>
      <point x="478" y="576"/>
      <point x="475" y="581" type="curve"/>
      <point x="419" y="598"/>
      <point x="341" y="612"/>
      <point x="249" y="612" type="curve" smooth="yes"/>
      <point x="147" y="612"/>
      <point x="54" y="598"/>
      <point x="0" y="581" type="curve"/>
      <point x="-3" y="576"/>
      <point x="-5" y="568"/>
      <point x="-5" y="560" type="curve" smooth="yes"/>
      <point x="-5" y="551"/>
      <point x="-3" y="543"/>
      <point x="0" y="535" type="curve"/>
      <point x="56" y="549"/>
      <point x="146" y="562"/>
    </contour>
    <contour>
      <point x="441" y="-196" type="curve"/>
      <point x="400.391045289" y="-55.3543519759"/>
      <point x="395.0" y="162.748440748"/>
      <point x="395" y="282" type="curve" smooth="yes"/>
      <point x="395" y="437"/>
      <point x="398" y="475"/>
      <point x="410" y="572" type="curve"/>
      <point x="369" y="582" type="line"/>
      <point x="354" y="473"/>
      <point x="346" y="339"/>
      <point x="346" y="205" type="curve" smooth="yes"/>
      <point x="346.0" y="-47.1638554217"/>
      <point x="377.024934319" y="-134.18202053"/>
      <point x="387" y="-207" type="curve"/>
      <point x="407" y="-207"/>
      <point x="426" y="-205"/>
    </contour>
    <contour>
      <point x="401" y="-179" type="line"/>
      <point x="357.211956461" y="-98.7219201783"/>
      <point x="262" y="-62"/>
      <point x="171" y="-32" type="curve"/>
      <point x="172" y="-59" type="line"/>
      <point x="221" y="-24"/>
      <point x="315.848303044" y="13.4594744192"/>
      <point x="370" y="25" type="curve"/>
      <point x="363" y="77" type="line"/>
      <point x="272.0169214" y="48.1736780674"/>
      <point x="179" y="17"/>
      <point x="135" y="-19" type="curve"/>
      <point x="134.053228067" y="-37.9354386649"/>
      <point x="136" y="-58"/>
      <point x="149" y="-73" type="curve"/>
      <point x="245" y="-94"/>
      <point x="331.816665988" y="-126.347434905"/>
      <point x="387" y="-207" type="curve"/>
    </contour>
    <contour>
      <point x="406" y="-190" type="move" name="blwm"/>
    </contour>
    <contour>
      <point x="279" y="-187" type="move" name="haln"/>
    </contour>
    <contour>
      <point x="396" y="690" type="move" name="reph"/>
    </contour>
    <contour>
      <point x="396" y="690" type="move" name="chandrabindu"/>
    </contour>
  </outline>
</glyph>
<glyph name="bn_gh_ra" format="1">
  <advance width="475"/>
  <outline>
    <contour>
      <point x="368" y="73" type="line"/>
      <point x="319.674180562" y="188.780609069"/>
      <point x="210.164603768" y="247.512652751"/>
      <point x="112" y="259" type="curve"/>
      <point x="115" y="230" type="line"/>
      <point x="272" y="352" type="line"/>
      <point x="273" y="371"/>
      <point x="268" y="390"/>
      <point x="257" y="405" type="curve"/>
      <point x="223" y="378"/>
      <point x="189" y="369"/>
      <point x="167" y="369" type="curve" smooth="yes"/>
      <point x="127" y="369"/>
      <point x="98" y="400"/>
      <point x="98" y="442" type="curve" smooth="yes"/>
      <point x="98" y="484"/>
      <point x="128" y="528"/>
      <point x="218" y="566" type="curve"/>
      <point x="146" y="583" type="line"/>
      <point x="80" y="540"/>
      <point x="49" y="500"/>
      <point x="49" y="443" type="curve" smooth="yes"/>
      <point x="49" y="374"/>
      <point x="97" y="336"/>
      <point x="163" y="332" type="curve" smooth="yes"/>
      <point x="212" y="329"/>
      <point x="240" y="348"/>
      <point x="250" y="355" type="curve"/>
      <point x="205" y="362" type="line"/>
      <point x="73" y="263" type="line"/>
      <point x="74" y="244"/>
      <point x="80" y="226"/>
      <point x="101" y="208" type="curve"/>
      <point x="201.344393113" y="198.592713146"/>
      <point x="309.712645051" y="132.701680688"/>
      <point x="353" y="27" type="curve"/>
    </contour>
    <contour>
      <point x="247" y="562" type="curve" smooth="yes"/>
      <point x="341" y="562"/>
      <point x="416" y="549"/>
      <point x="475" y="535" type="curve"/>
      <point x="477" y="541"/>
      <point x="479" y="552"/>
      <point x="479" y="562" type="curve" smooth="yes"/>
      <point x="479" y="569"/>
      <point x="478" y="576"/>
      <point x="475" y="581" type="curve"/>
      <point x="419" y="598"/>
      <point x="341" y="612"/>
      <point x="249" y="612" type="curve" smooth="yes"/>
      <point x="147" y="612"/>
      <point x="54" y="598"/>
      <point x="0" y="581" type="curve"/>
      <point x="-3" y="576"/>
      <point x="-5" y="568"/>
      <point x="-5" y="560" type="curve" smooth="yes"/>
      <point x="-5" y="551"/>
      <point x="-3" y="543"/>
      <point x="0" y="535" type="curve"/>
      <point x="56" y="549"/>
      <point x="146" y="562"/>
    </contour>
    <contour>
      <point x="441" y="-196" type="curve"/>
      <point x="400.391045289" y="-55.3543519759"/>
      <point x="395.0" y="162.748440748"/>
      <point x="395" y="282" type="curve" smooth="yes"/>
      <point x="395" y="437"/>
      <point x="398" y="475"/>
      <point x="410" y="572" type="curve"/>
      <point x="369" y="582" type="line"/>
      <point x="354" y="473"/>
      <point x="346" y="339"/>
      <point x="346" y="205" type="curve" smooth="yes"/>
      <point x="346.0" y="-47.1638554217"/>
      <point x="377.024934319" y="-134.18202053"/>
      <point x="387" y="-207" type="curve"/>
      <point x="407" y="-207"/>
      <point x="426" y="-205"/>
    </contour>
    <contour>
      <point x="401" y="-178" type="line"/>
      <point x="374" y="-125"/>
      <point x="339" y="-99"/>
      <point x="282" y="-99" type="curve" smooth="yes"/>
      <point x="227" y="-99"/>
      <point x="185" y="-116"/>
      <point x="142" y="-116" type="curve" smooth="yes"/>
      <point x="102" y="-116"/>
      <point x="71" y="-96"/>
      <point x="71" y="-49" type="curve" smooth="yes"/>
      <point x="71" y="-20"/>
      <point x="82" y="12"/>
      <point x="94" y="34" type="curve"/>
      <point x="84" y="43"/>
      <point x="72" y="49"/>
      <point x="54" y="50" type="curve"/>
      <point x="39" y="19"/>
      <point x="24" y="-16"/>
      <point x="24" y="-53" type="curve" smooth="yes"/>
      <point x="24" y="-117"/>
      <point x="64" y="-165"/>
      <point x="136" y="-165" type="curve" smooth="yes"/>
      <point x="187" y="-165"/>
      <point x="236" y="-148"/>
      <point x="286" y="-148" type="curve" smooth="yes"/>
      <point x="346" y="-148"/>
      <point x="366" y="-183"/>
      <point x="387" y="-207" type="curve"/>
    </contour>
    <contour>
      <point x="404.0" y="-189.0" type="move" name="blwm"/>
    </contour>
    <contour>
      <point x="314" y="-192" type="move" name="haln"/>
    </contour>
    <contour>
      <point x="394.0" y="690.0" type="move" name="reph"/>
    </contour>
    <contour>
      <point x="394.0" y="690.0" type="move" name="chandrabindu"/>
    </contour>
  </outline>
</glyph>
<glyph name="bn_h_la" format="1">
  <advance width="442"/>
  <outline>
    <contour>
      <point x="140" y="-197" type="curve"/>
      <point x="126" y="-199"/>
      <point x="114" y="-200"/>
      <point x="103" y="-200" type="curve" smooth="yes"/>
      <point x="55" y="-200"/>
      <point x="20" y="-175"/>
      <point x="20" y="-130" type="curve" smooth="yes"/>
      <point x="20" y="-89"/>
      <point x="40" y="-63"/>
      <point x="73" y="-63" type="curve" smooth="yes"/>
      <point x="112" y="-63"/>
      <point x="147" y="-99"/>
      <point x="174" y="-152" type="curve"/>
      <point x="208" y="-116" type="line"/>
      <point x="171" y="-48"/>
      <point x="127" y="-8"/>
      <point x="75" y="-8" type="curve" smooth="yes"/>
      <point x="19" y="-8"/>
      <point x="-21" y="-54"/>
      <point x="-21" y="-121" type="curve" smooth="yes"/>
      <point x="-21" y="-201"/>
      <point x="46" y="-259"/>
      <point x="123" y="-256" type="curve"/>
      <point x="133" y="-240"/>
      <point x="140" y="-216"/>
    </contour>
    <contour>
      <point x="232" y="-148" type="curve"/>
      <point x="187" y="-68" type="line"/>
      <point x="144" y="-98" type="line"/>
      <point x="184" y="-170" type="line"/>
      <point x="203" y="-165"/>
      <point x="220" y="-157"/>
    </contour>
    <contour>
      <point x="245" y="-8" type="curve" smooth="yes"/>
      <point x="210" y="-8"/>
      <point x="178" y="-38"/>
      <point x="174" y="-95" type="curve"/>
      <point x="176" y="-130" type="line"/>
      <point x="224" y="-135" type="line"/>
      <point x="214" y="-118"/>
      <point x="212" y="-113"/>
      <point x="212" y="-104" type="curve" smooth="yes"/>
      <point x="212" y="-78"/>
      <point x="228" y="-59"/>
      <point x="250" y="-59" type="curve" smooth="yes"/>
      <point x="291" y="-59"/>
      <point x="328" y="-116"/>
      <point x="344" y="-256" type="curve"/>
      <point x="338" y="-93" type="line"/>
      <point x="333" y="-46"/>
      <point x="292" y="-8"/>
    </contour>
    <contour>
      <point x="397" y="-247" type="curve"/>
      <point x="379" y="-153"/>
      <point x="380" y="-95"/>
      <point x="384" y="-8" type="curve"/>
      <point x="340" y="1" type="line"/>
      <point x="333" y="-78"/>
      <point x="340" y="-220"/>
      <point x="344" y="-256" type="curve"/>
      <point x="364" y="-256"/>
      <point x="382" y="-254"/>
    </contour>
    <contour>
      <point x="464" y="-77" type="curve"/>
      <point x="361" y="28"/>
      <point x="251" y="104"/>
      <point x="143" y="152" type="curve"/>
      <point x="129" y="129" type="line"/>
      <point x="155" y="124"/>
      <point x="181" y="122"/>
      <point x="202" y="122" type="curve" smooth="yes"/>
      <point x="307" y="122"/>
      <point x="376" y="173"/>
      <point x="376" y="270" type="curve" smooth="yes"/>
      <point x="376" y="386"/>
      <point x="279" y="498"/>
      <point x="171" y="498" type="curve" smooth="yes"/>
      <point x="113" y="498"/>
      <point x="70" y="466"/>
      <point x="70" y="408" type="curve" smooth="yes"/>
      <point x="70" y="374"/>
      <point x="84" y="342"/>
      <point x="113" y="308" type="curve"/>
      <point x="129" y="307"/>
      <point x="154" y="310"/>
      <point x="170" y="317" type="curve"/>
      <point x="144" y="341"/>
      <point x="115" y="372"/>
      <point x="115" y="407" type="curve" smooth="yes"/>
      <point x="115" y="437"/>
      <point x="136" y="457"/>
      <point x="175" y="457" type="curve" smooth="yes"/>
      <point x="254" y="457"/>
      <point x="328" y="368"/>
      <point x="328" y="281" type="curve" smooth="yes"/>
      <point x="328" y="212"/>
      <point x="281" y="171"/>
      <point x="199" y="171" type="curve" smooth="yes"/>
      <point x="151" y="171"/>
      <point x="95" y="184"/>
      <point x="34" y="207" type="curve"/>
      <point x="54" y="137" type="line"/>
      <point x="193" y="94"/>
      <point x="313" y="15"/>
      <point x="432" y="-118" type="curve"/>
      <point x="444" y="-105"/>
      <point x="455" y="-92"/>
    </contour>
    <contour>
      <point x="224" y="561" type="curve" smooth="yes"/>
      <point x="302" y="561"/>
      <point x="393" y="548"/>
      <point x="442" y="535" type="curve"/>
      <point x="444" y="542"/>
      <point x="445" y="552"/>
      <point x="445" y="561" type="curve" smooth="yes"/>
      <point x="445" y="569"/>
      <point x="445" y="576"/>
      <point x="442" y="581" type="curve"/>
      <point x="396" y="597"/>
      <point x="301" y="611"/>
      <point x="225" y="611" type="curve" smooth="yes"/>
      <point x="149" y="611"/>
      <point x="56" y="597"/>
      <point x="0" y="581" type="curve"/>
      <point x="-4" y="576"/>
      <point x="-6" y="569"/>
      <point x="-6" y="560" type="curve" smooth="yes"/>
      <point x="-6" y="552"/>
      <point x="-4" y="543"/>
      <point x="0" y="535" type="curve"/>
      <point x="58" y="548"/>
      <point x="149" y="561"/>
    </contour>
    <contour>
      <point x="219" y="-215" type="move" name="blwm"/>
    </contour>
    <contour>
      <point x="280" y="750" type="move" name="reph"/>
    </contour>
    <contour>
      <point x="280" y="750" type="move" name="chandrabindu"/>
    </contour>
    <contour>
      <point x="189" y="-215" type="move" name="haln"/>
    </contour>
  </outline>
</glyph>
<glyph name="bn_h_nna" format="1">
  <advance width="594"/>
  <outline>
    <contour>
      <point x="444" y="-105"/>
      <point x="455" y="-92"/>
      <point x="464" y="-77" type="curve"/>
      <point x="361" y="28"/>
      <point x="251" y="104"/>
      <point x="143" y="152" type="curve"/>
      <point x="129" y="129" type="line"/>
      <point x="155" y="124"/>
      <point x="181" y="122"/>
      <point x="202" y="122" type="curve" smooth="yes"/>
      <point x="307" y="122"/>
      <point x="376" y="173"/>
      <point x="376" y="270" type="curve" smooth="yes"/>
      <point x="376" y="386"/>
      <point x="279" y="498"/>
      <point x="171" y="498" type="curve" smooth="yes"/>
      <point x="113" y="498"/>
      <point x="70" y="466"/>
      <point x="70" y="408" type="curve" smooth="yes"/>
      <point x="70" y="374"/>
      <point x="84" y="342"/>
      <point x="113" y="308" type="curve"/>
      <point x="129" y="307"/>
      <point x="154" y="310"/>
      <point x="170" y="317" type="curve"/>
      <point x="144" y="341"/>
      <point x="115" y="372"/>
      <point x="115" y="407" type="curve" smooth="yes"/>
      <point x="115" y="437"/>
      <point x="136" y="457"/>
      <point x="175" y="457" type="curve" smooth="yes"/>
      <point x="254" y="457"/>
      <point x="328" y="368"/>
      <point x="328" y="281" type="curve" smooth="yes"/>
      <point x="328" y="212"/>
      <point x="281" y="171"/>
      <point x="199" y="171" type="curve" smooth="yes"/>
      <point x="151" y="171"/>
      <point x="95" y="184"/>
      <point x="34" y="207" type="curve"/>
      <point x="54" y="137" type="line"/>
      <point x="193" y="94"/>
      <point x="313" y="15"/>
      <point x="432" y="-118" type="curve"/>
    </contour>
    <contour>
      <point x="77.977530614" y="552.477722379"/>
      <point x="202.214285714" y="561.0"/>
      <point x="304" y="561" type="curve" smooth="yes"/>
      <point x="407.459459459" y="561.0"/>
      <point x="528.703978805" y="552.323434195"/>
      <point x="594" y="535" type="curve"/>
      <point x="596" y="542"/>
      <point x="597" y="552"/>
      <point x="597" y="561" type="curve" smooth="yes"/>
      <point x="597" y="569"/>
      <point x="597" y="576"/>
      <point x="594" y="581" type="curve"/>
      <point x="532.640631198" y="602.342389148"/>
      <point x="406.032520325" y="611.0"/>
      <point x="305" y="611" type="curve" smooth="yes"/>
      <point x="201.977777778" y="611.0"/>
      <point x="74.7838821293" y="602.366823466"/>
      <point x="0" y="581" type="curve"/>
      <point x="-4" y="576"/>
      <point x="-6" y="569"/>
      <point x="-6" y="560" type="curve" smooth="yes"/>
      <point x="-6" y="552"/>
      <point x="-4" y="543"/>
      <point x="0" y="535" type="curve"/>
    </contour>
    <contour>
      <point x="594" y="387"/>
      <point x="543" y="453"/>
      <point x="469" y="453" type="curve" smooth="yes"/>
      <point x="417.541666667" y="453.0"/>
      <point x="373.646618611" y="417.394454583"/>
      <point x="355" y="355" type="curve"/>
      <point x="368" y="307" type="line"/>
      <point x="382.210301521" y="370.235841768"/>
      <point x="421.822580645" y="404.0"/>
      <point x="462" y="404" type="curve" smooth="yes"/>
      <point x="512" y="404"/>
      <point x="550" y="360"/>
      <point x="550" y="295" type="curve" smooth="yes"/>
      <point x="550" y="243"/>
      <point x="526" y="213"/>
      <point x="496" y="213" type="curve" smooth="yes"/>
      <point x="461" y="213"/>
      <point x="444" y="252"/>
      <point x="438" y="284" type="curve"/>
      <point x="425" y="271"/>
      <point x="413" y="247"/>
      <point x="409" y="230" type="curve"/>
      <point x="424" y="194"/>
      <point x="453" y="166"/>
      <point x="494" y="166" type="curve" smooth="yes"/>
      <point x="549" y="166"/>
      <point x="594" y="218"/>
      <point x="594" y="300" type="curve" smooth="yes"/>
    </contour>
    <contour>
      <point x="118" y="0" type="move" name="haln"/>
    </contour>
    <contour>
      <point x="312" y="750" type="move" name="reph"/>
    </contour>
    <contour>
      <point x="312" y="750" type="move" name="chandrabindu"/>
    </contour>
  </outline>
</glyph>
<glyph name="bn_h_ra" format="1">
  <advance width="442"/>
  <outline>
    <contour>
      <point x="334" y="-234" type="curve"/>
      <point x="349" y="-234"/>
      <point x="363" y="-232"/>
      <point x="378" y="-225" type="curve"/>
      <point x="382" y="-162"/>
      <point x="387" y="-95"/>
      <point x="390" y="-21" type="curve"/>
      <point x="344" y="-18" type="line"/>
      <point x="341" y="-98"/>
      <point x="335" y="-173"/>
    </contour>
    <contour>
      <point x="348" y="-205" type="line"/>
      <point x="316" y="-141"/>
      <point x="289" y="-106"/>
      <point x="235" y="-106" type="curve" smooth="yes"/>
      <point x="192" y="-106"/>
      <point x="154" y="-117"/>
      <point x="121" y="-117" type="curve" smooth="yes"/>
      <point x="87" y="-117"/>
      <point x="60" y="-100"/>
      <point x="60" y="-60" type="curve" smooth="yes"/>
      <point x="60" y="-36"/>
      <point x="70" y="-9"/>
      <point x="80" y="10" type="curve"/>
      <point x="70" y="19"/>
      <point x="58" y="25"/>
      <point x="40" y="26" type="curve"/>
      <point x="27" y="-1"/>
      <point x="13" y="-32"/>
      <point x="13" y="-64" type="curve" smooth="yes"/>
      <point x="13" y="-122"/>
      <point x="49" y="-166"/>
      <point x="115" y="-166" type="curve" smooth="yes"/>
      <point x="154" y="-166"/>
      <point x="200" y="-155"/>
      <point x="239" y="-155" type="curve" smooth="yes"/>
      <point x="295" y="-155"/>
      <point x="309" y="-205"/>
      <point x="334" y="-234" type="curve"/>
    </contour>
    <contour>
      <point x="464" y="-77" type="curve"/>
      <point x="361" y="28"/>
      <point x="251" y="104"/>
      <point x="143" y="152" type="curve"/>
      <point x="129" y="129" type="line"/>
      <point x="155" y="124"/>
      <point x="181" y="122"/>
      <point x="202" y="122" type="curve" smooth="yes"/>
      <point x="307" y="122"/>
      <point x="376" y="173"/>
      <point x="376" y="270" type="curve" smooth="yes"/>
      <point x="376" y="386"/>
      <point x="279" y="498"/>
      <point x="171" y="498" type="curve" smooth="yes"/>
      <point x="113" y="498"/>
      <point x="70" y="466"/>
      <point x="70" y="408" type="curve" smooth="yes"/>
      <point x="70" y="374"/>
      <point x="84" y="342"/>
      <point x="113" y="308" type="curve"/>
      <point x="129" y="307"/>
      <point x="154" y="310"/>
      <point x="170" y="317" type="curve"/>
      <point x="144" y="341"/>
      <point x="115" y="372"/>
      <point x="115" y="407" type="curve" smooth="yes"/>
      <point x="115" y="437"/>
      <point x="136" y="457"/>
      <point x="175" y="457" type="curve" smooth="yes"/>
      <point x="254" y="457"/>
      <point x="328" y="368"/>
      <point x="328" y="281" type="curve" smooth="yes"/>
      <point x="328" y="212"/>
      <point x="281" y="171"/>
      <point x="199" y="171" type="curve" smooth="yes"/>
      <point x="151" y="171"/>
      <point x="95" y="184"/>
      <point x="34" y="207" type="curve"/>
      <point x="54" y="137" type="line"/>
      <point x="193" y="94"/>
      <point x="313" y="15"/>
      <point x="432" y="-118" type="curve"/>
      <point x="444" y="-105"/>
      <point x="455" y="-92"/>
    </contour>
    <contour>
      <point x="224" y="561" type="curve" smooth="yes"/>
      <point x="302" y="561"/>
      <point x="393" y="548"/>
      <point x="442" y="535" type="curve"/>
      <point x="444" y="542"/>
      <point x="445" y="552"/>
      <point x="445" y="561" type="curve" smooth="yes"/>
      <point x="445" y="569"/>
      <point x="445" y="576"/>
      <point x="442" y="581" type="curve"/>
      <point x="396" y="597"/>
      <point x="301" y="611"/>
      <point x="225" y="611" type="curve" smooth="yes"/>
      <point x="149" y="611"/>
      <point x="56" y="597"/>
      <point x="0" y="581" type="curve"/>
      <point x="-4" y="576"/>
      <point x="-6" y="569"/>
      <point x="-6" y="560" type="curve" smooth="yes"/>
      <point x="-6" y="552"/>
      <point x="-4" y="543"/>
      <point x="0" y="535" type="curve"/>
      <point x="58" y="548"/>
      <point x="149" y="561"/>
    </contour>
    <contour>
      <point x="214" y="-215" type="move" name="blwm"/>
    </contour>
    <contour>
      <point x="184" y="-215" type="move" name="haln"/>
    </contour>
    <contour>
      <point x="280" y="750" type="move" name="reph"/>
    </contour>
    <contour>
      <point x="280" y="750" type="move" name="chandrabindu"/>
    </contour>
  </outline>
</glyph>
<glyph name="bn_j_ba" format="1">
  <advance width="738"/>
  <outline>
    <contour>
      <point x="372" y="23"/>
      <point x="424" y="101"/>
      <point x="424" y="222" type="curve" smooth="yes"/>
      <point x="424" y="269"/>
      <point x="416" y="320"/>
      <point x="405" y="363" type="curve"/>
      <point x="397" y="374"/>
      <point x="385" y="387"/>
      <point x="374" y="393" type="curve"/>
      <point x="333" y="348"/>
      <point x="284" y="317"/>
      <point x="252" y="317" type="curve" smooth="yes"/>
      <point x="231" y="317"/>
      <point x="206" y="328"/>
      <point x="206" y="372" type="curve" smooth="yes"/>
      <point x="206.0" y="431.16"/>
      <point x="247.0" y="522.0"/>
      <point x="290" y="576" type="curve"/>
      <point x="240" y="581" type="line"/>
      <point x="201" y="531"/>
      <point x="163" y="442"/>
      <point x="163" y="381" type="curve" smooth="yes"/>
      <point x="163" y="310"/>
      <point x="214" y="269"/>
      <point x="264" y="269" type="curve" smooth="yes"/>
      <point x="309" y="269"/>
      <point x="356" y="308"/>
      <point x="395" y="348" type="curve"/>
      <point x="369" y="365" type="line"/>
      <point x="378" y="329"/>
      <point x="384" y="281"/>
      <point x="384" y="239" type="curve" smooth="yes"/>
      <point x="384" y="131"/>
      <point x="349" y="77"/>
      <point x="280" y="77" type="curve" smooth="yes"/>
      <point x="181" y="77"/>
      <point x="112" y="183"/>
      <point x="50" y="452" type="curve"/>
      <point x="36" y="448"/>
      <point x="21" y="443"/>
      <point x="8" y="436" type="curve"/>
      <point x="52" y="242"/>
      <point x="119" y="23"/>
      <point x="279" y="23" type="curve" smooth="yes"/>
    </contour>
    <contour>
      <point x="67.1003344973" y="550.976270118"/>
      <point x="200.39614561" y="576.0"/>
      <point x="367" y="576" type="curve" smooth="yes"/>
      <point x="534.018450185" y="576.0"/>
      <point x="663.867601214" y="551.292834898"/>
      <point x="738" y="535" type="curve"/>
      <point x="740" y="541"/>
      <point x="742" y="551"/>
      <point x="742" y="561" type="curve" smooth="yes"/>
      <point x="742" y="568"/>
      <point x="741" y="576"/>
      <point x="738" y="581" type="curve"/>
      <point x="670.840668326" y="600.069933685"/>
      <point x="538.692883895" y="626.0"/>
      <point x="371" y="626" type="curve" smooth="yes"/>
      <point x="202.435244161" y="626.0"/>
      <point x="66.0154275114" y="599.516522351"/>
      <point x="0" y="581" type="curve"/>
      <point x="-3" y="576"/>
      <point x="-5" y="569"/>
      <point x="-5" y="561" type="curve" smooth="yes"/>
      <point x="-5" y="552"/>
      <point x="-3" y="543"/>
      <point x="0" y="535" type="curve"/>
    </contour>
    <contour>
      <point x="609" y="-112" type="line"/>
      <point x="542" y="-86"/>
      <point x="472" y="-62"/>
      <point x="401" y="-42" type="curve"/>
      <point x="402" y="-69" type="line"/>
      <point x="451" y="-34"/>
      <point x="546" y="3"/>
      <point x="600" y="15" type="curve"/>
      <point x="593" y="67" type="line"/>
      <point x="502" y="38"/>
      <point x="409" y="7"/>
      <point x="365" y="-29" type="curve"/>
      <point x="364" y="-48"/>
      <point x="366" y="-68"/>
      <point x="379" y="-83" type="curve"/>
      <point x="454" y="-99"/>
      <point x="526" y="-118"/>
      <point x="595" y="-140" type="curve"/>
    </contour>
    <contour>
      <point x="283" y="582" type="line"/>
      <point x="323.315944309" y="502.429057285"/>
      <point x="391.398190045" y="429.0"/>
      <point x="509" y="429" type="curve" smooth="yes"/>
      <point x="535" y="429"/>
      <point x="567" y="435"/>
      <point x="595" y="451" type="curve"/>
      <point x="583" y="459" type="line"/>
      <point x="559" y="388"/>
      <point x="549" y="303"/>
      <point x="549" y="219" type="curve" smooth="yes"/>
      <point x="549" y="93"/>
      <point x="565" y="-31"/>
      <point x="595" y="-140" type="curve"/>
      <point x="613" y="-140"/>
      <point x="637" y="-133"/>
      <point x="651" y="-125" type="curve"/>
      <point x="616" y="2"/>
      <point x="599" y="128"/>
      <point x="599" y="256" type="curve" smooth="yes"/>
      <point x="599" y="326"/>
      <point x="608" y="394"/>
      <point x="629" y="459" type="curve"/>
      <point x="623" y="478"/>
      <point x="611" y="496"/>
      <point x="597" y="507" type="curve"/>
      <point x="566" y="488"/>
      <point x="532" y="479"/>
      <point x="502" y="479" type="curve" smooth="yes"/>
      <point x="401" y="479"/>
      <point x="354" y="527"/>
      <point x="312" y="611" type="curve"/>
    </contour>
    <contour>
      <point x="404" y="690" type="move" name="reph"/>
    </contour>
    <contour>
      <point x="404" y="690" type="move" name="chandrabindu"/>
    </contour>
    <contour>
      <point x="610" y="-121" type="move" name="blwm"/>
    </contour>
    <contour>
      <point x="470" y="-124" type="move" name="haln"/>
    </contour>
  </outline>
</glyph>
<glyph name="bn_jha.half" format="1">
  <advance width="530"/>
  <outline>
    <contour>
      <point x="291" y="147"/>
      <point x="309" y="149"/>
      <point x="321" y="154" type="curve"/>
      <point x="312" y="187"/>
      <point x="309" y="231"/>
      <point x="309" y="273" type="curve" smooth="yes"/>
      <point x="309" y="428"/>
      <point x="346" y="559"/>
      <point x="346" y="571" type="curve" smooth="yes"/>
      <point x="346" y="588"/>
      <point x="338" y="599"/>
      <point x="320" y="602" type="curve" smooth="yes"/>
      <point x="293" y="607"/>
      <point x="253" y="612"/>
      <point x="213" y="612" type="curve" smooth="yes"/>
      <point x="142" y="612"/>
      <point x="49" y="598"/>
      <point x="0" y="581" type="curve"/>
      <point x="-2" y="576"/>
      <point x="-3" y="569"/>
      <point x="-3" y="562" type="curve" smooth="yes"/>
      <point x="-3" y="552"/>
      <point x="-2" y="541"/>
      <point x="0" y="535" type="curve"/>
      <point x="51" y="549"/>
      <point x="139" y="562"/>
      <point x="213" y="562" type="curve" smooth="yes"/>
      <point x="250" y="562"/>
      <point x="286" y="559"/>
      <point x="319" y="553" type="curve"/>
      <point x="311" y="578" type="line"/>
      <point x="281" y="434"/>
      <point x="264" y="332"/>
      <point x="264" y="232" type="curve" smooth="yes"/>
      <point x="264" y="189"/>
      <point x="268" y="166"/>
      <point x="274" y="147" type="curve"/>
    </contour>
    <contour>
      <point x="287" y="167" type="line"/>
      <point x="239" y="272"/>
      <point x="152" y="330"/>
      <point x="61" y="360" type="curve"/>
      <point x="65" y="341" type="line"/>
      <point x="124" y="392"/>
      <point x="242" y="451"/>
      <point x="307" y="469" type="curve"/>
      <point x="312" y="510" type="line"/>
      <point x="206" y="477"/>
      <point x="84" y="414"/>
      <point x="28" y="365" type="curve"/>
      <point x="29" y="350"/>
      <point x="32" y="339"/>
      <point x="49" y="323" type="curve"/>
      <point x="141" y="304"/>
      <point x="217" y="249"/>
      <point x="274" y="147" type="curve"/>
    </contour>
    <contour>
      <point x="469" y="193" type="line"/>
      <point x="427" y="266"/>
      <point x="365" y="315"/>
      <point x="302" y="344" type="curve"/>
      <point x="299" y="312" type="line"/>
      <point x="358" y="285"/>
      <point x="411" y="241"/>
      <point x="458" y="171" type="curve"/>
    </contour>
    <contour>
      <point x="475" y="171"/>
      <point x="492" y="174"/>
      <point x="505" y="180" type="curve"/>
      <point x="473" y="244"/>
      <point x="456" y="326"/>
      <point x="456" y="421" type="curve" smooth="yes"/>
      <point x="456" y="439"/>
      <point x="456" y="443"/>
      <point x="457" y="476" type="curve" smooth="yes"/>
      <point x="457" y="493"/>
      <point x="461" y="503"/>
      <point x="473" y="511" type="curve" smooth="yes"/>
      <point x="484" y="518"/>
      <point x="502" y="527"/>
      <point x="530" y="535" type="curve"/>
      <point x="533" y="539"/>
      <point x="535" y="549"/>
      <point x="535" y="559" type="curve" smooth="yes"/>
      <point x="535" y="568"/>
      <point x="533" y="577"/>
      <point x="530" y="581" type="curve"/>
      <point x="488" y="570"/>
      <point x="465" y="558"/>
      <point x="450" y="549" type="curve" smooth="yes"/>
      <point x="431" y="538"/>
      <point x="421" y="523"/>
      <point x="421" y="493" type="curve" smooth="yes"/>
      <point x="421" y="445"/>
      <point x="419" y="431"/>
      <point x="419" y="412" type="curve" smooth="yes"/>
      <point x="419" y="315"/>
      <point x="432" y="221"/>
      <point x="458" y="171" type="curve"/>
    </contour>
  </outline>
</glyph>
<glyph name="bn_k_ra.alt01" format="1">
  <advance width="676"/>
  <outline>
    <contour>
      <point x="404" y="-7" type="line"/>
      <point x="384" y="170"/>
      <point x="248" y="254"/>
      <point x="150" y="292" type="curve"/>
      <point x="157" y="266" type="line"/>
      <point x="217" y="339"/>
      <point x="342" y="423"/>
      <point x="413" y="451" type="curve"/>
      <point x="416" y="512" type="line"/>
      <point x="300" y="462"/>
      <point x="170" y="370"/>
      <point x="112" y="299" type="curve"/>
      <point x="114" y="279"/>
      <point x="119" y="261"/>
      <point x="139" y="242" type="curve"/>
      <point x="237" y="216"/>
      <point x="358" y="135"/>
      <point x="386" y="-36" type="curve"/>
    </contour>
    <contour>
      <point x="418" y="-224"/>
      <point x="436" y="-222"/>
      <point x="451" y="-215" type="curve"/>
      <point x="427" y="-75"/>
      <point x="427" y="158"/>
      <point x="427" y="283" type="curve" smooth="yes"/>
      <point x="427" y="407"/>
      <point x="430" y="475"/>
      <point x="440" y="572" type="curve"/>
      <point x="399" y="582" type="line"/>
      <point x="385" y="443"/>
      <point x="379" y="339"/>
      <point x="379" y="203" type="curve" smooth="yes"/>
      <point x="379" y="-56"/>
      <point x="390" y="-150"/>
      <point x="398" y="-224" type="curve"/>
    </contour>
    <contour>
      <point x="604" y="172"/>
      <point x="649" y="235"/>
      <point x="649" y="303" type="curve" smooth="yes"/>
      <point x="649" y="390"/>
      <point x="572" y="469"/>
      <point x="426" y="501" type="curve"/>
      <point x="421" y="446" type="line"/>
      <point x="525" y="427"/>
      <point x="613" y="379"/>
      <point x="613" y="303" type="curve" smooth="yes"/>
      <point x="613" y="251"/>
      <point x="575" y="215"/>
      <point x="514" y="192" type="curve"/>
      <point x="523" y="167"/>
      <point x="540" y="150"/>
      <point x="555" y="146" type="curve"/>
    </contour>
    <contour>
      <point x="91" y="553"/>
      <point x="203" y="566"/>
      <point x="332" y="566" type="curve" smooth="yes"/>
      <point x="458" y="566"/>
      <point x="587" y="553"/>
      <point x="676" y="535" type="curve"/>
      <point x="678" y="541"/>
      <point x="681" y="550"/>
      <point x="681" y="562" type="curve" smooth="yes"/>
      <point x="681" y="570"/>
      <point x="679" y="576"/>
      <point x="676" y="581" type="curve"/>
      <point x="598" y="602"/>
      <point x="464" y="616"/>
      <point x="336" y="616" type="curve" smooth="yes"/>
      <point x="206" y="616"/>
      <point x="88" y="602"/>
      <point x="0" y="581" type="curve"/>
      <point x="-3" y="576"/>
      <point x="-5" y="568"/>
      <point x="-5" y="560" type="curve" smooth="yes"/>
      <point x="-5" y="551"/>
      <point x="-3" y="542"/>
      <point x="0" y="535" type="curve"/>
    </contour>
    <contour>
      <point x="412" y="-195" type="line"/>
      <point x="385" y="-142"/>
      <point x="350" y="-116"/>
      <point x="293" y="-116" type="curve" smooth="yes"/>
      <point x="238.294117647" y="-116.0"/>
      <point x="196" y="-133"/>
      <point x="153" y="-133" type="curve" smooth="yes"/>
      <point x="113" y="-133"/>
      <point x="82" y="-113"/>
      <point x="82" y="-66" type="curve" smooth="yes"/>
      <point x="82" y="-37"/>
      <point x="93" y="-5"/>
      <point x="105" y="17" type="curve"/>
      <point x="95" y="26"/>
      <point x="83" y="32"/>
      <point x="65" y="33" type="curve"/>
      <point x="50" y="2"/>
      <point x="35" y="-33"/>
      <point x="35" y="-70" type="curve" smooth="yes"/>
      <point x="35" y="-134"/>
      <point x="75" y="-182"/>
      <point x="147" y="-182" type="curve" smooth="yes"/>
      <point x="198" y="-182"/>
      <point x="247.222222222" y="-165.0"/>
      <point x="297" y="-165" type="curve" smooth="yes"/>
      <point x="357" y="-165"/>
      <point x="377" y="-200"/>
      <point x="398" y="-224" type="curve"/>
    </contour>
    <contour>
      <point x="413" y="-210" type="move" name="blwm"/>
    </contour>
    <contour>
      <point x="298" y="-211" type="move" name="haln"/>
    </contour>
    <contour>
      <point x="431" y="690" type="move" name="reph"/>
    </contour>
    <contour>
      <point x="431" y="690" type="move" name="chandrabindu"/>
    </contour>
  </outline>
</glyph>
<glyph name="bn_kh_ra" format="1">
  <advance width="526"/>
  <outline>
    <contour>
      <point x="368" y="10" type="line"/>
      <point x="326" y="142"/>
      <point x="256" y="257"/>
      <point x="140" y="286" type="curve"/>
      <point x="140" y="249" type="line"/>
      <point x="204" y="278" type="line" smooth="yes"/>
      <point x="294" y="319"/>
      <point x="346" y="379"/>
      <point x="346" y="446" type="curve" smooth="yes"/>
      <point x="346" y="484"/>
      <point x="336" y="512"/>
      <point x="321" y="533" type="curve"/>
      <point x="284" y="550" type="line"/>
      <point x="248" y="495"/>
      <point x="195" y="466"/>
      <point x="155" y="466" type="curve" smooth="yes"/>
      <point x="117" y="466"/>
      <point x="100" y="482"/>
      <point x="100" y="524" type="curve" smooth="yes"/>
      <point x="100" y="544"/>
      <point x="106" y="565"/>
      <point x="117" y="581" type="curve"/>
      <point x="97" y="581"/>
      <point x="75" y="577"/>
      <point x="60" y="571" type="curve"/>
      <point x="52" y="556"/>
      <point x="48" y="537"/>
      <point x="48" y="515" type="curve" smooth="yes"/>
      <point x="48" y="449"/>
      <point x="92" y="413"/>
      <point x="155" y="413" type="curve" smooth="yes"/>
      <point x="204" y="413"/>
      <point x="269" y="450"/>
      <point x="308" y="513" type="curve"/>
      <point x="286" y="525" type="line"/>
      <point x="298" y="507"/>
      <point x="304" y="490"/>
      <point x="304" y="467" type="curve" smooth="yes"/>
      <point x="304" y="411"/>
      <point x="268" y="372"/>
      <point x="184" y="329" type="curve" smooth="yes"/>
      <point x="106" y="289" type="line"/>
      <point x="107" y="270"/>
      <point x="120" y="249"/>
      <point x="137" y="236" type="curve"/>
      <point x="232.0" y="212.0"/>
      <point x="292" y="115"/>
      <point x="343" y="-22" type="curve"/>
    </contour>
    <contour>
      <point x="387" y="-60"/>
      <point x="466" y="237"/>
      <point x="466" y="476" type="curve" smooth="yes"/>
      <point x="466" y="499"/>
      <point x="468" y="512"/>
      <point x="479" y="518" type="curve" smooth="yes"/>
      <point x="488" y="523"/>
      <point x="502" y="529"/>
      <point x="526" y="535" type="curve"/>
      <point x="529" y="539"/>
      <point x="531" y="549"/>
      <point x="531" y="559" type="curve" smooth="yes"/>
      <point x="531" y="568"/>
      <point x="529" y="577"/>
      <point x="526" y="581" type="curve"/>
      <point x="490" y="572"/>
      <point x="464" y="563"/>
      <point x="445" y="551" type="curve" smooth="yes"/>
      <point x="426" y="539"/>
      <point x="420" y="516"/>
      <point x="420" y="490" type="curve" smooth="yes"/>
      <point x="420" y="479"/>
      <point x="422" y="451"/>
      <point x="422" y="425" type="curve" smooth="yes"/>
      <point x="422" y="267"/>
      <point x="382" y="114"/>
      <point x="356" y="15" type="curve"/>
      <point x="266" y="-228" type="line"/>
      <point x="279" y="-236"/>
      <point x="297" y="-242"/>
      <point x="317" y="-242" type="curve"/>
    </contour>
    <contour>
      <point x="295" y="-197" type="line"/>
      <point x="295.0" y="-67.358974359"/>
      <point x="241.142857143" y="-39.0"/>
      <point x="191" y="-39" type="curve" smooth="yes"/>
      <point x="148.781818182" y="-39.0"/>
      <point x="116.86440678" y="-46.0"/>
      <point x="83" y="-46" type="curve" smooth="yes"/>
      <point x="60" y="-46"/>
      <point x="42" y="-33"/>
      <point x="42" y="-1" type="curve" smooth="yes"/>
      <point x="42" y="28"/>
      <point x="53" y="60"/>
      <point x="65" y="82" type="curve"/>
      <point x="55" y="91"/>
      <point x="43" y="97"/>
      <point x="25" y="98" type="curve"/>
      <point x="10" y="67"/>
      <point x="-5" y="32"/>
      <point x="-5" y="-5" type="curve" smooth="yes"/>
      <point x="-5" y="-57"/>
      <point x="24" y="-95"/>
      <point x="77" y="-95" type="curve" smooth="yes"/>
      <point x="117.5625" y="-95.0"/>
      <point x="155.666666667" y="-88.0"/>
      <point x="195" y="-88" type="curve" smooth="yes"/>
      <point x="237.240506329" y="-88.0"/>
      <point x="273.096643349" y="-138.785055045"/>
      <point x="266" y="-228" type="curve"/>
    </contour>
    <contour>
      <point x="292" y="-221" type="move" name="blwm"/>
    </contour>
    <contour>
      <point x="183" y="-221" type="move" name="haln"/>
    </contour>
    <contour>
      <point x="458" y="690" type="move" name="reph"/>
    </contour>
    <contour>
      <point x="458" y="690" type="move" name="chandrabindu"/>
    </contour>
  </outline>
</glyph>
<glyph name="bn_kha.half" format="1">
  <advance width="526"/>
  <outline>
    <contour>
      <point x="368" y="153" type="line"/>
      <point x="324.708627106" y="255.043950393"/>
      <point x="258" y="346"/>
      <point x="143" y="368" type="curve"/>
      <point x="143" y="330" type="line"/>
      <point x="207" y="352" type="line" smooth="yes"/>
      <point x="289.279278401" y="380.28350195"/>
      <point x="336.0" y="429.0"/>
      <point x="336" y="480" type="curve" smooth="yes"/>
      <point x="336" y="508"/>
      <point x="326" y="529"/>
      <point x="311" y="545" type="curve"/>
      <point x="274" y="558" type="line"/>
      <point x="239.187388442" y="518.352303504"/>
      <point x="191.899224806" y="495.0"/>
      <point x="155" y="495" type="curve" smooth="yes"/>
      <point x="117" y="495"/>
      <point x="100" y="507"/>
      <point x="100" y="538" type="curve" smooth="yes"/>
      <point x="100" y="553"/>
      <point x="106" y="569"/>
      <point x="117" y="581" type="curve"/>
      <point x="97" y="581"/>
      <point x="75" y="578"/>
      <point x="60" y="574" type="curve"/>
      <point x="52" y="562"/>
      <point x="48" y="548"/>
      <point x="48" y="532" type="curve" smooth="yes"/>
      <point x="48" y="478"/>
      <point x="92.0" y="449.0"/>
      <point x="155" y="449" type="curve" smooth="yes"/>
      <point x="200.797385621" y="449.0"/>
      <point x="258.081744674" y="482.292816805"/>
      <point x="298" y="530" type="curve"/>
      <point x="276" y="539" type="line"/>
      <point x="288" y="526"/>
      <point x="294" y="513"/>
      <point x="294" y="496" type="curve" smooth="yes"/>
      <point x="294.0" y="454.0"/>
      <point x="261.551062809" y="416.307049537"/>
      <point x="184" y="392" type="curve" smooth="yes"/>
      <point x="117" y="371" type="line"/>
      <point x="118" y="354"/>
      <point x="125" y="332"/>
      <point x="137" y="322" type="curve"/>
      <point x="232" y="304"/>
      <point x="288" y="245"/>
      <point x="339" y="142" type="curve"/>
    </contour>
    <contour>
      <point x="440" y="217"/>
      <point x="466" y="325"/>
      <point x="466" y="474" type="curve" smooth="yes"/>
      <point x="466" y="499"/>
      <point x="468" y="511"/>
      <point x="479" y="518" type="curve" smooth="yes"/>
      <point x="488" y="523"/>
      <point x="502" y="529"/>
      <point x="526" y="535" type="curve"/>
      <point x="529" y="539"/>
      <point x="531" y="549"/>
      <point x="531" y="560" type="curve" smooth="yes"/>
      <point x="531" y="567"/>
      <point x="529" y="577"/>
      <point x="526" y="581" type="curve"/>
      <point x="490" y="571"/>
      <point x="464" y="564"/>
      <point x="445" y="551" type="curve" smooth="yes"/>
      <point x="426" y="539"/>
      <point x="420" y="515"/>
      <point x="420" y="489" type="curve" smooth="yes"/>
      <point x="420" y="479"/>
      <point x="422" y="451"/>
      <point x="422" y="424" type="curve" smooth="yes"/>
      <point x="422" y="356"/>
      <point x="404" y="238"/>
      <point x="356" y="163" type="curve"/>
      <point x="339" y="142" type="line"/>
      <point x="352" y="136"/>
      <point x="370" y="132"/>
      <point x="390" y="132" type="curve"/>
    </contour>
  </outline>
</glyph>
<glyph name="bn_l_ba" format="1">
  <advance width="501"/>
  <outline>
    <contour>
      <point x="298" y="-83" type="line"/>
      <point x="266" y="30"/>
      <point x="197" y="97"/>
      <point x="118" y="133" type="curve"/>
      <point x="110" y="111" type="line"/>
      <point x="172" y="167"/>
      <point x="304" y="250"/>
      <point x="369" y="280" type="curve"/>
      <point x="361" y="328" type="line"/>
      <point x="266" y="288"/>
      <point x="130" y="200"/>
      <point x="73" y="145" type="curve"/>
      <point x="73" y="126"/>
      <point x="81" y="105"/>
      <point x="99" y="89" type="curve"/>
      <point x="180" y="63"/>
      <point x="240" y="4"/>
      <point x="278" y="-105" type="curve"/>
    </contour>
    <contour>
      <point x="331" y="-113" type="curve"/>
      <point x="368" y="-13"/>
      <point x="386" y="222"/>
      <point x="386" y="362" type="curve" smooth="yes"/>
      <point x="386" y="440"/>
      <point x="376" y="554"/>
      <point x="361" y="593" type="curve"/>
      <point x="322" y="585" type="line"/>
      <point x="336" y="535"/>
      <point x="340" y="453"/>
      <point x="340" y="368" type="curve" smooth="yes"/>
      <point x="340" y="207"/>
      <point x="326" y="25"/>
      <point x="278" y="-105" type="curve"/>
      <point x="292" y="-109"/>
      <point x="312" y="-113"/>
    </contour>
    <contour>
      <point x="68" y="550"/>
      <point x="153" y="566"/>
      <point x="249" y="566" type="curve" smooth="yes"/>
      <point x="344" y="566"/>
      <point x="432" y="551"/>
      <point x="501" y="535" type="curve"/>
      <point x="504" y="542"/>
      <point x="506" y="552"/>
      <point x="506" y="559" type="curve" smooth="yes"/>
      <point x="506" y="567"/>
      <point x="504" y="576"/>
      <point x="501" y="581" type="curve"/>
      <point x="434" y="598"/>
      <point x="348" y="616"/>
      <point x="250" y="616" type="curve" smooth="yes"/>
      <point x="152" y="616"/>
      <point x="67" y="598"/>
      <point x="0" y="581" type="curve"/>
      <point x="-3" y="576"/>
      <point x="-5" y="566"/>
      <point x="-5" y="559" type="curve" smooth="yes"/>
      <point x="-5" y="550"/>
      <point x="-3" y="540"/>
      <point x="0" y="535" type="curve"/>
    </contour>
    <contour>
      <point x="169" y="266"/>
      <point x="176" y="291"/>
      <point x="176" y="310" type="curve"/>
      <point x="162" y="308"/>
      <point x="149" y="307"/>
      <point x="138" y="307" type="curve" smooth="yes"/>
      <point x="73.0" y="307.0"/>
      <point x="26.0" y="339.512195122"/>
      <point x="26" y="393" type="curve" smooth="yes"/>
      <point x="26.0" y="435.5"/>
      <point x="47.9803921569" y="461.0"/>
      <point x="85" y="461" type="curve" smooth="yes"/>
      <point x="123.983050847" y="461.0"/>
      <point x="159.514649302" y="429.455480611"/>
      <point x="185" y="382" type="curve"/>
      <point x="220" y="419" type="line"/>
      <point x="183.121070216" y="481.064540369"/>
      <point x="139.993288591" y="516.0"/>
      <point x="89" y="516" type="curve" smooth="yes"/>
      <point x="28.381443299" y="516.0"/>
      <point x="-16.0" y="469.641025641"/>
      <point x="-16" y="403" type="curve" smooth="yes"/>
      <point x="-16.0" y="311.610738255"/>
      <point x="65.9964640663" y="246.999885938"/>
      <point x="159" y="250" type="curve"/>
    </contour>
    <contour>
      <point x="214" y="368"/>
      <point x="232" y="376"/>
      <point x="244" y="386" type="curve"/>
      <point x="198" y="468" type="line"/>
      <point x="154" y="438" type="line"/>
      <point x="195" y="363" type="line"/>
    </contour>
    <contour>
      <point x="352" y="448" type="line"/>
      <point x="346" y="488"/>
      <point x="307" y="526"/>
      <point x="262" y="526" type="curve" smooth="yes"/>
      <point x="222" y="526"/>
      <point x="189" y="497"/>
      <point x="185" y="441" type="curve"/>
      <point x="186" y="405" type="line"/>
      <point x="236" y="400" type="line"/>
      <point x="226" y="418"/>
      <point x="224" y="423"/>
      <point x="224" y="431" type="curve" smooth="yes"/>
      <point x="224" y="456"/>
      <point x="242" y="474"/>
      <point x="273" y="474" type="curve" smooth="yes"/>
      <point x="311" y="474"/>
      <point x="340" y="446"/>
      <point x="340" y="405" type="curve"/>
    </contour>
    <contour>
      <point x="414" y="-73" type="move" name="blwm"/>
    </contour>
    <contour>
      <point x="374" y="-73" type="move" name="haln"/>
    </contour>
    <contour>
      <point x="567" y="750" type="move" name="reph"/>
    </contour>
    <contour>
      <point x="567" y="750" type="move" name="chandrabindu"/>
    </contour>
  </outline>
</glyph>
<glyph name="bn_l_ga" format="1">
  <advance width="545"/>
  <outline>
    <contour>
      <point x="218" y="274" type="curve"/>
      <point x="204" y="272"/>
      <point x="191" y="271"/>
      <point x="180" y="271" type="curve" smooth="yes"/>
      <point x="115" y="271"/>
      <point x="68" y="309"/>
      <point x="68" y="373" type="curve" smooth="yes"/>
      <point x="68" y="424"/>
      <point x="95" y="455"/>
      <point x="139" y="455" type="curve" smooth="yes"/>
      <point x="185" y="455"/>
      <point x="228" y="420"/>
      <point x="257" y="366" type="curve"/>
      <point x="292" y="403" type="line"/>
      <point x="251" y="472"/>
      <point x="201" y="510"/>
      <point x="143" y="510" type="curve" smooth="yes"/>
      <point x="75" y="510"/>
      <point x="26" y="458"/>
      <point x="26" y="383" type="curve" smooth="yes"/>
      <point x="26" y="282"/>
      <point x="108" y="211"/>
      <point x="201" y="214" type="curve"/>
      <point x="211" y="230"/>
      <point x="218" y="255"/>
    </contour>
    <contour>
      <point x="316" y="370" type="curve"/>
      <point x="270" y="452" type="line"/>
      <point x="226" y="422" type="line"/>
      <point x="267" y="347" type="line"/>
      <point x="286" y="352"/>
      <point x="304" y="360"/>
    </contour>
    <contour>
      <point x="424" y="432" type="line"/>
      <point x="418" y="472"/>
      <point x="379" y="510"/>
      <point x="334" y="510" type="curve" smooth="yes"/>
      <point x="294" y="510"/>
      <point x="261" y="481"/>
      <point x="257" y="425" type="curve"/>
      <point x="258" y="389" type="line"/>
      <point x="308" y="384" type="line"/>
      <point x="298" y="402"/>
      <point x="296" y="407"/>
      <point x="296" y="415" type="curve" smooth="yes"/>
      <point x="296" y="440"/>
      <point x="314" y="458"/>
      <point x="345" y="458" type="curve" smooth="yes"/>
      <point x="383" y="458"/>
      <point x="412" y="430"/>
      <point x="412" y="389" type="curve"/>
    </contour>
    <contour>
      <point x="489" y="-128" type="curve"/>
      <point x="471" y="-45"/>
      <point x="456" y="82"/>
      <point x="456" y="270" type="curve" smooth="yes"/>
      <point x="456" y="377"/>
      <point x="460" y="475"/>
      <point x="470" y="562" type="curve"/>
      <point x="429" y="572" type="line"/>
      <point x="414" y="455"/>
      <point x="407" y="344"/>
      <point x="407" y="197" type="curve" smooth="yes"/>
      <point x="407" y="46"/>
      <point x="421" y="-62"/>
      <point x="431" y="-137" type="curve"/>
      <point x="455" y="-137"/>
      <point x="475" y="-134"/>
    </contour>
    <contour>
      <point x="269" y="564" type="curve" smooth="yes"/>
      <point x="360" y="564"/>
      <point x="446" y="554"/>
      <point x="545" y="535" type="curve"/>
      <point x="547" y="541"/>
      <point x="548" y="551"/>
      <point x="548" y="562" type="curve" smooth="yes"/>
      <point x="548" y="572"/>
      <point x="547" y="576"/>
      <point x="545" y="581" type="curve"/>
      <point x="468" y="601"/>
      <point x="368" y="614"/>
      <point x="269" y="614" type="curve" smooth="yes"/>
      <point x="177" y="614"/>
      <point x="90" y="603"/>
      <point x="0" y="581" type="curve"/>
      <point x="-3" y="576"/>
      <point x="-5" y="569"/>
      <point x="-5" y="561" type="curve" smooth="yes"/>
      <point x="-5" y="554"/>
      <point x="-3" y="545"/>
      <point x="0" y="535" type="curve"/>
      <point x="102" y="555"/>
      <point x="183" y="564"/>
    </contour>
    <contour>
      <point x="431" y="-137" type="curve"/>
      <point x="449" y="-123" type="line"/>
      <point x="438" y="47"/>
      <point x="383" y="194"/>
      <point x="254" y="194" type="curve" smooth="yes"/>
      <point x="162" y="194"/>
      <point x="104" y="127"/>
      <point x="104" y="47" type="curve" smooth="yes"/>
      <point x="104" y="27"/>
      <point x="106" y="9"/>
      <point x="110" y="-7" type="curve"/>
      <point x="137" y="-37" type="line"/>
      <point x="174" y="-10"/>
      <point x="217" y="5"/>
      <point x="249" y="5" type="curve" smooth="yes"/>
      <point x="281" y="5"/>
      <point x="299" y="-10"/>
      <point x="299" y="-39" type="curve" smooth="yes"/>
      <point x="299" y="-84"/>
      <point x="240" y="-150"/>
      <point x="169" y="-216" type="curve"/>
      <point x="180" y="-233"/>
      <point x="198" y="-250"/>
      <point x="217" y="-259" type="curve"/>
      <point x="262" y="-210"/>
      <point x="339" y="-121"/>
      <point x="339" y="-46" type="curve" smooth="yes"/>
      <point x="339" y="7"/>
      <point x="297" y="52"/>
      <point x="241" y="52" type="curve" smooth="yes"/>
      <point x="208" y="52"/>
      <point x="164" y="37"/>
      <point x="129" y="10" type="curve"/>
      <point x="159" y="4" type="line"/>
      <point x="154" y="15"/>
      <point x="151" y="29"/>
      <point x="151" y="45" type="curve" smooth="yes"/>
      <point x="151" y="107"/>
      <point x="194" y="139"/>
      <point x="253" y="139" type="curve" smooth="yes"/>
      <point x="335" y="139"/>
      <point x="416" y="41"/>
    </contour>
    <contour>
      <point x="398" y="-73" type="move" name="blwm"/>
    </contour>
    <contour>
      <point x="361.0" y="-73.0" type="move" name="haln"/>
    </contour>
    <contour>
      <point x="568.0" y="750.0" type="move" name="reph"/>
    </contour>
    <contour>
      <point x="568.0" y="750.0" type="move" name="chandrabindu"/>
    </contour>
  </outline>
</glyph>
<glyph name="bn_l_pha" format="1">
  <advance width="860"/>
  <outline>
    <contour>
      <point x="643" y="-240" type="curve"/>
      <point x="617" y="-158"/>
      <point x="614" y="-26"/>
      <point x="614" y="57" type="curve" smooth="yes"/>
      <point x="614" y="116"/>
      <point x="615" y="163"/>
      <point x="619" y="208" type="curve"/>
      <point x="612" y="201" type="line"/>
      <point x="712" y="183"/>
      <point x="795" y="139"/>
      <point x="795" y="69" type="curve" smooth="yes"/>
      <point x="795" y="22"/>
      <point x="757" y="-11"/>
      <point x="696" y="-32" type="curve"/>
      <point x="705" y="-57"/>
      <point x="722" y="-74"/>
      <point x="737" y="-78" type="curve"/>
      <point x="786" y="-54"/>
      <point x="831" y="5"/>
      <point x="831" y="69" type="curve" smooth="yes"/>
      <point x="831" y="155"/>
      <point x="749" y="239"/>
      <point x="578" y="263" type="curve"/>
      <point x="569" y="172"/>
      <point x="565" y="83"/>
      <point x="565" y="-29" type="curve" smooth="yes"/>
      <point x="565" y="-156"/>
      <point x="578" y="-212"/>
      <point x="589" y="-250" type="curve"/>
      <point x="609" y="-250"/>
      <point x="629" y="-248"/>
    </contour>
    <contour>
      <point x="427" y="566" type="curve" smooth="yes"/>
      <point x="601" y="566"/>
      <point x="738" y="560"/>
      <point x="860" y="535" type="curve"/>
      <point x="862" y="541"/>
      <point x="863" y="552"/>
      <point x="863" y="562" type="curve" smooth="yes"/>
      <point x="863" y="569"/>
      <point x="863" y="576"/>
      <point x="860" y="581" type="curve"/>
      <point x="753" y="610"/>
      <point x="605" y="616"/>
      <point x="427" y="616" type="curve" smooth="yes"/>
      <point x="247" y="616"/>
      <point x="122" y="611"/>
      <point x="0" y="581" type="curve"/>
      <point x="-3" y="576"/>
      <point x="-5" y="569"/>
      <point x="-5" y="561" type="curve" smooth="yes"/>
      <point x="-5" y="552"/>
      <point x="-3" y="543"/>
      <point x="0" y="535" type="curve"/>
      <point x="125" y="560"/>
      <point x="251" y="566"/>
    </contour>
    <contour>
      <point x="215" y="200" type="curve"/>
      <point x="201" y="198"/>
      <point x="188" y="197"/>
      <point x="177" y="197" type="curve" smooth="yes"/>
      <point x="112" y="197"/>
      <point x="65" y="235"/>
      <point x="65" y="299" type="curve" smooth="yes"/>
      <point x="65" y="350"/>
      <point x="92" y="381"/>
      <point x="136" y="381" type="curve" smooth="yes"/>
      <point x="182" y="381"/>
      <point x="225" y="346"/>
      <point x="254" y="292" type="curve"/>
      <point x="289" y="329" type="line"/>
      <point x="248" y="398"/>
      <point x="198" y="436"/>
      <point x="140" y="436" type="curve" smooth="yes"/>
      <point x="72" y="436"/>
      <point x="23" y="384"/>
      <point x="23" y="309" type="curve" smooth="yes"/>
      <point x="23" y="208"/>
      <point x="105" y="137"/>
      <point x="198" y="140" type="curve"/>
      <point x="208" y="156"/>
      <point x="215" y="181"/>
    </contour>
    <contour>
      <point x="313" y="296" type="curve"/>
      <point x="267" y="378" type="line"/>
      <point x="223" y="348" type="line"/>
      <point x="264" y="273" type="line"/>
      <point x="283" y="278"/>
      <point x="301" y="286"/>
    </contour>
    <contour>
      <point x="441" y="328" type="line"/>
      <point x="432.523119624" y="383.099722442"/>
      <point x="386.0" y="436.0"/>
      <point x="331" y="436" type="curve" smooth="yes"/>
      <point x="291" y="436"/>
      <point x="258" y="407"/>
      <point x="254" y="351" type="curve"/>
      <point x="255" y="315" type="line"/>
      <point x="305" y="310" type="line"/>
      <point x="295" y="328"/>
      <point x="293" y="333"/>
      <point x="293" y="341" type="curve" smooth="yes"/>
      <point x="293" y="366"/>
      <point x="311" y="384"/>
      <point x="342" y="384" type="curve" smooth="yes"/>
      <point x="391.343283582" y="384.0"/>
      <point x="429.0" y="335.710144928"/>
      <point x="429" y="265" type="curve"/>
    </contour>
    <contour>
      <point x="488" y="153" type="line"/>
      <point x="477" y="167" type="line"/>
      <point x="467" y="303"/>
      <point x="467" y="443"/>
      <point x="477" y="587" type="curve"/>
      <point x="434" y="591" type="line"/>
      <point x="425" y="443"/>
      <point x="425" y="303"/>
      <point x="434" y="171" type="curve"/>
      <point x="279" y="36" type="line"/>
      <point x="281" y="16"/>
      <point x="288" y="-2"/>
      <point x="312" y="-20" type="curve"/>
      <point x="423" y="-43"/>
      <point x="514" y="-115"/>
      <point x="589" y="-250" type="curve"/>
      <point x="604" y="-221" type="line"/>
      <point x="539" y="-79"/>
      <point x="433" y="-4"/>
      <point x="323" y="31" type="curve"/>
      <point x="320" y="3" type="line"/>
    </contour>
    <contour>
      <point x="492" y="-162" type="move" name="blwm"/>
    </contour>
    <contour>
      <point x="453" y="-162" type="move" name="haln"/>
    </contour>
    <contour>
      <point x="558" y="750" type="move" name="reph"/>
    </contour>
    <contour>
      <point x="558" y="750" type="move" name="chandrabindu"/>
    </contour>
  </outline>
</glyph>
<glyph name="bn_m_b_ra" format="1">
  <advance width="546"/>
  <outline>
    <contour>
      <point x="515" y="449" type="curve" smooth="yes"/>
      <point x="515" y="514"/>
      <point x="473" y="561"/>
      <point x="403" y="584" type="curve"/>
      <point x="345" y="564" type="line"/>
      <point x="415" y="564"/>
      <point x="467" y="526"/>
      <point x="467" y="458" type="curve" smooth="yes"/>
      <point x="467" y="399"/>
      <point x="428" y="362"/>
      <point x="358" y="362" type="curve" smooth="yes"/>
      <point x="285" y="362"/>
      <point x="235" y="403"/>
      <point x="215" y="440" type="curve"/>
      <point x="204" y="400" type="line"/>
      <point x="226" y="357"/>
      <point x="295" y="315"/>
      <point x="369" y="315" type="curve" smooth="yes"/>
      <point x="453" y="315"/>
      <point x="515" y="370"/>
    </contour>
    <contour>
      <point x="242" y="433" type="curve"/>
      <point x="200" y="456" type="line"/>
      <point x="197" y="395"/>
      <point x="169" y="363"/>
      <point x="127" y="363" type="curve" smooth="yes"/>
      <point x="92" y="363"/>
      <point x="71" y="385"/>
      <point x="71" y="416" type="curve" smooth="yes"/>
      <point x="71" y="444"/>
      <point x="89" y="471"/>
      <point x="124" y="471" type="curve" smooth="yes"/>
      <point x="155" y="471"/>
      <point x="184" y="449"/>
      <point x="202" y="411" type="curve"/>
      <point x="209" y="450" type="line"/>
      <point x="190" y="488"/>
      <point x="159" y="511"/>
      <point x="120" y="511" type="curve" smooth="yes"/>
      <point x="72" y="511"/>
      <point x="31" y="476"/>
      <point x="31" y="417" type="curve" smooth="yes"/>
      <point x="31" y="356"/>
      <point x="74" y="316"/>
      <point x="128" y="316" type="curve" smooth="yes"/>
      <point x="190" y="316"/>
      <point x="237" y="369"/>
    </contour>
    <contour>
      <point x="244" y="452" type="curve" smooth="yes"/>
      <point x="244" y="510"/>
      <point x="217" y="550"/>
      <point x="185" y="580" type="curve"/>
      <point x="133" y="565" type="line"/>
      <point x="175" y="546"/>
      <point x="202" y="512"/>
      <point x="202" y="473" type="curve" smooth="yes"/>
      <point x="202" y="456"/>
      <point x="197" y="448"/>
      <point x="193" y="442" type="curve"/>
      <point x="236" y="399" type="line"/>
      <point x="241" y="409"/>
      <point x="244" y="432"/>
    </contour>
    <contour>
      <point x="271" y="566" type="curve" smooth="yes"/>
      <point x="382" y="566"/>
      <point x="467" y="551"/>
      <point x="546" y="535" type="curve"/>
      <point x="548" y="541"/>
      <point x="549" y="552"/>
      <point x="549" y="562" type="curve" smooth="yes"/>
      <point x="549" y="569"/>
      <point x="549" y="576"/>
      <point x="546" y="581" type="curve"/>
      <point x="477" y="600"/>
      <point x="384" y="616"/>
      <point x="271" y="616" type="curve" smooth="yes"/>
      <point x="157" y="616"/>
      <point x="78" y="600"/>
      <point x="0" y="581" type="curve"/>
      <point x="-3" y="576"/>
      <point x="-5" y="569"/>
      <point x="-5" y="561" type="curve" smooth="yes"/>
      <point x="-5" y="552"/>
      <point x="-3" y="543"/>
      <point x="0" y="535" type="curve"/>
      <point x="80" y="551"/>
      <point x="159" y="566"/>
    </contour>
    <contour>
      <point x="414" y="30" type="curve"/>
      <point x="373.927359167" y="101.348848313"/>
      <point x="304.018068312" y="144.470220808"/>
      <point x="234" y="178" type="curve"/>
      <point x="285" y="217"/>
      <point x="360" y="255"/>
      <point x="410" y="272" type="curve"/>
      <point x="408.032898368" y="198.233688789"/>
      <point x="408.10547849" y="113.505721392"/>
    </contour>
    <contour>
      <point x="438" y="-229" type="curve"/>
      <point x="456.409090909" y="-229.0"/>
      <point x="474.152686178" y="-228.32874645"/>
      <point x="492" y="-220" type="curve"/>
      <point x="465" y="-43"/>
      <point x="443" y="142"/>
      <point x="458" y="362" type="curve"/>
      <point x="414" y="341" type="line"/>
      <point x="414" y="337"/>
      <point x="413" y="333"/>
      <point x="413" y="328" type="curve"/>
      <point x="328" y="300"/>
      <point x="223" y="242"/>
      <point x="176" y="196" type="curve"/>
      <point x="176" y="177"/>
      <point x="185" y="157"/>
      <point x="203" y="140" type="curve"/>
      <point x="299.672538132" y="110.489435728"/>
      <point x="373" y="49"/>
      <point x="415" y="-37" type="curve"/>
      <point x="420" y="-84"/>
      <point x="424.031940869" y="-122.207615649"/>
      <point x="432" y="-174" type="curve"/>
      <point x="404" y="-141"/>
      <point x="364.1875" y="-122.0"/>
      <point x="308" y="-122" type="curve" smooth="yes"/>
      <point x="252" y="-122"/>
      <point x="205" y="-152"/>
      <point x="161" y="-152" type="curve" smooth="yes"/>
      <point x="125" y="-152"/>
      <point x="97" y="-133"/>
      <point x="97" y="-92" type="curve" smooth="yes"/>
      <point x="97" y="-67"/>
      <point x="104" y="-41"/>
      <point x="113" y="-22" type="curve"/>
      <point x="103" y="-14"/>
      <point x="91" y="-9"/>
      <point x="73" y="-8" type="curve"/>
      <point x="61" y="-34"/>
      <point x="51" y="-64"/>
      <point x="51" y="-96" type="curve" smooth="yes"/>
      <point x="51" y="-157"/>
      <point x="87" y="-200"/>
      <point x="155" y="-200" type="curve" smooth="yes"/>
      <point x="206" y="-200"/>
      <point x="261" y="-170"/>
      <point x="312" y="-170" type="curve" smooth="yes"/>
      <point x="388" y="-170"/>
      <point x="414" y="-201"/>
    </contour>
    <contour>
      <point x="423.0" y="-211.0" type="move" name="blwm"/>
    </contour>
    <contour>
      <point x="275.0" y="-237.0" type="move" name="haln"/>
    </contour>
    <contour>
      <point x="434.0" y="690.0" type="move" name="reph"/>
    </contour>
    <contour>
      <point x="434.0" y="690.0" type="move" name="chandrabindu"/>
    </contour>
  </outline>
</glyph>
